Hack-BoldItalic.ufo
<glyph name="exclam" format="1">
  <advance width="1233"/>
  <unicode hex="0021"/>
  <outline>
    <contour>
      <point x="637" y="1054" type="line" name="hr00"/>
      <point x="708" y="1508" type="line" name="at01"/>
      <point x="994" y="1508" type="line"/>
      <point x="922" y="1051" type="line"/>
      <point x="763" y="476" type="line"/>
      <point x="624" y="476" type="line"/>
    </contour>
    <contour>
      <point x="612" y="-65" type="qcurve" name="dv01"/>
      <point x="574" y="-65"/>
      <point x="520" y="-40"/>
      <point x="503" y="-22" type="qcurve"/>
      <point x="481" y="3"/>
      <point x="465" y="64"/>
      <point x="465" y="90" type="qcurve" name="dh01"/>
      <point x="465" y="121"/>
      <point x="484" y="181"/>
      <point x="519" y="231"/>
      <point x="568" y="270"/>
      <point x="597" y="281" type="qcurve"/>
      <point x="630" y="293"/>
      <point x="670" y="293" type="qcurve" name="dv02"/>
      <point x="713" y="293"/>
      <point x="764" y="264"/>
      <point x="780" y="247" type="qcurve"/>
      <point x="800" y="224"/>
      <point x="817" y="170"/>
      <point x="817" y="140" type="qcurve" name="dh02"/>
      <point x="817" y="119"/>
      <point x="809" y="80"/>
      <point x="803" y="66" type="qcurve"/>
      <point x="787" y="27"/>
      <point x="728" y="-35"/>
      <point x="686" y="-52" type="qcurve"/>
      <point x="653" y="-65"/>
    </contour>
  </outline>
</glyph>
<glyph name="quotedbl" format="1">
  <advance width="1233"/>
  <unicode hex="0022"/>
  <outline>
    <contour>
      <point x="231" y="1493" type="line" name="hr00"/>
      <point x="487" y="1493" type="line" name="sh01"/>
      <point x="487" y="938" type="line" name="av01"/>
      <point x="231" y="938" type="line"/>
    </contour>
    <contour>
      <point x="743" y="1493" type="line" name="ah01"/>
      <point x="999" y="1493" type="line" name="sh02"/>
      <point x="999" y="938" type="line" name="av02"/>
      <point x="743" y="938" type="line"/>
    </contour>
  </outline>
</glyph>
<glyph name="numbersign" format="1">
  <advance width="1233"/>
  <unicode hex="0023"/>
  <note>
	numbersign
  </note>
  <outline>
    <contour>
      <point x="104" y="0" type="line"/>
      <point x="326" y="0" type="line"/>
      <point x="420" y="373" type="line"/>
      <point x="625" y="373" type="line"/>
      <point x="530" y="0" type="line"/>
      <point x="752" y="0" type="line"/>
      <point x="846" y="373" type="line"/>
      <point x="1087" y="373" type="line"/>
      <point x="1141" y="588" type="line"/>
      <point x="901" y="588" type="line"/>
      <point x="973" y="881" type="line"/>
      <point x="1214" y="881" type="line"/>
      <point x="1268" y="1096" type="line"/>
      <point x="1028" y="1096" type="line"/>
      <point x="1122" y="1470" type="line"/>
      <point x="901" y="1470" type="line"/>
      <point x="807" y="1096" type="line"/>
      <point x="602" y="1096" type="line"/>
      <point x="696" y="1470" type="line"/>
      <point x="475" y="1470" type="line"/>
      <point x="381" y="1096" type="line"/>
      <point x="139" y="1096" type="line"/>
      <point x="86" y="881" type="line"/>
      <point x="326" y="881" type="line"/>
      <point x="254" y="588" type="line"/>
      <point x="12" y="588" type="line"/>
      <point x="-41" y="373" type="line"/>
      <point x="199" y="373" type="line"/>
    </contour>
    <contour>
      <point x="475" y="588" type="line"/>
      <point x="549" y="881" type="line"/>
      <point x="752" y="881" type="line"/>
      <point x="678" y="588" type="line"/>
    </contour>
  </outline>
</glyph>
<glyph name="percent" format="1">
  <advance width="1233"/>
  <unicode hex="0025"/>
  <note>
	percent
  </note>
  <outline>
    <contour>
      <point x="400" y="778"/>
      <point x="444" y="786"/>
      <point x="486" y="802" type="curve" smooth="yes"/>
      <point x="533" y="821"/>
      <point x="570" y="846"/>
      <point x="599" y="873" type="curve" smooth="yes"/>
      <point x="633" y="905"/>
      <point x="658" y="940"/>
      <point x="675" y="978" type="curve" smooth="yes"/>
      <point x="692" y="1016"/>
      <point x="700" y="1058"/>
      <point x="700" y="1103" type="curve" smooth="yes"/>
      <point x="700" y="1148"/>
      <point x="691" y="1191"/>
      <point x="673" y="1231" type="curve" smooth="yes"/>
      <point x="654" y="1274"/>
      <point x="628" y="1308"/>
      <point x="597" y="1337" type="curve" smooth="yes"/>
      <point x="582" y="1352"/>
      <point x="564" y="1365"/>
      <point x="545" y="1377" type="curve" smooth="yes"/>
      <point x="524" y="1390"/>
      <point x="518" y="1394"/>
      <point x="484" y="1407" type="curve"/>
      <point x="481" y="1408"/>
      <point x="476" y="1411"/>
      <point x="452" y="1418" type="curve" smooth="yes"/>
      <point x="435" y="1423"/>
      <point x="430" y="1423"/>
      <point x="419" y="1426" type="curve" smooth="yes"/>
      <point x="408" y="1429"/>
      <point x="394" y="1430"/>
      <point x="385" y="1431" type="curve" smooth="yes"/>
      <point x="374" y="1432"/>
      <point x="363" y="1432"/>
      <point x="360" y="1432" type="curve" smooth="yes"/>
      <point x="257" y="1432"/>
      <point x="172" y="1400"/>
      <point x="109" y="1339" type="curve" smooth="yes"/>
      <point x="49" y="1280"/>
      <point x="13" y="1198"/>
      <point x="13" y="1105" type="curve" smooth="yes"/>
      <point x="13" y="1009"/>
      <point x="52" y="927"/>
      <point x="109" y="871" type="curve" smooth="yes"/>
      <point x="176" y="807"/>
      <point x="264" y="778"/>
      <point x="353" y="778" type="curve" smooth="yes"/>
    </contour>
    <contour>
      <point x="299" y="943"/>
      <point x="254" y="961"/>
      <point x="225" y="989" type="curve" smooth="yes"/>
      <point x="194" y="1020"/>
      <point x="178" y="1060"/>
      <point x="178" y="1104" type="curve" smooth="yes"/>
      <point x="178" y="1147"/>
      <point x="194" y="1189"/>
      <point x="226" y="1220" type="curve" smooth="yes"/>
      <point x="258" y="1251"/>
      <point x="304" y="1266"/>
      <point x="351" y="1266" type="curve" smooth="yes"/>
      <point x="398" y="1266"/>
      <point x="442" y="1250"/>
      <point x="477" y="1219" type="curve" smooth="yes"/>
      <point x="511" y="1188"/>
      <point x="528" y="1149"/>
      <point x="528" y="1103" type="curve" smooth="yes"/>
      <point x="528" y="1080"/>
      <point x="524" y="1060"/>
      <point x="515" y="1042" type="curve" smooth="yes"/>
      <point x="506" y="1023"/>
      <point x="493" y="1006"/>
      <point x="476" y="990" type="curve" smooth="yes"/>
      <point x="453" y="969"/>
      <point x="434" y="960"/>
      <point x="419" y="955" type="curve"/>
      <point x="398" y="947"/>
      <point x="375" y="943"/>
      <point x="351" y="943" type="curve" smooth="yes"/>
    </contour>
    <contour>
      <point x="22" y="431" type="line"/>
      <point x="1232" y="873" type="line"/>
      <point x="1232" y="1018" type="line"/>
      <point x="22" y="570" type="line"/>
    </contour>
    <contour>
      <point x="1002" y="0"/>
      <point x="1087" y="39"/>
      <point x="1144" y="95" type="curve" smooth="yes"/>
      <point x="1207" y="156"/>
      <point x="1240" y="240"/>
      <point x="1240" y="325" type="curve" smooth="yes"/>
      <point x="1240" y="346"/>
      <point x="1238" y="371"/>
      <point x="1234" y="390" type="curve" smooth="yes"/>
      <point x="1230" y="407"/>
      <point x="1225" y="428"/>
      <point x="1214" y="451" type="curve"/>
      <point x="1211" y="455"/>
      <point x="1206" y="469"/>
      <point x="1203" y="474" type="curve" smooth="yes"/>
      <point x="1189" y="496" type="line"/>
      <point x="1175" y="518" type="line"/>
      <point x="1172" y="521"/>
      <point x="1160" y="535"/>
      <point x="1159" y="538" type="curve"/>
      <point x="1140" y="558" type="line" smooth="yes"/>
      <point x="1115" y="583"/>
      <point x="1071" y="612"/>
      <point x="1031" y="629" type="curve" smooth="yes"/>
      <point x="992" y="646"/>
      <point x="948" y="654"/>
      <point x="900" y="654" type="curve" smooth="yes"/>
      <point x="803" y="654"/>
      <point x="718" y="621"/>
      <point x="654" y="561" type="curve" smooth="yes"/>
      <point x="591" y="502"/>
      <point x="553" y="423"/>
      <point x="553" y="327" type="curve" smooth="yes"/>
      <point x="553" y="296"/>
      <point x="557" y="267"/>
      <point x="564" y="239" type="curve" smooth="yes"/>
      <point x="571" y="212"/>
      <point x="582" y="187"/>
      <point x="597" y="162" type="curve" smooth="yes"/>
      <point x="612" y="137"/>
      <point x="632" y="113"/>
      <point x="652" y="94" type="curve" smooth="yes"/>
      <point x="689" y="59"/>
      <point x="727" y="39"/>
      <point x="764" y="24" type="curve" smooth="yes"/>
      <point x="806" y="8"/>
      <point x="851" y="0"/>
      <point x="898" y="0" type="curve" smooth="yes"/>
    </contour>
    <contour>
      <point x="875" y="165"/>
      <point x="852" y="169"/>
      <point x="831" y="177" type="curve" smooth="yes"/>
      <point x="810" y="185"/>
      <point x="792" y="195"/>
      <point x="775" y="211" type="curve" smooth="yes"/>
      <point x="763" y="222"/>
      <point x="752" y="237"/>
      <point x="747" y="245" type="curve" smooth="yes"/>
      <point x="739" y="258"/>
      <point x="735" y="269"/>
      <point x="731" y="284" type="curve" smooth="yes"/>
      <point x="727" y="299"/>
      <point x="725" y="310"/>
      <point x="725" y="326" type="curve" smooth="yes"/>
      <point x="725" y="373"/>
      <point x="742" y="412"/>
      <point x="775" y="443" type="curve" smooth="yes"/>
      <point x="808" y="474"/>
      <point x="852" y="489"/>
      <point x="899" y="489" type="curve" smooth="yes"/>
      <point x="955" y="489"/>
      <point x="997" y="469"/>
      <point x="1024" y="442" type="curve" smooth="yes"/>
      <point x="1056" y="411"/>
      <point x="1073" y="369"/>
      <point x="1073" y="325" type="curve" smooth="yes"/>
      <point x="1073" y="282"/>
      <point x="1057" y="243"/>
      <point x="1024" y="212" type="curve" smooth="yes"/>
      <point x="991" y="181"/>
      <point x="949" y="165"/>
      <point x="900" y="165" type="curve" smooth="yes"/>
    </contour>
  </outline>
</glyph>
<glyph name="ampersand" format="1">
  <advance width="1233"/>
  <unicode hex="0026"/>
  <outline>
    <contour>
      <point x="387" y="-29" type="qcurve" name="dv01"/>
      <point x="295" y="-29"/>
      <point x="138" y="23"/>
      <point x="80" y="77" type="qcurve"/>
      <point x="21" y="132"/>
      <point x="-33" y="279"/>
      <point x="-33" y="362" type="qcurve" name="sh01"/>
      <point x="-33" y="523"/>
      <point x="66" y="666" type="qcurve"/>
      <point x="117" y="739"/>
      <point x="256" y="860"/>
      <point x="350" y="913" type="qcurve"/>
      <point x="336" y="944"/>
      <point x="319" y="994"/>
      <point x="312" y="1021" type="qcurve" name="sh02"/>
      <point x="306" y="1045"/>
      <point x="299" y="1089"/>
      <point x="299" y="1118" type="qcurve" name="ah01"/>
      <point x="299" y="1206"/>
      <point x="365" y="1356"/>
      <point x="432" y="1411" type="qcurve"/>
      <point x="498" y="1465"/>
      <point x="682" y="1520"/>
      <point x="794" y="1520" type="qcurve" name="at01"/>
      <point x="831" y="1520"/>
      <point x="899" y="1514"/>
      <point x="933" y="1509" type="qcurve" name="at02"/>
      <point x="966" y="1504"/>
      <point x="1030" y="1488"/>
      <point x="1065" y="1477" type="qcurve"/>
      <point x="1016" y="1221" type="line" name="hr01"/>
      <point x="962" y="1256"/>
      <point x="898" y="1275" type="qcurve"/>
      <point x="866" y="1285"/>
      <point x="801" y="1294"/>
      <point x="769" y="1294" type="qcurve" name="sv01"/>
      <point x="721" y="1294"/>
      <point x="655" y="1276"/>
      <point x="633" y="1259" type="qcurve"/>
      <point x="586" y="1223"/>
      <point x="586" y="1158" type="qcurve" name="sh03"/>
      <point x="586" y="1122"/>
      <point x="605" y="1065" type="qcurve"/>
      <point x="616" y="1030"/>
      <point x="643" y="966"/>
      <point x="664" y="920" type="qcurve"/>
      <point x="885" y="440" type="line" name="iv01"/>
      <point x="927" y="498"/>
      <point x="951" y="575" type="qcurve"/>
      <point x="974" y="650"/>
      <point x="979" y="745" type="qcurve"/>
      <point x="1214" y="745" type="line"/>
      <point x="1204" y="589"/>
      <point x="1143" y="463" type="qcurve"/>
      <point x="1083" y="338"/>
      <point x="975" y="246" type="qcurve"/>
      <point x="1090" y="0" type="line" name="ab01"/>
      <point x="774" y="0" type="line"/>
      <point x="739" y="72" type="line"/>
      <point x="696" y="47"/>
      <point x="609" y="9"/>
      <point x="564" y="-4" type="qcurve" name="ab02"/>
      <point x="476" y="-29"/>
    </contour>
    <contour>
      <point x="473" y="207" type="qcurve" name="dv02"/>
      <point x="515" y="207"/>
      <point x="562" y="221" type="qcurve"/>
      <point x="585" y="228"/>
      <point x="630" y="248"/>
      <point x="653" y="262" type="qcurve"/>
      <point x="436" y="731" type="line"/>
      <point x="345" y="678"/>
      <point x="299" y="605" type="qcurve" name="sh04"/>
      <point x="275" y="567"/>
      <point x="252" y="482"/>
      <point x="252" y="440" type="qcurve" name="sh05"/>
      <point x="252" y="391"/>
      <point x="283" y="306"/>
      <point x="315" y="273" type="qcurve"/>
      <point x="347" y="240"/>
      <point x="428" y="207"/>
    </contour>
  </outline>
</glyph>
<glyph name="parenleft" format="1">
  <advance width="1233"/>
  <unicode hex="0028"/>
  <note>
	parenleft
  </note>
  <outline>
    <contour>
      <point x="665" y="-270" type="line"/>
      <point x="629" y="-165"/>
      <point x="600" y="-58"/>
      <point x="580" y="50" type="curve" smooth="yes"/>
      <point x="561" y="153"/>
      <point x="552" y="251"/>
      <point x="552" y="346" type="curve" smooth="yes"/>
      <point x="552" y="541"/>
      <point x="591" y="740"/>
      <point x="669" y="941" type="curve" smooth="yes"/>
      <point x="746" y="1140"/>
      <point x="863" y="1345"/>
      <point x="1019" y="1554" type="curve"/>
      <point x="794" y="1554" type="line"/>
      <point x="617" y="1354"/>
      <point x="495" y="1169"/>
      <point x="408" y="974" type="curve" smooth="yes"/>
      <point x="321" y="779"/>
      <point x="278" y="592"/>
      <point x="278" y="393" type="curve" smooth="yes"/>
      <point x="278" y="284"/>
      <point x="291" y="176"/>
      <point x="318" y="67" type="curve" smooth="yes"/>
      <point x="346" y="-49"/>
      <point x="388" y="-161"/>
      <point x="440" y="-270" type="curve"/>
    </contour>
  </outline>
</glyph>
<glyph name="plus" format="1">
  <advance width="1233"/>
  <unicode hex="002B"/>
  <note>
	plus
  </note>
  <outline>
    <contour>
      <point x="498" y="92" type="line"/>
      <point x="735" y="92" type="line"/>
      <point x="735" y="524" type="line"/>
      <point x="1165" y="524" type="line"/>
      <point x="1165" y="762" type="line"/>
      <point x="735" y="762" type="line"/>
      <point x="735" y="1192" type="line"/>
      <point x="498" y="1192" type="line"/>
      <point x="498" y="762" type="line"/>
      <point x="66" y="762" type="line"/>
      <point x="66" y="524" type="line"/>
      <point x="498" y="524" type="line"/>
    </contour>
  </outline>
</glyph>
<glyph name="zero" format="1">
  <advance width="1233"/>
  <unicode hex="0030"/>
  <outline>
    <contour>
      <point x="504" y="-29" type="qcurve" name="hr00"/>
      <point x="396" y="-29"/>
      <point x="245" y="34"/>
      <point x="195" y="98" type="qcurve"/>
      <point x="147" y="160"/>
      <point x="98" y="344"/>
      <point x="98" y="477" type="qcurve" name="sh01"/>
      <point x="98" y="534"/>
      <point x="106" y="627"/>
      <point x="113" y="675" type="qcurve"/>
      <point x="121" y="734"/>
      <point x="141" y="832"/>
      <point x="155" y="886" type="qcurve"/>
      <point x="183" y="992"/>
      <point x="256" y="1173"/>
      <point x="299" y="1243" type="qcurve"/>
      <point x="315" y="1269"/>
      <point x="347" y="1313"/>
      <point x="361" y="1329" type="qcurve"/>
      <point x="394" y="1368"/>
      <point x="431" y="1399" type="qcurve"/>
      <point x="467" y="1429"/>
      <point x="508" y="1452" type="qcurve"/>
      <point x="569" y="1486"/>
      <point x="706" y="1520"/>
      <point x="786" y="1520" type="qcurve" name="at01"/>
      <point x="898" y="1520"/>
      <point x="1048" y="1455"/>
      <point x="1096" y="1394" type="qcurve"/>
      <point x="1146" y="1331"/>
      <point x="1195" y="1145"/>
      <point x="1195" y="1023" type="qcurve" name="sh02"/>
      <point x="1195" y="930"/>
      <point x="1167" y="715"/>
      <point x="1138" y="606" type="qcurve"/>
      <point x="1111" y="503"/>
      <point x="1036" y="318"/>
      <point x="994" y="250" type="qcurve"/>
      <point x="975" y="219"/>
      <point x="927" y="155"/>
      <point x="899" y="127" type="qcurve"/>
      <point x="874" y="102"/>
      <point x="816" y="57"/>
      <point x="785" y="40" type="qcurve"/>
      <point x="663" y="-29"/>
    </contour>
    <contour>
      <point x="529" y="165" type="qcurve" name="dv01"/>
      <point x="551" y="165"/>
      <point x="588" y="171"/>
      <point x="607" y="177" type="qcurve"/>
      <point x="623" y="182"/>
      <point x="661" y="200"/>
      <point x="678" y="212" type="qcurve"/>
      <point x="710" y="234"/>
      <point x="771" y="306"/>
      <point x="794" y="351" type="qcurve"/>
      <point x="801" y="364"/>
      <point x="819" y="401"/>
      <point x="829" y="423" type="qcurve"/>
      <point x="838" y="443"/>
      <point x="853" y="483"/>
      <point x="860" y="502" type="qcurve"/>
      <point x="865" y="516"/>
      <point x="873" y="537"/>
      <point x="879" y="557"/>
      <point x="885" y="576"/>
      <point x="889" y="589" type="qcurve"/>
      <point x="894" y="605"/>
      <point x="908" y="659"/>
      <point x="914" y="685" type="qcurve"/>
      <point x="919" y="707"/>
      <point x="927" y="742"/>
      <point x="933" y="772"/>
      <point x="938" y="801"/>
      <point x="941" y="816" type="qcurve"/>
      <point x="947" y="851"/>
      <point x="955" y="910"/>
      <point x="957" y="939" type="qcurve" name="sh03"/>
      <point x="959" y="968"/>
      <point x="962" y="1027"/>
      <point x="962" y="1051" type="qcurve" name="ah01"/>
      <point x="962" y="1068"/>
      <point x="961" y="1099"/>
      <point x="960" y="1111" type="qcurve" name="sh04"/>
      <point x="959" y="1123"/>
      <point x="957" y="1145"/>
      <point x="954" y="1160" type="qcurve" name="sh05"/>
      <point x="953" y="1165"/>
      <point x="947" y="1193"/>
      <point x="945" y="1201" type="qcurve"/>
      <point x="943" y="1207"/>
      <point x="935" y="1230"/>
      <point x="931" y="1237" type="qcurve"/>
      <point x="929" y="1242"/>
      <point x="921" y="1255"/>
      <point x="914" y="1264" type="qcurve"/>
      <point x="903" y="1279"/>
      <point x="873" y="1303"/>
      <point x="854" y="1311" type="qcurve"/>
      <point x="835" y="1319"/>
      <point x="789" y="1326"/>
      <point x="766" y="1326" type="qcurve" name="sv01"/>
      <point x="724" y="1326"/>
      <point x="647" y="1302"/>
      <point x="614" y="1279" type="qcurve"/>
      <point x="576" y="1253"/>
      <point x="518" y="1180"/>
      <point x="497" y="1142" type="qcurve"/>
      <point x="462" y="1079"/>
      <point x="398" y="903"/>
      <point x="376" y="807" type="qcurve"/>
      <point x="352" y="704"/>
      <point x="329" y="507"/>
      <point x="329" y="433" type="qcurve" name="sh06"/>
      <point x="329" y="357"/>
      <point x="353" y="258"/>
      <point x="379" y="226" type="qcurve"/>
      <point x="428" y="165"/>
    </contour>
    <contour>
      <point x="572" y="410" type="line"/>
      <point x="571" y="410"/>
      <point x="570" y="412"/>
      <point x="569" y="412" type="qcurve"/>
      <point x="565" y="412" type="line"/>
      <point x="517" y="427"/>
      <point x="521" y="543" type="qcurve"/>
      <point x="521" y="555" type="line"/>
      <point x="521" y="558"/>
      <point x="522" y="564"/>
      <point x="523" y="568" type="qcurve"/>
      <point x="523" y="581" type="line"/>
      <point x="523" y="583"/>
      <point x="523" y="588"/>
      <point x="524" y="595" type="qcurve"/>
      <point x="528" y="628"/>
      <point x="532" y="667"/>
      <point x="536" y="693"/>
      <point x="539" y="712"/>
      <point x="541" y="725" type="qcurve"/>
      <point x="542" y="731"/>
      <point x="547" y="755"/>
      <point x="552" y="780"/>
      <point x="557" y="801"/>
      <point x="558" y="804" type="qcurve"/>
      <point x="562" y="819"/>
      <point x="567" y="836"/>
      <point x="570" y="845"/>
      <point x="571" y="847"/>
      <point x="571" y="848" type="qcurve"/>
      <point x="573" y="856"/>
      <point x="585" y="893"/>
      <point x="589" y="905" type="qcurve"/>
      <point x="595" y="922"/>
      <point x="612" y="963"/>
      <point x="617" y="974" type="qcurve"/>
      <point x="626" y="995"/>
      <point x="650" y="1035"/>
      <point x="677" y="1066"/>
      <point x="704" y="1084"/>
      <point x="716" y="1084" type="qcurve"/>
      <point x="721" y="1084" type="line"/>
      <point x="723" y="1084"/>
      <point x="727" y="1082" type="qcurve"/>
      <point x="780" y="1067"/>
      <point x="775" y="954" type="qcurve"/>
      <point x="775" y="953" type="line"/>
      <point x="774" y="949"/>
      <point x="774" y="941" type="qcurve"/>
      <point x="774" y="927" type="line"/>
      <point x="772" y="895"/>
      <point x="762" y="825" type="qcurve"/>
      <point x="757" y="800"/>
      <point x="749" y="757"/>
      <point x="746" y="746" type="qcurve"/>
      <point x="742" y="729"/>
      <point x="728" y="679"/>
      <point x="710" y="625"/>
      <point x="691" y="570"/>
      <point x="682" y="548" type="qcurve"/>
      <point x="668" y="513"/>
      <point x="643" y="463"/>
      <point x="630" y="445" type="qcurve"/>
      <point x="616" y="426"/>
      <point x="589" y="410"/>
      <point x="575" y="410" type="qcurve"/>
    </contour>
  </outline>
</glyph>
<glyph name="three" format="1">
  <advance width="1233"/>
  <unicode hex="0033"/>
  <outline>
    <contour>
      <point x="421" y="-29" type="qcurve" name="dv01"/>
      <point x="370" y="-29"/>
      <point x="265" y="-20"/>
      <point x="206" y="-10" type="qcurve"/>
      <point x="143" y="1"/>
      <point x="29" y="28"/>
      <point x="-31" y="45" type="qcurve"/>
      <point x="23" y="315" type="line"/>
      <point x="73" y="291"/>
      <point x="174" y="256"/>
      <point x="223" y="245" type="qcurve"/>
      <point x="275" y="233"/>
      <point x="381" y="221"/>
      <point x="430" y="221" type="qcurve" name="dv02"/>
      <point x="518" y="221"/>
      <point x="631" y="258"/>
      <point x="669" y="290" type="qcurve" name="hr01"/>
      <point x="707" y="322"/>
      <point x="750" y="417"/>
      <point x="750" y="477" type="qcurve" name="dh01"/>
      <point x="750" y="572"/>
      <point x="686" y="620" type="qcurve"/>
      <point x="654" y="644"/>
      <point x="565" y="668"/>
      <point x="514" y="668" type="qcurve" name="dv03"/>
      <point x="356" y="668" type="line"/>
      <point x="408" y="928" type="line"/>
      <point x="565" y="928" type="line" name="dv04"/>
      <point x="688" y="928"/>
      <point x="767" y="984" type="qcurve"/>
      <point x="807" y="1013"/>
      <point x="844" y="1083"/>
      <point x="844" y="1124" type="qcurve" name="ih01"/>
      <point x="844" y="1194"/>
      <point x="787" y="1232" type="qcurve"/>
      <point x="761" y="1249"/>
      <point x="680" y="1270"/>
      <point x="622" y="1270" type="qcurve" name="sv01"/>
      <point x="540" y="1270"/>
      <point x="441" y="1249" type="qcurve"/>
      <point x="390" y="1238"/>
      <point x="286" y="1208"/>
      <point x="231" y="1188" type="qcurve"/>
      <point x="285" y="1456" type="line"/>
      <point x="339" y="1473"/>
      <point x="438" y="1496"/>
      <point x="486" y="1504" type="qcurve"/>
      <point x="534" y="1512"/>
      <point x="627" y="1520"/>
      <point x="667" y="1520" type="qcurve" name="at01"/>
      <point x="773" y="1520"/>
      <point x="940" y="1470"/>
      <point x="998" y="1424" type="qcurve" name="hr02"/>
      <point x="1060" y="1375"/>
      <point x="1120" y="1241"/>
      <point x="1120" y="1164" type="qcurve" name="sh01"/>
      <point x="1120" y="1098"/>
      <point x="1075" y="982"/>
      <point x="1026" y="931" type="qcurve"/>
      <point x="977" y="880"/>
      <point x="845" y="819"/>
      <point x="764" y="805" type="qcurve" name="ih02"/>
      <point x="899" y="769"/>
      <point x="964" y="687" type="qcurve"/>
      <point x="997" y="645"/>
      <point x="1030" y="540"/>
      <point x="1030" y="470" type="qcurve" name="dh02"/>
      <point x="1030" y="360"/>
      <point x="948" y="174"/>
      <point x="867" y="106" type="qcurve"/>
      <point x="786" y="38"/>
      <point x="561" y="-29"/>
    </contour>
  </outline>
</glyph>
<glyph name="five" format="1">
  <advance width="1233"/>
  <unicode hex="0035"/>
  <outline>
    <contour>
      <point x="387" y="-29" type="qcurve" name="hr00"/>
      <point x="340" y="-29"/>
      <point x="245" y="-21"/>
      <point x="197" y="-13" type="qcurve"/>
      <point x="100" y="4"/>
      <point x="6" y="35" type="qcurve"/>
      <point x="57" y="301" type="line"/>
      <point x="126" y="261"/>
      <point x="213" y="240" type="qcurve"/>
      <point x="256" y="229"/>
      <point x="346" y="219"/>
      <point x="391" y="219" type="qcurve" name="dv01"/>
      <point x="481" y="219"/>
      <point x="616" y="259"/>
      <point x="665" y="298" type="qcurve"/>
      <point x="715" y="338"/>
      <point x="764" y="445"/>
      <point x="764" y="509" type="qcurve" name="dh01"/>
      <point x="764" y="617"/>
      <point x="693" y="677" type="qcurve"/>
      <point x="622" y="737"/>
      <point x="498" y="737" type="qcurve" name="dv02"/>
      <point x="425" y="737"/>
      <point x="340" y="717" type="qcurve"/>
      <point x="260" y="698"/>
      <point x="178" y="659" type="qcurve"/>
      <point x="340" y="1493" type="line" name="at01"/>
      <point x="1151" y="1493" type="line"/>
      <point x="1100" y="1233" type="line" name="sv01"/>
      <point x="528" y="1233" type="line"/>
      <point x="475" y="956" type="line" name="iv01"/>
      <point x="506" y="969"/>
      <point x="544" y="975" type="qcurve"/>
      <point x="580" y="981"/>
      <point x="622" y="981" type="qcurve" name="dv03"/>
      <point x="721" y="981"/>
      <point x="881" y="920"/>
      <point x="936" y="865" type="qcurve"/>
      <point x="992" y="809"/>
      <point x="1051" y="649"/>
      <point x="1051" y="545" type="qcurve" name="dh02"/>
      <point x="1051" y="418"/>
      <point x="962" y="205"/>
      <point x="873" y="127" type="qcurve"/>
      <point x="785" y="49"/>
      <point x="540" y="-29"/>
    </contour>
  </outline>
</glyph>
<glyph name="seven" format="1">
  <advance width="1233"/>
  <unicode hex="0037"/>
  <outline>
    <contour>
      <point x="844" y="1233" type="line" name="hr00"/>
      <point x="211" y="1233" type="line"/>
      <point x="262" y="1493" type="line" name="at01"/>
      <point x="1225" y="1493" type="line"/>
      <point x="1184" y="1284" type="line"/>
      <point x="428" y="0" type="line" name="ab01"/>
      <point x="109" y="0" type="line"/>
    </contour>
  </outline>
</glyph>
<glyph name="eight" format="1">
  <advance width="1233"/>
  <unicode hex="0038"/>
  <outline>
    <contour>
      <point x="502" y="-29" type="qcurve" name="dv01"/>
      <point x="396" y="-29"/>
      <point x="234" y="23"/>
      <point x="178" y="71" type="qcurve"/>
      <point x="63" y="171"/>
      <point x="63" y="352" type="qcurve" name="dh01"/>
      <point x="63" y="437"/>
      <point x="114" y="581"/>
      <point x="162" y="639" type="qcurve"/>
      <point x="210" y="697"/>
      <point x="346" y="779"/>
      <point x="434" y="799" type="qcurve" name="ih02"/>
      <point x="383" y="813"/>
      <point x="305" y="860"/>
      <point x="277" y="897" type="qcurve"/>
      <point x="251" y="931"/>
      <point x="223" y="1018"/>
      <point x="223" y="1075" type="qcurve" name="ih01"/>
      <point x="223" y="1163"/>
      <point x="295" y="1325"/>
      <point x="370" y="1391" type="qcurve"/>
      <point x="439" y="1451"/>
      <point x="621" y="1520"/>
      <point x="730" y="1520" type="qcurve" name="at01"/>
      <point x="820" y="1520"/>
      <point x="968" y="1471"/>
      <point x="1025" y="1422" type="qcurve"/>
      <point x="1079" y="1375"/>
      <point x="1137" y="1245"/>
      <point x="1137" y="1161" type="qcurve" name="sh02"/>
      <point x="1137" y="1016"/>
      <point x="1048" y="913" type="qcurve" name="hr01"/>
      <point x="960" y="812"/>
      <point x="809" y="786" type="qcurve" name="ih04"/>
      <point x="917" y="758"/>
      <point x="979" y="673" type="qcurve"/>
      <point x="1009" y="631"/>
      <point x="1040" y="529"/>
      <point x="1040" y="461" type="qcurve" name="dh04"/>
      <point x="1040" y="357"/>
      <point x="967" y="176"/>
      <point x="892" y="107" type="qcurve"/>
      <point x="823" y="44"/>
      <point x="628" y="-29"/>
    </contour>
    <contour>
      <point x="653" y="903" type="qcurve" name="dv03"/>
      <point x="697" y="903"/>
      <point x="781" y="933"/>
      <point x="813" y="963" type="qcurve"/>
      <point x="877" y="1023"/>
      <point x="877" y="1116" type="qcurve" name="ih03"/>
      <point x="877" y="1195"/>
      <point x="831" y="1240" type="qcurve"/>
      <point x="784" y="1284"/>
      <point x="705" y="1284" type="qcurve" name="hr02"/>
      <point x="611" y="1284"/>
      <point x="548" y="1223" type="qcurve"/>
      <point x="519" y="1195"/>
      <point x="485" y="1117"/>
      <point x="485" y="1070" type="qcurve" name="sh01"/>
      <point x="485" y="1035"/>
      <point x="507" y="973"/>
      <point x="530" y="950" type="qcurve"/>
      <point x="554" y="925"/>
      <point x="616" y="903"/>
    </contour>
    <contour>
      <point x="528" y="209" type="qcurve" name="hr03"/>
      <point x="582" y="209"/>
      <point x="674" y="247"/>
      <point x="709" y="285" type="qcurve"/>
      <point x="743" y="322"/>
      <point x="778" y="420"/>
      <point x="778" y="474" type="qcurve" name="dh03"/>
      <point x="778" y="523"/>
      <point x="750" y="593"/>
      <point x="725" y="617" type="qcurve"/>
      <point x="701" y="640"/>
      <point x="629" y="668"/>
      <point x="579" y="668" type="qcurve" name="dv02"/>
      <point x="467" y="668"/>
      <point x="397" y="593" type="qcurve"/>
      <point x="362" y="556"/>
      <point x="326" y="458"/>
      <point x="326" y="405" type="qcurve" name="dh02"/>
      <point x="326" y="361"/>
      <point x="353" y="287"/>
      <point x="382" y="260" type="qcurve"/>
      <point x="410" y="234"/>
      <point x="484" y="209"/>
    </contour>
  </outline>
</glyph>
<glyph name="semicolon" format="1">
  <advance width="1233"/>
  <unicode hex="003B"/>
  <outline>
    <contour>
      <point x="724" y="698" type="qcurve" name="dv01"/>
      <point x="686" y="698"/>
      <point x="621" y="725"/>
      <point x="598" y="751" type="qcurve"/>
      <point x="579" y="774"/>
      <point x="564" y="832"/>
      <point x="564" y="863" type="qcurve"/>
      <point x="564" y="865"/>
      <point x="564" y="870"/>
      <point x="565" y="875" type="qcurve"/>
      <point x="567" y="895" type="line"/>
      <point x="571" y="915"/>
      <point x="582" y="951"/>
      <point x="593" y="971" type="qcurve"/>
      <point x="612" y="1005"/>
      <point x="641" y="1031" type="qcurve"/>
      <point x="670" y="1055"/>
      <point x="738" y="1084"/>
      <point x="780" y="1084" type="qcurve" name="dv02"/>
      <point x="818" y="1084"/>
      <point x="882" y="1057"/>
      <point x="905" y="1031" type="qcurve"/>
      <point x="923" y="1009"/>
      <point x="942" y="955"/>
      <point x="942" y="920" type="qcurve"/>
      <point x="942" y="918"/>
      <point x="942" y="913"/>
      <point x="941" y="908" type="qcurve"/>
      <point x="939" y="889" type="line"/>
      <point x="933" y="860"/>
      <point x="921" y="828"/>
      <point x="911" y="811" type="qcurve"/>
      <point x="901" y="793"/>
      <point x="879" y="765"/>
      <point x="863" y="751" type="qcurve"/>
      <point x="846" y="736"/>
      <point x="815" y="719"/>
      <point x="798" y="711" type="qcurve"/>
      <point x="765" y="698"/>
    </contour>
    <contour>
      <point x="320" y="-342" type="line"/>
      <point x="333" y="-336" type="line"/>
      <point x="462" y="-282"/>
      <point x="614" y="-121"/>
      <point x="639" y="-19" type="qcurve" name="ab01"/>
      <point x="634" y="-20"/>
      <point x="624" y="-20"/>
      <point x="619" y="-20" type="qcurve" name="ab02"/>
      <point x="540" y="-20"/>
      <point x="497" y="26" type="qcurve"/>
      <point x="462" y="63"/>
      <point x="462" y="119" type="qcurve"/>
      <point x="462" y="129" type="line"/>
      <point x="462" y="135"/>
      <point x="463" y="148"/>
      <point x="464" y="156" type="qcurve"/>
      <point x="470" y="195"/>
      <point x="508" y="259"/>
      <point x="537" y="282" type="qcurve"/>
      <point x="555" y="298"/>
      <point x="579" y="307" type="qcurve"/>
      <point x="599" y="319"/>
      <point x="624" y="323" type="qcurve"/>
      <point x="635" y="325"/>
      <point x="659" y="328"/>
      <point x="673" y="328" type="qcurve" name="sv01"/>
      <point x="721" y="328"/>
      <point x="793" y="290"/>
      <point x="816" y="248" type="qcurve" name="hr01"/>
      <point x="830" y="222"/>
      <point x="843" y="161"/>
      <point x="843" y="132" type="qcurve"/>
      <point x="843" y="115"/>
      <point x="839" y="64"/>
      <point x="836" y="42" type="qcurve"/>
      <point x="823" y="-48"/>
      <point x="747" y="-210"/>
      <point x="687" y="-277" type="qcurve"/>
      <point x="656" y="-311"/>
      <point x="587" y="-366"/>
      <point x="547" y="-392" type="qcurve"/>
      <point x="497" y="-424"/>
      <point x="413" y="-462"/>
      <point x="376" y="-475" type="qcurve"/>
      <point x="360" y="-480" type="line" name="av01"/>
    </contour>
  </outline>
</glyph>
<glyph name="at" format="1">
  <advance width="1233"/>
  <unicode hex="0040"/>
  <outline>
    <contour>
      <point x="599" y="-319" type="qcurve" name="hr00"/>
      <point x="462" y="-319"/>
      <point x="235" y="-222"/>
      <point x="153" y="-128" type="qcurve"/>
      <point x="69" y="-32"/>
      <point x="-14" y="227"/>
      <point x="-14" y="387" type="qcurve" name="dh01"/>
      <point x="-14" y="550"/>
      <point x="30" y="709" type="qcurve"/>
      <point x="53" y="790"/>
      <point x="118" y="940"/>
      <point x="158" y="1004" type="qcurve"/>
      <point x="273" y="1189"/>
      <point x="442" y="1293" type="qcurve"/>
      <point x="523" y="1343"/>
      <point x="702" y="1395"/>
      <point x="799" y="1395" type="qcurve" name="dv03"/>
      <point x="896" y="1395"/>
      <point x="1055" y="1343"/>
      <point x="1112" y="1293" type="qcurve"/>
      <point x="1173" y="1239"/>
      <point x="1229" y="1100"/>
      <point x="1229" y="1023" type="qcurve" name="dh06"/>
      <point x="1229" y="1010"/>
      <point x="1228" y="974"/>
      <point x="1226" y="960" type="qcurve"/>
      <point x="1225" y="950"/>
      <point x="1220" y="922"/>
      <point x="1214" y="892" type="qcurve"/>
      <point x="1067" y="135" type="line"/>
      <point x="870" y="135" type="line"/>
      <point x="887" y="217" type="line" name="ih01"/>
      <point x="845" y="169"/>
      <point x="788" y="142" type="qcurve"/>
      <point x="753" y="125"/>
      <point x="691" y="115"/>
      <point x="664" y="115" type="qcurve" name="dv04"/>
      <point x="598" y="115"/>
      <point x="490" y="160"/>
      <point x="451" y="203" type="qcurve"/>
      <point x="409" y="249"/>
      <point x="371" y="373"/>
      <point x="371" y="448" type="qcurve" name="dh03"/>
      <point x="371" y="557"/>
      <point x="440" y="751"/>
      <point x="498" y="821" type="qcurve"/>
      <point x="563" y="899"/>
      <point x="726" y="973"/>
      <point x="810" y="973" type="qcurve" name="dv07"/>
      <point x="845" y="973"/>
      <point x="907" y="961"/>
      <point x="933" y="949" type="qcurve"/>
      <point x="960" y="936"/>
      <point x="1001" y="898"/>
      <point x="1014" y="877" type="qcurve" name="ih02"/>
      <point x="1019" y="894"/>
      <point x="1026" y="928"/>
      <point x="1028" y="945" type="qcurve"/>
      <point x="1030" y="962"/>
      <point x="1032" y="993"/>
      <point x="1032" y="1004" type="qcurve" name="dh05"/>
      <point x="1032" y="1054"/>
      <point x="1000" y="1128"/>
      <point x="971" y="1153" type="qcurve"/>
      <point x="942" y="1178"/>
      <point x="855" y="1206"/>
      <point x="798" y="1206" type="qcurve" name="dv02"/>
      <point x="740" y="1206"/>
      <point x="623" y="1175"/>
      <point x="566" y="1143" type="qcurve"/>
      <point x="509" y="1111"/>
      <point x="409" y="1019"/>
      <point x="365" y="961" type="qcurve"/>
      <point x="314" y="894"/>
      <point x="247" y="755"/>
      <point x="226" y="690" type="qcurve"/>
      <point x="178" y="541"/>
      <point x="178" y="388" type="qcurve" name="dh02"/>
      <point x="178" y="275"/>
      <point x="234" y="81"/>
      <point x="295" y="9" type="qcurve"/>
      <point x="353" y="-60"/>
      <point x="514" y="-131"/>
      <point x="614" y="-131" type="qcurve" name="dv01"/>
      <point x="693" y="-131"/>
      <point x="774" y="-107" type="qcurve"/>
      <point x="855" y="-83"/>
      <point x="936" y="-35" type="qcurve"/>
      <point x="999" y="-209" type="line"/>
      <point x="894" y="-265"/>
      <point x="797" y="-293" type="qcurve"/>
      <point x="754" y="-305"/>
      <point x="653" y="-319"/>
    </contour>
    <contour>
      <point x="724" y="301" type="qcurve" name="dv05"/>
      <point x="775" y="301"/>
      <point x="865" y="349"/>
      <point x="898" y="392" type="qcurve"/>
      <point x="933" y="438"/>
      <point x="969" y="556"/>
      <point x="969" y="616" type="qcurve"/>
      <point x="969" y="661"/>
      <point x="949" y="720"/>
      <point x="929" y="742" type="qcurve"/>
      <point x="888" y="786"/>
      <point x="817" y="786" type="qcurve" name="dv06"/>
      <point x="766" y="786"/>
      <point x="677" y="741"/>
      <point x="642" y="697" type="qcurve"/>
      <point x="607" y="652"/>
      <point x="571" y="539"/>
      <point x="571" y="481" type="qcurve" name="dh04"/>
      <point x="571" y="443"/>
      <point x="588" y="373"/>
      <point x="611" y="347" type="qcurve"/>
      <point x="628" y="327"/>
      <point x="685" y="301"/>
    </contour>
  </outline>
</glyph>
<glyph name="D" format="1">
  <advance width="1233"/>
  <unicode hex="0044"/>
  <outline>
    <contour>
      <point x="283" y="1493" type="line" name="hr00"/>
      <point x="598" y="1493" type="line"/>
      <point x="737" y="1493"/>
      <point x="953" y="1433"/>
      <point x="1025" y="1370" type="qcurve"/>
      <point x="1095" y="1309"/>
      <point x="1165" y="1121"/>
      <point x="1165" y="996" type="qcurve" name="dh02"/>
      <point x="1165" y="960"/>
      <point x="1159" y="861"/>
      <point x="1152" y="814" type="qcurve"/>
      <point x="1149" y="793"/>
      <point x="1140" y="741"/>
      <point x="1129" y="684"/>
      <point x="1117" y="627"/>
      <point x="1111" y="603" type="qcurve"/>
      <point x="1091" y="522"/>
      <point x="1043" y="392"/>
      <point x="1021" y="347" type="qcurve"/>
      <point x="992" y="287"/>
      <point x="926" y="200"/>
      <point x="897" y="171" type="qcurve"/>
      <point x="852" y="127"/>
      <point x="737" y="60"/>
      <point x="671" y="40" type="qcurve"/>
      <point x="544" y="0"/>
      <point x="322" y="0" type="qcurve" name="ab01"/>
      <point x="-8" y="0" type="line"/>
    </contour>
    <contour>
      <point x="434" y="266" type="line" name="sv01"/>
      <point x="546" y="266"/>
      <point x="623" y="310" type="qcurve"/>
      <point x="665" y="333"/>
      <point x="721" y="399"/>
      <point x="743" y="442" type="qcurve"/>
      <point x="767" y="490"/>
      <point x="812" y="623"/>
      <point x="828" y="695" type="qcurve"/>
      <point x="845" y="770"/>
      <point x="860" y="909"/>
      <point x="860" y="960" type="qcurve" name="dh01"/>
      <point x="860" y="1033"/>
      <point x="829" y="1131"/>
      <point x="798" y="1163" type="qcurve"/>
      <point x="735" y="1227"/>
      <point x="606" y="1227" type="qcurve" name="sv02"/>
      <point x="524" y="1227" type="line"/>
      <point x="338" y="266" type="line"/>
    </contour>
  </outline>
</glyph>
<glyph name="F" format="1">
  <advance width="1233"/>
  <unicode hex="0046"/>
  <outline>
    <contour>
      <point x="338" y="1493" type="line" name="hr00"/>
      <point x="1268" y="1493" type="line"/>
      <point x="1217" y="1233" type="line" name="sv01"/>
      <point x="582" y="1233" type="line"/>
      <point x="520" y="901" type="line"/>
      <point x="1098" y="901" type="line" name="dv02"/>
      <point x="1047" y="641" type="line" name="dv01"/>
      <point x="469" y="641" type="line"/>
      <point x="342" y="0" type="line" name="ab01"/>
      <point x="47" y="0" type="line"/>
    </contour>
  </outline>
</glyph>
<glyph name="G" format="1">
  <advance width="1233"/>
  <unicode hex="0047"/>
  <outline>
    <contour>
      <point x="611" y="-29" type="qcurve" name="hr00"/>
      <point x="483" y="-29"/>
      <point x="298" y="47"/>
      <point x="235" y="115" type="qcurve"/>
      <point x="165" y="191"/>
      <point x="102" y="401"/>
      <point x="102" y="528" type="qcurve" name="dh01"/>
      <point x="102" y="624"/>
      <point x="137" y="841"/>
      <point x="174" y="949" type="qcurve"/>
      <point x="206" y="1043"/>
      <point x="303" y="1221"/>
      <point x="367" y="1294" type="qcurve"/>
      <point x="412" y="1345"/>
      <point x="525" y="1432"/>
      <point x="595" y="1463" type="qcurve"/>
      <point x="725" y="1520"/>
      <point x="876" y="1520" type="qcurve" name="at01"/>
      <point x="918" y="1520"/>
      <point x="997" y="1511"/>
      <point x="1037" y="1502" type="qcurve"/>
      <point x="1069" y="1494"/>
      <point x="1151" y="1468"/>
      <point x="1192" y="1448" type="qcurve"/>
      <point x="1126" y="1120" type="line"/>
      <point x="1075" y="1187"/>
      <point x="1006" y="1222" type="qcurve"/>
      <point x="936" y="1257"/>
      <point x="857" y="1257" type="qcurve" name="sv01"/>
      <point x="818" y="1257"/>
      <point x="750" y="1241"/>
      <point x="721" y="1228" type="qcurve"/>
      <point x="691" y="1214"/>
      <point x="634" y="1173"/>
      <point x="605" y="1141" type="qcurve"/>
      <point x="582" y="1116"/>
      <point x="546" y="1062"/>
      <point x="529" y="1031" type="qcurve"/>
      <point x="513" y="1002"/>
      <point x="483" y="934"/>
      <point x="469" y="891" type="qcurve"/>
      <point x="454" y="846"/>
      <point x="428" y="747"/>
      <point x="420" y="702" type="qcurve"/>
      <point x="403" y="608"/>
      <point x="403" y="533" type="qcurve" name="dh02"/>
      <point x="403" y="451"/>
      <point x="440" y="342"/>
      <point x="467" y="309" type="qcurve"/>
      <point x="501" y="267"/>
      <point x="594" y="231"/>
      <point x="648" y="231" type="qcurve" name="dv01"/>
      <point x="667" y="231"/>
      <point x="698" y="235"/>
      <point x="715" y="240" type="qcurve"/>
      <point x="727" y="243"/>
      <point x="755" y="253"/>
      <point x="770" y="264" type="qcurve"/>
      <point x="827" y="555" type="line"/>
      <point x="621" y="555" type="line" name="dv02"/>
      <point x="670" y="803" type="line" name="dv03"/>
      <point x="1130" y="803" type="line"/>
      <point x="991" y="94" type="line"/>
      <point x="919" y="34"/>
      <point x="823" y="3" type="qcurve"/>
      <point x="724" y="-29"/>
    </contour>
  </outline>
</glyph>
<glyph name="K" format="1">
  <advance width="1233"/>
  <unicode hex="004B"/>
  <note>
	K
  </note>
  <outline>
    <contour>
      <point x="-18" y="0" type="line"/>
      <point x="276" y="0" type="line"/>
      <point x="371" y="500" type="line"/>
      <point x="543" y="670" type="line"/>
      <point x="797" y="0" type="line"/>
      <point x="1100" y="0" type="line"/>
      <point x="762" y="889" type="line"/>
      <point x="1368" y="1493" type="line"/>
      <point x="1020" y="1493" type="line"/>
      <point x="457" y="936" type="line"/>
      <point x="565" y="1493" type="line"/>
      <point x="270" y="1493" type="line"/>
    </contour>
  </outline>
</glyph>
<glyph name="R" format="1">
  <advance width="1233"/>
  <unicode hex="0052"/>
  <outline>
    <contour>
      <point x="294" y="1493" type="line" name="hr00"/>
      <point x="704" y="1493" type="line"/>
      <point x="935" y="1493"/>
      <point x="1048" y="1406" type="qcurve"/>
      <point x="1102" y="1364"/>
      <point x="1160" y="1232"/>
      <point x="1160" y="1133" type="qcurve" name="dh02"/>
      <point x="1160" y="1043"/>
      <point x="1111" y="895"/>
      <point x="1062" y="838" type="qcurve"/>
      <point x="964" y="724"/>
      <point x="783" y="705" type="qcurve" name="iv01"/>
      <point x="843" y="696"/>
      <point x="878" y="660" type="qcurve"/>
      <point x="912" y="624"/>
      <point x="939" y="537" type="qcurve"/>
      <point x="1103" y="0" type="line" name="ih01"/>
      <point x="802" y="0" type="line"/>
      <point x="696" y="376" type="line"/>
      <point x="688" y="403" type="line"/>
      <point x="657" y="504"/>
      <point x="582" y="590"/>
      <point x="530" y="590" type="qcurve" name="dv01"/>
      <point x="413" y="590" type="line"/>
      <point x="298" y="0" type="line" name="ab01"/>
      <point x="3" y="0" type="line"/>
    </contour>
    <contour>
      <point x="585" y="838" type="line" name="dv02"/>
      <point x="655" y="838"/>
      <point x="757" y="871"/>
      <point x="790" y="902" type="qcurve"/>
      <point x="825" y="934"/>
      <point x="859" y="1028"/>
      <point x="859" y="1084" type="qcurve" name="dh01"/>
      <point x="859" y="1170"/>
      <point x="813" y="1207" type="qcurve"/>
      <point x="766" y="1245"/>
      <point x="675" y="1245" type="qcurve" name="sv01"/>
      <point x="542" y="1245" type="line"/>
      <point x="462" y="838" type="line"/>
    </contour>
  </outline>
</glyph>
<glyph name="U" format="1">
  <advance width="1233"/>
  <unicode hex="0055"/>
  <outline>
    <contour>
      <point x="497" y="-29" type="qcurve" name="hr00"/>
      <point x="391" y="-29"/>
      <point x="223" y="20"/>
      <point x="163" y="70" type="qcurve"/>
      <point x="101" y="121"/>
      <point x="45" y="263"/>
      <point x="45" y="354" type="qcurve" name="dh01"/>
      <point x="45" y="375"/>
      <point x="48" y="417"/>
      <point x="51" y="444" type="qcurve" name="sh01"/>
      <point x="53" y="462"/>
      <point x="56" y="486"/>
      <point x="59" y="509"/>
      <point x="64" y="533"/>
      <point x="68" y="551" type="qcurve"/>
      <point x="252" y="1493" type="line" name="at01"/>
      <point x="547" y="1493" type="line"/>
      <point x="348" y="477" type="line" name="sh02"/>
      <point x="348" y="474"/>
      <point x="347" y="471" type="qcurve" name="sh03"/>
      <point x="343" y="448"/>
      <point x="340" y="414"/>
      <point x="340" y="400" type="qcurve" name="dh02"/>
      <point x="340" y="321"/>
      <point x="386" y="276" type="qcurve"/>
      <point x="432" y="231"/>
      <point x="518" y="231" type="qcurve" name="dv01"/>
      <point x="570" y="231"/>
      <point x="657" y="261"/>
      <point x="689" y="292" type="qcurve"/>
      <point x="753" y="353"/>
      <point x="778" y="477" type="qcurve"/>
      <point x="977" y="1493" type="line" name="at02"/>
      <point x="1272" y="1493" type="line"/>
      <point x="1087" y="551" type="line"/>
      <point x="1070" y="466"/>
      <point x="1036" y="335"/>
      <point x="1012" y="279" type="qcurve"/>
      <point x="991" y="230"/>
      <point x="940" y="155"/>
      <point x="908" y="123" type="qcurve"/>
      <point x="833" y="50"/>
      <point x="729" y="10" type="qcurve"/>
      <point x="677" y="-10"/>
      <point x="563" y="-29"/>
    </contour>
  </outline>
</glyph>
<glyph name="backslash" format="1">
  <advance width="1233"/>
  <unicode hex="005C"/>
  <outline>
    <contour>
      <point x="112" y="1493" type="line" name="hr00"/>
      <point x="335" y="1493" type="line"/>
      <point x="1121" y="-190" type="line"/>
      <point x="898" y="-190" type="line"/>
    </contour>
  </outline>
</glyph>
<glyph name="bracketright" format="1">
  <advance width="1233"/>
  <unicode hex="005D"/>
  <outline>
    <contour>
      <point x="373" y="-112" type="line" name="hr00"/>
      <point x="613" y="-112" type="line" name="dv02"/>
      <point x="864" y="1477" type="line"/>
      <point x="624" y="1477" type="line" name="dv03"/>
      <point x="652" y="1650" type="line" name="dv04"/>
      <point x="1107" y="1650" type="line"/>
      <point x="800" y="-285" type="line" name="dv01"/>
      <point x="345" y="-285" type="line"/>
    </contour>
  </outline>
</glyph>
<glyph name="b" format="1">
  <advance width="1233"/>
  <unicode hex="0062"/>
  <outline>
    <contour>
      <point x="651" y="-29" type="qcurve" name="dv01"/>
      <point x="593" y="-29"/>
      <point x="504" y="5"/>
      <point x="470" y="34" type="qcurve"/>
      <point x="436" y="63"/>
      <point x="390" y="147"/>
      <point x="381" y="207" type="qcurve" name="iv01"/>
      <point x="311" y="0" type="line" name="ab01"/>
      <point x="47" y="0" type="line"/>
      <point x="350" y="1556" type="line" name="at01"/>
      <point x="643" y="1556" type="line"/>
      <point x="524" y="952" type="line" name="ih01"/>
      <point x="587" y="1048"/>
      <point x="670" y="1098" type="qcurve"/>
      <point x="712" y="1123"/>
      <point x="801" y="1147"/>
      <point x="848" y="1147" type="qcurve" name="at02"/>
      <point x="919" y="1147"/>
      <point x="1038" y="1093"/>
      <point x="1081" y="1038" type="qcurve"/>
      <point x="1126" y="981"/>
      <point x="1165" y="825"/>
      <point x="1165" y="732" type="qcurve" name="sh01"/>
      <point x="1165" y="674"/>
      <point x="1150" y="544"/>
      <point x="1135" y="479" type="qcurve"/>
      <point x="1122" y="425"/>
      <point x="1079" y="301"/>
      <point x="1049" y="244" type="qcurve" name="hr01"/>
      <point x="1015" y="181"/>
      <point x="927" y="78"/>
      <point x="876" y="43" type="qcurve"/>
      <point x="825" y="8"/>
      <point x="710" y="-29"/>
    </contour>
    <contour>
      <point x="599" y="209" type="qcurve" name="dv02"/>
      <point x="656" y="209"/>
      <point x="755" y="284"/>
      <point x="792" y="351" type="qcurve"/>
      <point x="830" y="420"/>
      <point x="870" y="593"/>
      <point x="870" y="682" type="qcurve" name="dh02"/>
      <point x="870" y="742"/>
      <point x="850" y="823"/>
      <point x="829" y="851" type="qcurve"/>
      <point x="787" y="907"/>
      <point x="714" y="907" type="qcurve" name="sv01"/>
      <point x="661" y="907"/>
      <point x="558" y="841"/>
      <point x="516" y="769" type="qcurve"/>
      <point x="477" y="702"/>
      <point x="434" y="530"/>
      <point x="434" y="444" type="qcurve" name="dh01"/>
      <point x="434" y="381"/>
      <point x="457" y="297"/>
      <point x="478" y="269" type="qcurve"/>
      <point x="500" y="240"/>
      <point x="562" y="209"/>
    </contour>
  </outline>
</glyph>
<glyph name="c" format="1">
  <advance width="1233"/>
  <unicode hex="0063"/>
  <outline>
    <contour>
      <point x="621" y="-29" type="qcurve" name="hr00"/>
      <point x="516" y="-29"/>
      <point x="332" y="28"/>
      <point x="263" y="94" type="qcurve"/>
      <point x="194" y="160"/>
      <point x="135" y="341"/>
      <point x="135" y="448" type="qcurve" name="dh01"/>
      <point x="135" y="519"/>
      <point x="159" y="657"/>
      <point x="205" y="786"/>
      <point x="273" y="902"/>
      <point x="318" y="950" type="qcurve"/>
      <point x="408" y="1047"/>
      <point x="653" y="1147"/>
      <point x="797" y="1147" type="qcurve" name="at01"/>
      <point x="847" y="1147"/>
      <point x="943" y="1136"/>
      <point x="981" y="1127" type="qcurve"/>
      <point x="1022" y="1117"/>
      <point x="1104" y="1085"/>
      <point x="1142" y="1063" type="qcurve"/>
      <point x="1089" y="795" type="line"/>
      <point x="1029" y="852"/>
      <point x="960" y="881" type="qcurve"/>
      <point x="894" y="909"/>
      <point x="814" y="909" type="qcurve" name="sv01"/>
      <point x="725" y="909"/>
      <point x="587" y="843"/>
      <point x="538" y="786" type="qcurve"/>
      <point x="484" y="723"/>
      <point x="431" y="559"/>
      <point x="431" y="466" type="qcurve" name="dh02"/>
      <point x="431" y="397"/>
      <point x="461" y="304"/>
      <point x="492" y="272" type="qcurve"/>
      <point x="523" y="240"/>
      <point x="615" y="209"/>
      <point x="675" y="209" type="qcurve" name="dv01"/>
      <point x="713" y="209"/>
      <point x="787" y="222"/>
      <point x="827" y="235" type="qcurve"/>
      <point x="864" y="247"/>
      <point x="947" y="284"/>
      <point x="997" y="313" type="qcurve"/>
      <point x="941" y="37" type="line"/>
      <point x="863" y="3"/>
      <point x="783" y="-13" type="qcurve"/>
      <point x="741" y="-21"/>
      <point x="660" y="-29"/>
    </contour>
  </outline>
</glyph>
<glyph name="f" format="1">
  <advance width="1233"/>
  <unicode hex="0066"/>
  <outline>
    <contour>
      <point x="456" y="895" type="line" name="hr00"/>
      <point x="183" y="895" type="line"/>
      <point x="226" y="1120" type="line" name="at02"/>
      <point x="499" y="1120" type="line"/>
      <point x="515" y="1198" type="line"/>
      <point x="538" y="1312"/>
      <point x="605" y="1448"/>
      <point x="649" y="1483" type="qcurve"/>
      <point x="695" y="1519"/>
      <point x="856" y="1556"/>
      <point x="980" y="1556" type="qcurve" name="at01"/>
      <point x="1220" y="1556" type="line"/>
      <point x="1177" y="1331" type="line" name="sv01"/>
      <point x="947" y="1331" type="line"/>
      <point x="881" y="1331"/>
      <point x="853" y="1304" type="qcurve"/>
      <point x="839" y="1290"/>
      <point x="816" y="1235"/>
      <point x="808" y="1196" type="qcurve"/>
      <point x="792" y="1120" type="line" name="at03"/>
      <point x="1136" y="1120" type="line"/>
      <point x="1093" y="895" type="line" name="sv02"/>
      <point x="749" y="895" type="line" name="sv03"/>
      <point x="575" y="0" type="line" name="ab01"/>
      <point x="282" y="0" type="line"/>
    </contour>
  </outline>
</glyph>
<glyph name="g" format="1">
  <advance width="1233"/>
  <unicode hex="0067"/>
  <outline>
    <contour>
      <point x="386" y="-424" type="qcurve" name="ab01"/>
      <point x="287" y="-424"/>
      <point x="196" y="-409" type="qcurve"/>
      <point x="150" y="-401"/>
      <point x="62" y="-379"/>
      <point x="18" y="-365" type="qcurve"/>
      <point x="72" y="-100" type="line" name="ih01"/>
      <point x="148" y="-146"/>
      <point x="230" y="-168" type="qcurve"/>
      <point x="272" y="-179"/>
      <point x="355" y="-190"/>
      <point x="396" y="-190" type="qcurve" name="sv01"/>
      <point x="462" y="-190"/>
      <point x="560" y="-161"/>
      <point x="595" y="-132" type="qcurve"/>
      <point x="634" y="-100"/>
      <point x="676" y="-9"/>
      <point x="688" y="51" type="qcurve"/>
      <point x="715" y="184" type="line" name="ih02"/>
      <point x="661" y="101"/>
      <point x="584" y="59" type="qcurve"/>
      <point x="507" y="16"/>
      <point x="409" y="16" type="qcurve" name="dv02"/>
      <point x="333" y="16"/>
      <point x="210" y="66"/>
      <point x="161" y="121" type="qcurve"/>
      <point x="113" y="175"/>
      <point x="68" y="313"/>
      <point x="68" y="407" type="qcurve" name="hr01"/>
      <point x="68" y="472"/>
      <point x="89" y="612"/>
      <point x="110" y="683" type="qcurve"/>
      <point x="133" y="759"/>
      <point x="191" y="882"/>
      <point x="225" y="932" type="qcurve"/>
      <point x="296" y="1035"/>
      <point x="396" y="1093" type="qcurve"/>
      <point x="496" y="1151"/>
      <point x="602" y="1151" type="qcurve" name="hr02"/>
      <point x="707" y="1151"/>
      <point x="774" y="1096" type="qcurve"/>
      <point x="841" y="1041"/>
      <point x="862" y="938" type="qcurve" name="iv01"/>
      <point x="926" y="1120" type="line" name="at01"/>
      <point x="1190" y="1120" type="line"/>
      <point x="987" y="84" type="line"/>
      <point x="961" y="-51"/>
      <point x="869" y="-248"/>
      <point x="796" y="-309" type="qcurve"/>
      <point x="659" y="-424"/>
    </contour>
    <contour>
      <point x="521" y="246" type="qcurve" name="dv03"/>
      <point x="576" y="246"/>
      <point x="678" y="313"/>
      <point x="720" y="379" type="qcurve"/>
      <point x="762" y="446"/>
      <point x="803" y="608"/>
      <point x="803" y="689" type="qcurve" name="sh01"/>
      <point x="803" y="740"/>
      <point x="785" y="825"/>
      <point x="762" y="855" type="qcurve"/>
      <point x="740" y="884"/>
      <point x="682" y="909"/>
      <point x="649" y="909" type="qcurve" name="dv01"/>
      <point x="592" y="909"/>
      <point x="489" y="840"/>
      <point x="450" y="777" type="qcurve"/>
      <point x="408" y="711"/>
      <point x="367" y="546"/>
      <point x="367" y="465" type="qcurve" name="dh01"/>
      <point x="367" y="414"/>
      <point x="385" y="330"/>
      <point x="407" y="301" type="qcurve"/>
      <point x="448" y="246"/>
    </contour>
  </outline>
</glyph>
<glyph name="j" format="1">
  <advance width="1233"/>
  <unicode hex="006A"/>
  <outline>
    <contour>
      <point x="763" y="1323" type="line" name="hr00"/>
      <point x="748" y="1323"/>
      <point x="733" y="1341"/>
      <point x="736" y="1356" type="qcurve"/>
      <point x="791" y="1638" type="line"/>
      <point x="795" y="1665"/>
      <point x="823" y="1665" type="qcurve" name="dv01"/>
      <point x="1056" y="1665" type="line"/>
      <point x="1071" y="1665"/>
      <point x="1086" y="1647"/>
      <point x="1083" y="1632" type="qcurve"/>
      <point x="1028" y="1350" type="line"/>
      <point x="1023" y="1323"/>
      <point x="996" y="1323" type="qcurve"/>
    </contour>
    <contour>
      <point x="22" y="-199" type="line" name="sv01"/>
      <point x="253" y="-199" type="line"/>
      <point x="353" y="-199"/>
      <point x="404" y="-146" type="qcurve"/>
      <point x="433" y="-116"/>
      <point x="468" y="-18"/>
      <point x="480" y="43" type="qcurve"/>
      <point x="646" y="895" type="line" name="sv02"/>
      <point x="349" y="895" type="line"/>
      <point x="392" y="1120" type="line" name="at01"/>
      <point x="982" y="1120" type="line"/>
      <point x="773" y="43" type="line"/>
      <point x="763" y="-7"/>
      <point x="746" y="-82"/>
      <point x="730" y="-139"/>
      <point x="716" y="-180"/>
      <point x="709" y="-196" type="qcurve"/>
      <point x="679" y="-267"/>
      <point x="632" y="-314" type="qcurve"/>
      <point x="602" y="-344"/>
      <point x="530" y="-385"/>
      <point x="491" y="-398" type="qcurve"/>
      <point x="451" y="-411"/>
      <point x="350" y="-424"/>
      <point x="284" y="-424" type="qcurve" name="ab01"/>
      <point x="-23" y="-424" type="line"/>
    </contour>
  </outline>
</glyph>
<glyph name="l" format="1">
  <advance width="1233"/>
  <unicode hex="006C"/>
  <note>
	l
  </note>
  <outline>
    <contour>
      <point x="987" y="-10" type="line"/>
      <point x="1032" y="215" type="line"/>
      <point x="754" y="215" type="line" smooth="yes"/>
      <point x="702" y="215"/>
      <point x="666" y="221"/>
      <point x="645" y="234" type="curve" smooth="yes"/>
      <point x="622" y="249"/>
      <point x="614" y="270"/>
      <point x="614" y="293" type="curve" smooth="yes"/>
      <point x="614" y="301"/>
      <point x="614" y="308"/>
      <point x="617" y="319" type="curve" smooth="yes"/>
      <point x="620" y="329"/>
      <point x="615" y="323"/>
      <point x="623" y="355" type="curve"/>
      <point x="872" y="1556" type="line"/>
      <point x="274" y="1556" type="line"/>
      <point x="231" y="1331" type="line"/>
      <point x="537" y="1331" type="line"/>
      <point x="334" y="369" type="line" smooth="yes"/>
      <point x="327" y="340"/>
      <point x="323" y="303"/>
      <point x="320" y="290" type="curve"/>
      <point x="317" y="270"/>
      <point x="315" y="249"/>
      <point x="315" y="226" type="curve" smooth="yes"/>
      <point x="315" y="139"/>
      <point x="345" y="83"/>
      <point x="400" y="47" type="curve" smooth="yes"/>
      <point x="457" y="8"/>
      <point x="547" y="-10"/>
      <point x="690" y="-10" type="curve" smooth="yes"/>
    </contour>
  </outline>
</glyph>
<glyph name="m" format="1">
  <advance width="1233"/>
  <unicode hex="006D"/>
  <outline>
    <contour>
      <point x="184" y="1120" type="line" name="at01"/>
      <point x="376" y="1120" type="line"/>
      <point x="375" y="1004" type="line" name="iv01"/>
      <point x="416" y="1073"/>
      <point x="477" y="1110" type="qcurve" name="at02"/>
      <point x="536" y="1147"/>
      <point x="606" y="1147" type="qcurve" name="at05"/>
      <point x="676" y="1147"/>
      <point x="719" y="1110" type="qcurve" name="at03"/>
      <point x="762" y="1072"/>
      <point x="770" y="1008" type="qcurve" name="iv02"/>
      <point x="801" y="1072"/>
      <point x="866" y="1110" type="qcurve" name="at04"/>
      <point x="930" y="1147"/>
      <point x="1004" y="1147" type="qcurve" name="at06"/>
      <point x="1052" y="1147"/>
      <point x="1126" y="1118"/>
      <point x="1152" y="1092" type="qcurve"/>
      <point x="1181" y="1062"/>
      <point x="1206" y="979"/>
      <point x="1206" y="931" type="qcurve"/>
      <point x="1206" y="914"/>
      <point x="1203" y="867"/>
      <point x="1201" y="843" type="qcurve"/>
      <point x="1198" y="816"/>
      <point x="1185" y="746"/>
      <point x="1180" y="719" type="qcurve"/>
      <point x="1040" y="0" type="line" name="ab01"/>
      <point x="801" y="0" type="line"/>
      <point x="940" y="719" type="line"/>
      <point x="945" y="742"/>
      <point x="951" y="778"/>
      <point x="954" y="801" type="qcurve"/>
      <point x="956" y="816"/>
      <point x="958" y="840"/>
      <point x="958" y="848" type="qcurve"/>
      <point x="958" y="871"/>
      <point x="948" y="899"/>
      <point x="941" y="907" type="qcurve"/>
      <point x="923" y="928"/>
      <point x="889" y="928" type="qcurve" name="sv01"/>
      <point x="841" y="928"/>
      <point x="813" y="883" type="qcurve"/>
      <point x="798" y="859"/>
      <point x="773" y="778"/>
      <point x="762" y="719" type="qcurve"/>
      <point x="623" y="0" type="line" name="ab02"/>
      <point x="383" y="0" type="line"/>
      <point x="524" y="719" type="line"/>
      <point x="526" y="731"/>
      <point x="535" y="778"/>
      <point x="537" y="794" type="qcurve"/>
      <point x="539" y="811"/>
      <point x="541" y="836"/>
      <point x="541" y="845" type="qcurve"/>
      <point x="541" y="886"/>
      <point x="523" y="907" type="qcurve"/>
      <point x="505" y="928"/>
      <point x="471" y="928" type="qcurve" name="sv02"/>
      <point x="424" y="928"/>
      <point x="397" y="885" type="qcurve"/>
      <point x="381" y="860"/>
      <point x="357" y="779"/>
      <point x="346" y="719" type="qcurve"/>
      <point x="207" y="0" type="line" name="hr01"/>
      <point x="-33" y="0" type="line"/>
    </contour>
  </outline>
</glyph>
<glyph name="p" format="1">
  <advance width="1233"/>
  <unicode hex="0070"/>
  <outline>
    <contour>
      <point x="264" y="1120" type="line" name="at01"/>
      <point x="528" y="1120" type="line"/>
      <point x="524" y="952" type="line" name="ih01"/>
      <point x="594" y="1049"/>
      <point x="677" y="1099" type="qcurve"/>
      <point x="716" y="1122"/>
      <point x="805" y="1147"/>
      <point x="854" y="1147" type="qcurve" name="at02"/>
      <point x="999" y="1147"/>
      <point x="1084" y="1038" type="qcurve"/>
      <point x="1127" y="983"/>
      <point x="1169" y="834"/>
      <point x="1169" y="734" type="qcurve" name="sh01"/>
      <point x="1169" y="674"/>
      <point x="1154" y="546"/>
      <point x="1138" y="480" type="qcurve"/>
      <point x="1122" y="414"/>
      <point x="1077" y="294"/>
      <point x="1051" y="244" type="qcurve"/>
      <point x="982" y="115"/>
      <point x="877" y="43" type="qcurve"/>
      <point x="772" y="-29"/>
      <point x="654" y="-29" type="qcurve" name="dv01"/>
      <point x="544" y="-29"/>
      <point x="471" y="33" type="qcurve"/>
      <point x="398" y="95"/>
      <point x="379" y="207" type="qcurve" name="iv01"/>
      <point x="256" y="-426" type="line" name="ab01"/>
      <point x="-37" y="-426" type="line"/>
    </contour>
    <contour>
      <point x="601" y="209" type="qcurve" name="dv02"/>
      <point x="661" y="209"/>
      <point x="759" y="287"/>
      <point x="794" y="350" type="qcurve"/>
      <point x="832" y="419"/>
      <point x="874" y="594"/>
      <point x="874" y="683" type="qcurve" name="hr01"/>
      <point x="874" y="743"/>
      <point x="854" y="823"/>
      <point x="833" y="851" type="qcurve"/>
      <point x="791" y="907"/>
      <point x="718" y="907" type="qcurve" name="sv01"/>
      <point x="662" y="907"/>
      <point x="560" y="838"/>
      <point x="519" y="769" type="qcurve"/>
      <point x="479" y="701"/>
      <point x="436" y="531"/>
      <point x="436" y="444" type="qcurve" name="dh01"/>
      <point x="436" y="389"/>
      <point x="456" y="301"/>
      <point x="480" y="269" type="qcurve" name="hr02"/>
      <point x="501" y="241"/>
      <point x="563" y="209"/>
    </contour>
  </outline>
</glyph>
<glyph name="q" format="1">
  <advance width="1233"/>
  <unicode hex="0071"/>
  <outline>
    <contour>
      <point x="709" y="166" type="line" name="ih01"/>
      <point x="645" y="70"/>
      <point x="563" y="21" type="qcurve"/>
      <point x="480" y="-29"/>
      <point x="385" y="-29" type="qcurve" name="dv03"/>
      <point x="315" y="-29"/>
      <point x="196" y="26"/>
      <point x="153" y="81" type="qcurve"/>
      <point x="110" y="136"/>
      <point x="68" y="290"/>
      <point x="68" y="387" type="qcurve" name="dh01"/>
      <point x="68" y="445"/>
      <point x="83" y="574"/>
      <point x="99" y="639" type="qcurve"/>
      <point x="130" y="768"/>
      <point x="187" y="874" type="qcurve"/>
      <point x="222" y="938"/>
      <point x="305" y="1039"/>
      <point x="359" y="1077" type="qcurve"/>
      <point x="463" y="1149"/>
      <point x="580" y="1149" type="qcurve" name="dv02"/>
      <point x="637" y="1149"/>
      <point x="731" y="1116"/>
      <point x="764" y="1087" type="qcurve"/>
      <point x="797" y="1058"/>
      <point x="845" y="970"/>
      <point x="854" y="911" type="qcurve" name="iv01"/>
      <point x="922" y="1120" type="line" name="hr01"/>
      <point x="1186" y="1120" type="line"/>
      <point x="885" y="-426" type="line" name="ab01"/>
      <point x="594" y="-426" type="line"/>
    </contour>
    <contour>
      <point x="519" y="211" type="qcurve" name="hr02"/>
      <point x="635" y="211"/>
      <point x="717" y="350" type="qcurve"/>
      <point x="758" y="419"/>
      <point x="799" y="584"/>
      <point x="799" y="674" type="qcurve" name="sh01"/>
      <point x="799" y="733"/>
      <point x="779" y="818"/>
      <point x="754" y="850" type="qcurve"/>
      <point x="709" y="909"/>
      <point x="634" y="909" type="qcurve" name="dv01"/>
      <point x="521" y="909"/>
      <point x="442" y="768" type="qcurve"/>
      <point x="402" y="696"/>
      <point x="362" y="524"/>
      <point x="362" y="436" type="qcurve" name="dh02"/>
      <point x="362" y="372"/>
      <point x="383" y="296"/>
      <point x="404" y="268" type="qcurve"/>
      <point x="425" y="240"/>
      <point x="481" y="211"/>
    </contour>
  </outline>
</glyph>
<glyph name="r" format="1">
  <advance width="1233"/>
  <unicode hex="0072"/>
  <note>
	r
  </note>
  <outline>
    <contour>
      <point x="124" y="0" type="line"/>
      <point x="419" y="0" type="line"/>
      <point x="519" y="516" type="line" smooth="yes"/>
      <point x="546" y="657"/>
      <point x="590" y="754"/>
      <point x="649" y="811" type="curve" smooth="yes"/>
      <point x="712" y="872"/>
      <point x="796" y="899"/>
      <point x="900" y="899" type="curve" smooth="yes"/>
      <point x="948" y="899"/>
      <point x="997" y="894"/>
      <point x="1037" y="879" type="curve" smooth="yes"/>
      <point x="1072" y="867"/>
      <point x="1109" y="846"/>
      <point x="1144" y="815" type="curve"/>
      <point x="1197" y="1090" type="line"/>
      <point x="1168" y="1108"/>
      <point x="1135" y="1122"/>
      <point x="1098" y="1132" type="curve" smooth="yes"/>
      <point x="1061" y="1142"/>
      <point x="1021" y="1147"/>
      <point x="979" y="1147" type="curve" smooth="yes"/>
      <point x="900" y="1147"/>
      <point x="827" y="1130"/>
      <point x="762" y="1095" type="curve" smooth="yes"/>
      <point x="696" y="1060"/>
      <point x="642" y="1010"/>
      <point x="601" y="946" type="curve"/>
      <point x="607" y="1120" type="line"/>
      <point x="343" y="1120" type="line"/>
    </contour>
  </outline>
</glyph>
<glyph name="t" format="1">
  <advance width="1233"/>
  <unicode hex="0074"/>
  <outline>
    <contour>
      <point x="707" y="-5" type="line" name="hr00"/>
      <point x="601" y="-5"/>
      <point x="461" y="23"/>
      <point x="418" y="52" type="qcurve"/>
      <point x="372" y="82"/>
      <point x="332" y="172"/>
      <point x="332" y="229" type="qcurve"/>
      <point x="332" y="246"/>
      <point x="335" y="273"/>
      <point x="337" y="290" type="qcurve"/>
      <point x="339" y="302"/>
      <point x="345" y="350"/>
      <point x="350" y="374" type="qcurve"/>
      <point x="451" y="895" type="line" name="sv01"/>
      <point x="164" y="895" type="line"/>
      <point x="207" y="1120" type="line" name="at01"/>
      <point x="494" y="1120" type="line"/>
      <point x="555" y="1438" type="line" name="av01"/>
      <point x="848" y="1438" type="line"/>
      <point x="786" y="1120" type="line" name="at02"/>
      <point x="1169" y="1120" type="line"/>
      <point x="1126" y="895" type="line" name="sv02"/>
      <point x="743" y="895" type="line" name="sv03"/>
      <point x="639" y="360" type="line"/>
      <point x="638" y="355"/>
      <point x="635" y="339"/>
      <point x="633" y="325" type="qcurve"/>
      <point x="632" y="317"/>
      <point x="631" y="306"/>
      <point x="631" y="300" type="qcurve"/>
      <point x="631" y="257"/>
      <point x="661" y="239" type="qcurve"/>
      <point x="690" y="220"/>
      <point x="770" y="220" type="qcurve" name="sv04"/>
      <point x="995" y="220" type="line" name="sv05"/>
      <point x="952" y="-5" type="line" name="ab01"/>
    </contour>
  </outline>
</glyph>
<glyph name="u" format="1">
  <advance width="1233"/>
  <unicode hex="0075"/>
  <outline>
    <contour>
      <point x="372" y="-29" type="qcurve" name="dv01"/>
      <point x="244" y="-29"/>
      <point x="175" y="42" type="qcurve"/>
      <point x="106" y="112"/>
      <point x="106" y="244" type="qcurve" name="dh01"/>
      <point x="106" y="258"/>
      <point x="108" y="290"/>
      <point x="110" y="308" type="qcurve" name="hr01"/>
      <point x="111" y="311"/>
      <point x="117" y="362"/>
      <point x="123" y="391" type="qcurve"/>
      <point x="266" y="1120" type="line" name="at01"/>
      <point x="557" y="1120" type="line"/>
      <point x="426" y="436" type="line"/>
      <point x="424" y="423"/>
      <point x="421" y="400"/>
      <point x="419" y="383" type="qcurve"/>
      <point x="417" y="367"/>
      <point x="416" y="347"/>
      <point x="416" y="336" type="qcurve" name="hr02"/>
      <point x="416" y="301"/>
      <point x="431" y="259"/>
      <point x="445" y="243" type="qcurve"/>
      <point x="458" y="229"/>
      <point x="497" y="211"/>
      <point x="529" y="211" type="qcurve" name="dv02"/>
      <point x="573" y="211"/>
      <point x="641" y="247"/>
      <point x="668" y="282" type="qcurve"/>
      <point x="726" y="356"/>
      <point x="752" y="489" type="qcurve"/>
      <point x="874" y="1120" type="line" name="at02"/>
      <point x="1165" y="1120" type="line"/>
      <point x="948" y="0" type="line" name="ab01"/>
      <point x="684" y="0" type="line"/>
      <point x="688" y="166" type="line" name="iv01"/>
      <point x="664" y="116"/>
      <point x="599" y="49"/>
      <point x="559" y="24" type="qcurve"/>
      <point x="513" y="-5"/>
      <point x="422" y="-29"/>
    </contour>
  </outline>
</glyph>
<glyph name="v" format="1">
  <advance width="1233"/>
  <unicode hex="0076"/>
  <outline>
    <contour>
      <point x="172" y="1120" type="line" name="hr00"/>
      <point x="455" y="1120" type="line"/>
      <point x="535" y="242" type="line" name="iv01"/>
      <point x="924" y="1120" type="line" name="at01"/>
      <point x="1231" y="1120" type="line"/>
      <point x="680" y="0" type="line" name="ab01"/>
      <point x="311" y="0" type="line"/>
    </contour>
  </outline>
</glyph>
<glyph name="z" format="1">
  <advance width="1233"/>
  <unicode hex="007A"/>
  <outline>
    <contour>
      <point x="94" y="229" type="line" name="hr00"/>
      <point x="801" y="901" type="line" name="sv01"/>
      <point x="250" y="901" type="line"/>
      <point x="293" y="1120" type="line" name="at01"/>
      <point x="1188" y="1120" type="line"/>
      <point x="1143" y="891" type="line"/>
      <point x="436" y="219" type="line" name="sv02"/>
      <point x="1012" y="219" type="line"/>
      <point x="969" y="0" type="line" name="ab01"/>
      <point x="49" y="0" type="line"/>
    </contour>
  </outline>
</glyph>
<glyph name="braceleft" format="1">
  <advance width="1233"/>
  <unicode hex="007B"/>
  <outline>
    <contour>
      <point x="644" y="-334" type="line" name="dv01"/>
      <point x="539" y="-334"/>
      <point x="407" y="-306"/>
      <point x="365" y="-280" type="qcurve"/>
      <point x="323" y="-254"/>
      <point x="280" y="-169"/>
      <point x="280" y="-101" type="qcurve" name="dh01"/>
      <point x="280" y="-88"/>
      <point x="282" y="-66"/>
      <point x="284" y="-49" type="qcurve" name="sh01"/>
      <point x="284" y="-46"/>
      <point x="287" y="-28"/>
      <point x="291" y="-5"/>
      <point x="295" y="22"/>
      <point x="298" y="35" type="qcurve"/>
      <point x="341" y="250" type="line"/>
      <point x="342" y="254"/>
      <point x="345" y="272"/>
      <point x="349" y="295"/>
      <point x="353" y="319"/>
      <point x="354" y="328" type="qcurve"/>
      <point x="356" y="345"/>
      <point x="358" y="368"/>
      <point x="358" y="377" type="qcurve" name="ih01"/>
      <point x="358" y="419"/>
      <point x="327" y="470"/>
      <point x="295" y="486" type="qcurve"/>
      <point x="268" y="500"/>
      <point x="176" y="516"/>
      <point x="113" y="516" type="qcurve" name="hr01"/>
      <point x="51" y="516" type="line"/>
      <point x="88" y="707" type="line" name="dv02"/>
      <point x="179" y="707" type="line"/>
      <point x="322" y="707"/>
      <point x="386" y="762" type="qcurve"/>
      <point x="450" y="817"/>
      <point x="480" y="973" type="qcurve"/>
      <point x="521" y="1188" type="line"/>
      <point x="543" y="1303"/>
      <point x="612" y="1449"/>
      <point x="658" y="1484" type="qcurve"/>
      <point x="751" y="1556"/>
      <point x="1011" y="1556" type="qcurve" name="at01"/>
      <point x="1160" y="1556" type="line"/>
      <point x="1124" y="1366" type="line" name="sv01"/>
      <point x="1001" y="1366" type="line"/>
      <point x="945" y="1366"/>
      <point x="874" y="1344"/>
      <point x="852" y="1323" type="qcurve"/>
      <point x="829" y="1301"/>
      <point x="795" y="1214"/>
      <point x="781" y="1139" type="qcurve"/>
      <point x="743" y="930" type="line"/>
      <point x="729" y="852"/>
      <point x="681" y="732"/>
      <point x="648" y="696" type="qcurve"/>
      <point x="587" y="629"/>
      <point x="456" y="612" type="qcurve" name="ih02"/>
      <point x="552" y="591"/>
      <point x="593" y="548" type="qcurve"/>
      <point x="613" y="528"/>
      <point x="634" y="471"/>
      <point x="634" y="428" type="qcurve" name="sh02"/>
      <point x="634" y="417"/>
      <point x="632" y="381"/>
      <point x="630" y="364" type="qcurve"/>
      <point x="628" y="351"/>
      <point x="623" y="317"/>
      <point x="618" y="291" type="qcurve"/>
      <point x="577" y="86" type="line"/>
      <point x="574" y="73"/>
      <point x="571" y="57"/>
      <point x="568" y="43"/>
      <point x="566" y="26"/>
      <point x="564" y="12" type="qcurve"/>
      <point x="562" y="-5"/>
      <point x="560" y="-22"/>
      <point x="560" y="-32" type="qcurve" name="dh02"/>
      <point x="560" y="-64"/>
      <point x="577" y="-105"/>
      <point x="594" y="-118" type="qcurve"/>
      <point x="628" y="-143"/>
      <point x="708" y="-143" type="qcurve" name="hr02"/>
      <point x="829" y="-143" type="line"/>
      <point x="792" y="-334" type="line" name="sv02"/>
    </contour>
  </outline>
</glyph>
<glyph name="bar" format="1">
  <advance width="1233"/>
  <unicode hex="007C"/>
  <outline>
    <contour>
      <point x="502" y="1565" type="line" name="hr00"/>
      <point x="729" y="1565" type="line"/>
      <point x="729" y="654" type="line"/>
      <point x="502" y="654" type="line"/>
    </contour>
    <contour>
      <point x="502" y="427" type="line"/>
      <point x="729" y="427" type="line"/>
      <point x="729" y="-483" type="line"/>
      <point x="502" y="-483" type="line"/>
    </contour>
  </outline>
</glyph>
<glyph name="braceright" format="1">
  <advance width="1233"/>
  <unicode hex="007D"/>
  <outline>
    <contour>
      <point x="56" y="-143" type="line" name="hr00"/>
      <point x="179" y="-143" type="line" name="dv02"/>
      <point x="227" y="-143"/>
      <point x="304" y="-121"/>
      <point x="326" y="-100" type="qcurve"/>
      <point x="371" y="-57"/>
      <point x="398" y="86" type="qcurve"/>
      <point x="437" y="291" type="line"/>
      <point x="452" y="370"/>
      <point x="499" y="488"/>
      <point x="532" y="524" type="qcurve"/>
      <point x="594" y="592"/>
      <point x="724" y="612" type="qcurve" name="ih01"/>
      <point x="629" y="628"/>
      <point x="588" y="670" type="qcurve"/>
      <point x="546" y="712"/>
      <point x="546" y="792" type="qcurve" name="dh01"/>
      <point x="546" y="803"/>
      <point x="548" y="834"/>
      <point x="550" y="852" type="qcurve" name="sh01"/>
      <point x="552" y="863"/>
      <point x="558" y="910"/>
      <point x="562" y="930" type="qcurve"/>
      <point x="603" y="1139" type="line"/>
      <point x="608" y="1157"/>
      <point x="613" y="1191"/>
      <point x="616" y="1214" type="qcurve"/>
      <point x="618" y="1229"/>
      <point x="620" y="1243"/>
      <point x="620" y="1247" type="qcurve"/>
      <point x="620" y="1251"/>
      <point x="619" y="1253"/>
      <point x="619" y="1257" type="qcurve"/>
      <point x="619" y="1285"/>
      <point x="603" y="1329"/>
      <point x="586" y="1342" type="qcurve"/>
      <point x="553" y="1366"/>
      <point x="472" y="1366" type="qcurve" name="sv01"/>
      <point x="351" y="1366" type="line"/>
      <point x="388" y="1556" type="line" name="at01"/>
      <point x="535" y="1556" type="line"/>
      <point x="739" y="1556"/>
      <point x="822" y="1508" type="qcurve"/>
      <point x="864" y="1484"/>
      <point x="904" y="1402"/>
      <point x="904" y="1351" type="qcurve"/>
      <point x="904" y="1302"/>
      <point x="884" y="1202" type="qcurve"/>
      <point x="881" y="1187" type="line"/>
      <point x="840" y="972" type="line"/>
      <point x="837" y="956"/>
      <point x="832" y="923"/>
      <point x="830" y="911" type="qcurve"/>
      <point x="828" y="895"/>
      <point x="826" y="874"/>
      <point x="826" y="864" type="qcurve" name="dh02"/>
      <point x="826" y="811"/>
      <point x="863" y="757"/>
      <point x="889" y="742" type="qcurve"/>
      <point x="951" y="707"/>
      <point x="1067" y="707" type="qcurve" name="dv04"/>
      <point x="1129" y="707" type="line"/>
      <point x="1092" y="516" type="line" name="dv03"/>
      <point x="1000" y="516" type="line"/>
      <point x="859" y="516"/>
      <point x="794" y="458" type="qcurve"/>
      <point x="727" y="399"/>
      <point x="699" y="250" type="qcurve"/>
      <point x="658" y="35" type="line"/>
      <point x="616" y="-187"/>
      <point x="516" y="-260" type="qcurve"/>
      <point x="416" y="-334"/>
      <point x="169" y="-334" type="qcurve" name="dv01"/>
      <point x="19" y="-334" type="line"/>
    </contour>
  </outline>
</glyph>
<glyph name="sterling" format="1">
  <advance width="1233"/>
  <unicode hex="00A3"/>
  <outline>
    <contour>
      <point x="29" y="260" type="line" name="hr00"/>
      <point x="264" y="260" type="line"/>
      <point x="328" y="594" type="line" name="dv01"/>
      <point x="129" y="594" type="line"/>
      <point x="174" y="819" type="line"/>
      <point x="373" y="819" type="line" name="dv02"/>
      <point x="410" y="1016" type="line"/>
      <point x="436" y="1153"/>
      <point x="526" y="1344"/>
      <point x="589" y="1402" type="qcurve"/>
      <point x="653" y="1462"/>
      <point x="837" y="1520"/>
      <point x="952" y="1520" type="qcurve" name="at01"/>
      <point x="1032" y="1520"/>
      <point x="1102" y="1504" type="qcurve"/>
      <point x="1175" y="1487"/>
      <point x="1245" y="1456" type="qcurve"/>
      <point x="1192" y="1190" type="line" name="iv01"/>
      <point x="1163" y="1210"/>
      <point x="1099" y="1243"/>
      <point x="1073" y="1252" type="qcurve"/>
      <point x="1047" y="1261"/>
      <point x="983" y="1272"/>
      <point x="952" y="1272" type="qcurve" name="sv01"/>
      <point x="847" y="1272"/>
      <point x="784" y="1205" type="qcurve"/>
      <point x="753" y="1172"/>
      <point x="706" y="1069"/>
      <point x="692" y="995" type="qcurve"/>
      <point x="659" y="819" type="line" name="sv02"/>
      <point x="995" y="819" type="line"/>
      <point x="952" y="594" type="line" name="sv03"/>
      <point x="614" y="594" type="line"/>
      <point x="551" y="260" type="line" name="sv04"/>
      <point x="1032" y="260" type="line" name="sv05"/>
      <point x="981" y="0" type="line" name="ab01"/>
      <point x="-23" y="0" type="line"/>
    </contour>
  </outline>
</glyph>
<glyph name="currency" format="1">
  <advance width="1233"/>
  <unicode hex="00A4"/>
  <outline>
    <contour>
      <point x="186" y="305" type="line" name="hr00"/>
      <point x="356" y="475" type="line"/>
      <point x="342" y="502"/>
      <point x="330" y="535"/>
      <point x="323" y="559" type="qcurve" name="sh02"/>
      <point x="318" y="579"/>
      <point x="311" y="616"/>
      <point x="311" y="642" type="qcurve" name="sh01"/>
      <point x="311" y="668"/>
      <point x="318" y="710"/>
      <point x="323" y="729" type="qcurve" name="sh03"/>
      <point x="328" y="746"/>
      <point x="343" y="784"/>
      <point x="358" y="807" type="qcurve"/>
      <point x="186" y="977" type="line"/>
      <point x="317" y="1108" type="line" name="sh04"/>
      <point x="483" y="936" type="line" name="sh06"/>
      <point x="503" y="948"/>
      <point x="547" y="967"/>
      <point x="566" y="972" type="qcurve"/>
      <point x="608" y="983"/>
      <point x="652" y="983" type="qcurve" name="dv04"/>
      <point x="673" y="983"/>
      <point x="713" y="977"/>
      <point x="733" y="972" type="qcurve"/>
      <point x="753" y="967"/>
      <point x="796" y="949"/>
      <point x="819" y="938" type="qcurve" name="sh07"/>
      <point x="991" y="1108" type="line" name="sh09"/>
      <point x="1118" y="979" type="line"/>
      <point x="948" y="809" type="line"/>
      <point x="959" y="789"/>
      <point x="977" y="747"/>
      <point x="982" y="727" type="qcurve" name="sh10"/>
      <point x="993" y="683"/>
      <point x="993" y="641" type="qcurve" name="sh08"/>
      <point x="993" y="620"/>
      <point x="987" y="573"/>
      <point x="982" y="554" type="qcurve" name="sh11"/>
      <point x="977" y="538"/>
      <point x="959" y="496"/>
      <point x="946" y="477" type="qcurve"/>
      <point x="1118" y="307" type="line"/>
      <point x="987" y="176" type="line" name="sh12"/>
      <point x="817" y="348" type="line" name="sh13"/>
      <point x="795" y="334"/>
      <point x="762" y="319"/>
      <point x="741" y="313" type="qcurve"/>
      <point x="722" y="308"/>
      <point x="681" y="301"/>
      <point x="656" y="301" type="qcurve" name="dv01"/>
      <point x="633" y="301"/>
      <point x="593" y="307"/>
      <point x="572" y="312" type="qcurve"/>
      <point x="551" y="317"/>
      <point x="508" y="333"/>
      <point x="485" y="344" type="qcurve" name="sh14"/>
      <point x="315" y="176" type="line" name="sh15"/>
    </contour>
    <contour>
      <point x="654" y="467" type="qcurve" name="dv02"/>
      <point x="727" y="467"/>
      <point x="777" y="518" type="qcurve"/>
      <point x="827" y="570"/>
      <point x="827" y="642" type="qcurve" name="ah01"/>
      <point x="827" y="678"/>
      <point x="801" y="743"/>
      <point x="778" y="766" type="qcurve"/>
      <point x="754" y="790"/>
      <point x="688" y="815"/>
      <point x="653" y="815" type="qcurve" name="dv03"/>
      <point x="618" y="815"/>
      <point x="555" y="791"/>
      <point x="530" y="767" type="qcurve"/>
      <point x="507" y="745"/>
      <point x="479" y="681"/>
      <point x="479" y="643" type="qcurve" name="sh05"/>
      <point x="479" y="608"/>
      <point x="504" y="544"/>
      <point x="529" y="518" type="qcurve"/>
      <point x="552" y="494"/>
      <point x="616" y="467"/>
    </contour>
  </outline>
</glyph>
<glyph name="section" format="1">
  <advance width="1233"/>
  <unicode hex="00A7"/>
  <outline>
    <contour>
      <point x="458" y="-195" type="qcurve" name="hr00"/>
      <point x="379" y="-195"/>
      <point x="291" y="-180" type="qcurve"/>
      <point x="200" y="-165"/>
      <point x="104" y="-135" type="qcurve"/>
      <point x="150" y="94" type="line"/>
      <point x="185" y="78"/>
      <point x="260" y="53"/>
      <point x="303" y="44" type="qcurve" name="sh02"/>
      <point x="385" y="27"/>
      <point x="453" y="27" type="qcurve" name="dv01"/>
      <point x="544" y="27"/>
      <point x="590" y="61" type="qcurve"/>
      <point x="613" y="78"/>
      <point x="637" y="127"/>
      <point x="637" y="151" type="qcurve" name="ah01"/>
      <point x="637" y="190"/>
      <point x="568" y="272"/>
      <point x="485" y="328" type="qcurve"/>
      <point x="467" y="340" type="line"/>
      <point x="367" y="408" type="line"/>
      <point x="315" y="443"/>
      <point x="242" y="503"/>
      <point x="218" y="538" type="qcurve"/>
      <point x="200" y="564"/>
      <point x="178" y="627"/>
      <point x="178" y="669" type="qcurve"/>
      <point x="178" y="764"/>
      <point x="239" y="840" type="qcurve"/>
      <point x="269" y="878"/>
      <point x="357" y="942"/>
      <point x="414" y="967" type="qcurve" name="ih01"/>
      <point x="363" y="1007"/>
      <point x="339" y="1057" type="qcurve"/>
      <point x="327" y="1082"/>
      <point x="315" y="1137"/>
      <point x="315" y="1172" type="qcurve" name="sh01"/>
      <point x="315" y="1326"/>
      <point x="433" y="1423" type="qcurve"/>
      <point x="489" y="1469"/>
      <point x="639" y="1520"/>
      <point x="739" y="1520" type="qcurve" name="at01"/>
      <point x="812" y="1520"/>
      <point x="892" y="1505" type="qcurve" name="sh05"/>
      <point x="973" y="1490"/>
      <point x="1059" y="1460" type="qcurve"/>
      <point x="1014" y="1231" type="line"/>
      <point x="980" y="1248"/>
      <point x="911" y="1274"/>
      <point x="881" y="1282" type="qcurve" name="sh06"/>
      <point x="848" y="1290"/>
      <point x="783" y="1298"/>
      <point x="753" y="1298" type="qcurve" name="sv01"/>
      <point x="666" y="1298"/>
      <point x="620" y="1264" type="qcurve"/>
      <point x="573" y="1229"/>
      <point x="573" y="1169" type="qcurve" name="sh03"/>
      <point x="573" y="1125"/>
      <point x="604" y="1090" type="qcurve"/>
      <point x="624" y="1067"/>
      <point x="691" y="1018"/>
      <point x="743" y="985" type="qcurve"/>
      <point x="848" y="918" type="line"/>
      <point x="943" y="858"/>
      <point x="990" y="791" type="qcurve"/>
      <point x="1013" y="759"/>
      <point x="1032" y="692"/>
      <point x="1032" y="656" type="qcurve"/>
      <point x="1032" y="570"/>
      <point x="977" y="496" type="qcurve"/>
      <point x="948" y="458"/>
      <point x="864" y="388"/>
      <point x="807" y="354" type="qcurve" name="ih02"/>
      <point x="831" y="331"/>
      <point x="864" y="283"/>
      <point x="874" y="260" type="qcurve"/>
      <point x="895" y="210"/>
      <point x="895" y="149" type="qcurve" name="sh04"/>
      <point x="895" y="72"/>
      <point x="834" y="-55"/>
      <point x="776" y="-101" type="qcurve"/>
      <point x="719" y="-146"/>
      <point x="558" y="-195"/>
    </contour>
    <contour>
      <point x="682" y="451" type="qcurve"/>
      <point x="737" y="489"/>
      <point x="770" y="534" type="qcurve"/>
      <point x="787" y="558"/>
      <point x="801" y="599"/>
      <point x="801" y="619" type="qcurve"/>
      <point x="801" y="654"/>
      <point x="782" y="685" type="qcurve"/>
      <point x="773" y="700"/>
      <point x="746" y="729"/>
      <point x="729" y="741" type="qcurve"/>
      <point x="649" y="795" type="line" name="sh07"/>
      <point x="647" y="795"/>
      <point x="627" y="810"/>
      <point x="608" y="823" type="qcurve"/>
      <point x="530" y="877" type="line"/>
      <point x="501" y="856"/>
      <point x="456" y="810"/>
      <point x="441" y="789" type="qcurve"/>
      <point x="424" y="765"/>
      <point x="410" y="724"/>
      <point x="410" y="704" type="qcurve"/>
      <point x="410" y="669"/>
      <point x="428" y="639" type="qcurve"/>
      <point x="446" y="609"/>
      <point x="483" y="584" type="qcurve"/>
      <point x="561" y="530" type="line" name="sh08"/>
      <point x="612" y="496" type="line"/>
      <point x="627" y="486"/>
      <point x="645" y="475"/>
      <point x="658" y="466"/>
      <point x="672" y="457"/>
    </contour>
  </outline>
</glyph>
<glyph name="copyright" format="1">
  <advance width="1233"/>
  <unicode hex="00A9"/>
  <outline>
    <contour>
      <point x="616" y="125" type="qcurve" name="hr00"/>
      <point x="550" y="125"/>
      <point x="436" y="148"/>
      <point x="382" y="171" type="qcurve"/>
      <point x="327" y="194"/>
      <point x="225" y="263"/>
      <point x="181" y="307" type="qcurve"/>
      <point x="139" y="349"/>
      <point x="68" y="452"/>
      <point x="45" y="508" type="qcurve"/>
      <point x="0" y="614"/>
      <point x="0" y="741" type="qcurve" name="dh01"/>
      <point x="0" y="804"/>
      <point x="23" y="922"/>
      <point x="46" y="977" type="qcurve"/>
      <point x="69" y="1031"/>
      <point x="136" y="1131"/>
      <point x="182" y="1178" type="qcurve"/>
      <point x="229" y="1226"/>
      <point x="329" y="1292"/>
      <point x="381" y="1313" type="qcurve"/>
      <point x="490" y="1358"/>
      <point x="616" y="1358" type="qcurve" name="dv03"/>
      <point x="742" y="1358"/>
      <point x="852" y="1313" type="qcurve"/>
      <point x="909" y="1290"/>
      <point x="1009" y="1221"/>
      <point x="1051" y="1178" type="qcurve"/>
      <point x="1100" y="1128"/>
      <point x="1167" y="1025"/>
      <point x="1187" y="977" type="qcurve"/>
      <point x="1233" y="869"/>
      <point x="1233" y="742" type="qcurve" name="dh06"/>
      <point x="1233" y="614"/>
      <point x="1188" y="508" type="qcurve"/>
      <point x="1166" y="456"/>
      <point x="1097" y="352"/>
      <point x="1052" y="307" type="qcurve"/>
      <point x="1010" y="265"/>
      <point x="908" y="195"/>
      <point x="851" y="171" type="qcurve"/>
      <point x="743" y="125"/>
    </contour>
    <contour>
      <point x="616" y="256" type="qcurve" name="dv01"/>
      <point x="667" y="256"/>
      <point x="756" y="273"/>
      <point x="802" y="293" type="qcurve"/>
      <point x="840" y="310"/>
      <point x="920" y="362"/>
      <point x="958" y="400" type="qcurve"/>
      <point x="992" y="434"/>
      <point x="1048" y="515"/>
      <point x="1066" y="558" type="qcurve"/>
      <point x="1102" y="643"/>
      <point x="1102" y="743" type="qcurve" name="dh05"/>
      <point x="1102" y="797"/>
      <point x="1083" y="885"/>
      <point x="1066" y="927" type="qcurve"/>
      <point x="1047" y="972"/>
      <point x="992" y="1052"/>
      <point x="959" y="1086" type="qcurve"/>
      <point x="926" y="1120"/>
      <point x="844" y="1176"/>
      <point x="802" y="1193" type="qcurve"/>
      <point x="754" y="1213"/>
      <point x="665" y="1229"/>
      <point x="619" y="1229" type="qcurve" name="dv02"/>
      <point x="563" y="1229"/>
      <point x="472" y="1210"/>
      <point x="431" y="1193" type="qcurve"/>
      <point x="389" y="1175"/>
      <point x="309" y="1121"/>
      <point x="274" y="1086" type="qcurve"/>
      <point x="239" y="1051"/>
      <point x="184" y="967"/>
      <point x="167" y="927" type="qcurve"/>
      <point x="131" y="843"/>
      <point x="131" y="742" type="qcurve" name="dh02"/>
      <point x="131" y="643"/>
      <point x="167" y="558" type="qcurve"/>
      <point x="186" y="513"/>
      <point x="239" y="436"/>
      <point x="274" y="401" type="qcurve"/>
      <point x="312" y="363"/>
      <point x="389" y="310"/>
      <point x="431" y="293" type="qcurve"/>
      <point x="477" y="273"/>
      <point x="566" y="256"/>
    </contour>
    <contour>
      <point x="637" y="399" type="qcurve" name="dv04"/>
      <point x="556" y="399"/>
      <point x="418" y="444"/>
      <point x="367" y="492" type="qcurve"/>
      <point x="316" y="540"/>
      <point x="266" y="667"/>
      <point x="266" y="741" type="qcurve" name="dh03"/>
      <point x="266" y="823"/>
      <point x="321" y="949"/>
      <point x="367" y="991" type="qcurve"/>
      <point x="414" y="1034"/>
      <point x="550" y="1083"/>
      <point x="636" y="1083" type="qcurve" name="dv07"/>
      <point x="662" y="1083"/>
      <point x="721" y="1079"/>
      <point x="745" y="1075" type="qcurve"/>
      <point x="768" y="1071"/>
      <point x="825" y="1057"/>
      <point x="848" y="1049" type="qcurve"/>
      <point x="848" y="881" type="line" name="ih01"/>
      <point x="795" y="913"/>
      <point x="751" y="926" type="qcurve"/>
      <point x="728" y="933"/>
      <point x="681" y="940"/>
      <point x="655" y="940" type="qcurve" name="dv06"/>
      <point x="606" y="940"/>
      <point x="533" y="914"/>
      <point x="507" y="888" type="qcurve"/>
      <point x="453" y="835"/>
      <point x="453" y="741" type="qcurve" name="dh04"/>
      <point x="453" y="646"/>
      <point x="506" y="595" type="qcurve"/>
      <point x="558" y="543"/>
      <point x="658" y="543" type="qcurve" name="dv05"/>
      <point x="687" y="543"/>
      <point x="735" y="551"/>
      <point x="758" y="558" type="qcurve"/>
      <point x="781" y="565"/>
      <point x="822" y="584"/>
      <point x="848" y="602" type="qcurve" name="ih02"/>
      <point x="848" y="434" type="line"/>
      <point x="820" y="426"/>
      <point x="766" y="413"/>
      <point x="740" y="408" type="qcurve"/>
      <point x="687" y="399"/>
    </contour>
  </outline>
</glyph>
<glyph name="guillemotleft" format="1">
  <advance width="1233"/>
  <unicode hex="00AB"/>
  <outline>
    <contour>
      <point x="78" y="535" type="line" name="hr00"/>
      <point x="102" y="666" type="line"/>
      <point x="649" y="1059" type="line" name="av03"/>
      <point x="602" y="821" type="line"/>
      <point x="283" y="600" type="line"/>
      <point x="516" y="379" type="line"/>
      <point x="471" y="141" type="line" name="av01"/>
    </contour>
    <contour>
      <point x="532" y="535" type="line"/>
      <point x="557" y="666" type="line"/>
      <point x="1102" y="1059" type="line" name="av04"/>
      <point x="1057" y="821" type="line"/>
      <point x="737" y="600" type="line"/>
      <point x="971" y="379" type="line"/>
      <point x="926" y="141" type="line" name="av02"/>
    </contour>
  </outline>
</glyph>
<glyph name="logicalnot" format="1">
  <advance width="1233"/>
  <unicode hex="00AC"/>
  <outline>
    <contour>
      <point x="907" y="662" type="line" name="hr00"/>
      <point x="88" y="662" type="line"/>
      <point x="88" y="899" type="line"/>
      <point x="1145" y="899" type="line" name="dh01"/>
      <point x="1145" y="362" type="line" name="av01"/>
      <point x="907" y="362" type="line"/>
    </contour>
  </outline>
</glyph>
<glyph name="macron" format="1">
  <advance width="1233"/>
  <unicode hex="00AF"/>
  <note>
	macron
  </note>
  <outline>
    <contour>
      <point x="422" y="1368" type="line"/>
      <point x="1053" y="1368" type="line"/>
      <point x="1090" y="1556" type="line"/>
      <point x="459" y="1556" type="line"/>
    </contour>
  </outline>
</glyph>
<glyph name="degree" format="1">
  <advance width="1233"/>
  <unicode hex="00B0"/>
  <outline>
    <contour>
      <point x="613" y="854" type="qcurve" name="hr00"/>
      <point x="542" y="854"/>
      <point x="422" y="904"/>
      <point x="378" y="948" type="qcurve"/>
      <point x="331" y="995"/>
      <point x="283" y="1116"/>
      <point x="283" y="1185" type="qcurve" name="sh01"/>
      <point x="283" y="1254"/>
      <point x="330" y="1376"/>
      <point x="378" y="1424" type="qcurve"/>
      <point x="426" y="1472"/>
      <point x="547" y="1520"/>
      <point x="616" y="1520" type="qcurve" name="at01"/>
      <point x="684" y="1520"/>
      <point x="744" y="1495" type="qcurve"/>
      <point x="773" y="1483"/>
      <point x="829" y="1445"/>
      <point x="852" y="1422" type="qcurve"/>
      <point x="875" y="1399"/>
      <point x="913" y="1341"/>
      <point x="924" y="1313" type="qcurve"/>
      <point x="948" y="1254"/>
      <point x="948" y="1188" type="qcurve" name="sh02"/>
      <point x="948" y="1119"/>
      <point x="923" y="1059" type="qcurve"/>
      <point x="911" y="1030"/>
      <point x="876" y="976"/>
      <point x="852" y="952" type="qcurve"/>
      <point x="829" y="929"/>
      <point x="772" y="892"/>
      <point x="743" y="880" type="qcurve"/>
      <point x="712" y="867"/>
      <point x="648" y="854"/>
    </contour>
    <contour>
      <point x="614" y="1016" type="qcurve" name="dv01"/>
      <point x="686" y="1016"/>
      <point x="736" y="1066" type="qcurve"/>
      <point x="786" y="1116"/>
      <point x="786" y="1187" type="qcurve" name="ah01"/>
      <point x="786" y="1259"/>
      <point x="737" y="1308" type="qcurve"/>
      <point x="687" y="1358"/>
      <point x="616" y="1358" type="qcurve" name="sv01"/>
      <point x="544" y="1358"/>
      <point x="494" y="1308" type="qcurve"/>
      <point x="444" y="1258"/>
      <point x="444" y="1185" type="qcurve" name="sh03"/>
      <point x="444" y="1114"/>
      <point x="493" y="1065" type="qcurve"/>
      <point x="542" y="1016"/>
    </contour>
  </outline>
</glyph>
<glyph name="plusminus" format="1">
  <advance width="1233"/>
  <unicode hex="00B1"/>
  <outline>
    <contour>
      <point x="498" y="694" type="line" name="hr00"/>
      <point x="88" y="694" type="line"/>
      <point x="88" y="930" type="line"/>
      <point x="498" y="930" type="line" name="sh01"/>
      <point x="498" y="1284" type="line" name="av01"/>
      <point x="735" y="1284" type="line" name="sh02"/>
      <point x="735" y="930" type="line" name="sv01"/>
      <point x="1145" y="930" type="line"/>
      <point x="1145" y="694" type="line" name="sv02"/>
      <point x="735" y="694" type="line" name="dh01"/>
      <point x="735" y="340" type="line"/>
      <point x="498" y="340" type="line"/>
    </contour>
    <contour>
      <point x="88" y="238" type="line" name="sv03"/>
      <point x="1145" y="238" type="line"/>
      <point x="1145" y="0" type="line" name="ab01"/>
      <point x="88" y="0" type="line"/>
    </contour>
  </outline>
</glyph>
<glyph name="twosuperior" format="1">
  <advance width="1233"/>
  <unicode hex="00B2"/>
  <outline>
    <contour>
      <point x="289" y="1261" type="line" name="hr00"/>
      <point x="323" y="1286"/>
      <point x="358" y="1311"/>
      <point x="382" y="1328"/>
      <point x="407" y="1346"/>
      <point x="431" y="1363" type="qcurve"/>
      <point x="540" y="1441"/>
      <point x="692" y="1562"/>
      <point x="788" y="1654"/>
      <point x="831" y="1722"/>
      <point x="831" y="1746" type="qcurve" name="dh01"/>
      <point x="831" y="1762"/>
      <point x="813" y="1797"/>
      <point x="795" y="1810" type="qcurve"/>
      <point x="760" y="1834"/>
      <point x="691" y="1834" type="qcurve" name="dv03"/>
      <point x="661" y="1834"/>
      <point x="592" y="1825"/>
      <point x="555" y="1816" type="qcurve"/>
      <point x="517" y="1807"/>
      <point x="439" y="1780"/>
      <point x="403" y="1763" type="qcurve"/>
      <point x="434" y="1925" type="line"/>
      <point x="472" y="1936"/>
      <point x="546" y="1954"/>
      <point x="583" y="1960" type="qcurve"/>
      <point x="656" y="1972"/>
      <point x="728" y="1972" type="qcurve" name="dv04"/>
      <point x="797" y="1972"/>
      <point x="908" y="1947"/>
      <point x="950" y="1918" type="qcurve"/>
      <point x="991" y="1889"/>
      <point x="1028" y="1813"/>
      <point x="1028" y="1777" type="qcurve" name="dh02"/>
      <point x="1028" y="1736"/>
      <point x="981" y="1646"/>
      <point x="881" y="1539"/>
      <point x="726" y="1414"/>
      <point x="618" y="1338" type="qcurve"/>
      <point x="605" y="1329"/>
      <point x="595" y="1322"/>
      <point x="580" y="1312"/>
      <point x="549" y="1290"/>
      <point x="514" y="1265" type="qcurve"/>
      <point x="952" y="1265" type="line" name="dv02"/>
      <point x="924" y="1120" type="line" name="dv01"/>
      <point x="260" y="1120" type="line"/>
    </contour>
  </outline>
</glyph>
<glyph name="mu" format="1">
  <advance width="1233"/>
  <unicode hex="00B5"/>
  <outline>
    <contour>
      <point x="246" y="1120" type="line" name="hr00"/>
      <point x="535" y="1120" type="line"/>
      <point x="403" y="440" type="line"/>
      <point x="401" y="432"/>
      <point x="396" y="407"/>
      <point x="394" y="388" type="qcurve"/>
      <point x="391" y="364"/>
      <point x="391" y="346" type="qcurve"/>
      <point x="391" y="282"/>
      <point x="425" y="248" type="qcurve"/>
      <point x="442" y="231"/>
      <point x="489" y="213"/>
      <point x="521" y="213" type="qcurve" name="sv01"/>
      <point x="602" y="213"/>
      <point x="653" y="269" type="qcurve"/>
      <point x="705" y="325"/>
      <point x="727" y="440" type="qcurve"/>
      <point x="858" y="1120" type="line" name="at01"/>
      <point x="1147" y="1120" type="line"/>
      <point x="997" y="344" type="line"/>
      <point x="995" y="327"/>
      <point x="992" y="307"/>
      <point x="990" y="297"/>
      <point x="990" y="294"/>
      <point x="990" y="293" type="qcurve"/>
      <point x="988" y="283"/>
      <point x="987" y="271"/>
      <point x="987" y="264" type="qcurve"/>
      <point x="987" y="241"/>
      <point x="998" y="227" type="qcurve"/>
      <point x="1009" y="213"/>
      <point x="1028" y="213" type="qcurve" name="dv02"/>
      <point x="1040" y="213"/>
      <point x="1055" y="219" type="qcurve"/>
      <point x="1060" y="221"/>
      <point x="1079" y="231"/>
      <point x="1090" y="238" type="qcurve" name="iv01"/>
      <point x="1047" y="16" type="line"/>
      <point x="1019" y="2"/>
      <point x="981" y="-13"/>
      <point x="961" y="-18" type="qcurve"/>
      <point x="941" y="-23"/>
      <point x="903" y="-29"/>
      <point x="883" y="-29" type="qcurve" name="dv01"/>
      <point x="845" y="-29"/>
      <point x="793" y="-9"/>
      <point x="775" y="9" type="qcurve"/>
      <point x="737" y="47"/>
      <point x="725" y="129" type="qcurve" name="iv02"/>
      <point x="673" y="50"/>
      <point x="611" y="11" type="qcurve"/>
      <point x="582" y="-8"/>
      <point x="518" y="-29"/>
      <point x="479" y="-29" type="qcurve" name="sv02"/>
      <point x="420" y="-29"/>
      <point x="383" y="-5" type="qcurve"/>
      <point x="345" y="19"/>
      <point x="330" y="66" type="qcurve" name="iv03"/>
      <point x="233" y="-428" type="line" name="ab01"/>
      <point x="-55" y="-428" type="line"/>
    </contour>
  </outline>
</glyph>
<glyph name="paragraph" format="1">
  <advance width="1233"/>
  <unicode hex="00B6"/>
  <outline>
    <contour>
      <point x="457" y="649" type="line" name="hr00"/>
      <point x="286" y="667"/>
      <point x="194" y="753" type="qcurve"/>
      <point x="148" y="796"/>
      <point x="102" y="908"/>
      <point x="102" y="986" type="qcurve"/>
      <point x="102" y="1089"/>
      <point x="183" y="1271"/>
      <point x="265" y="1346" type="qcurve"/>
      <point x="427" y="1493"/>
      <point x="672" y="1493" type="qcurve" name="at01"/>
      <point x="1190" y="1493" type="line"/>
      <point x="862" y="-197" type="line" name="av01"/>
      <point x="672" y="-197" type="line"/>
      <point x="973" y="1346" type="line" name="sv01"/>
      <point x="782" y="1346" type="line"/>
      <point x="483" y="-197" type="line" name="av02"/>
      <point x="293" y="-197" type="line"/>
    </contour>
  </outline>
</glyph>
<glyph name="glyph121" format="1">
  <advance width="1233"/>
  <unicode hex="00B7"/>
  <outline>
    <contour>
      <point x="614" y="399" type="qcurve" name="hr00"/>
      <point x="542" y="399"/>
      <point x="476" y="427" type="qcurve"/>
      <point x="450" y="438"/>
      <point x="386" y="479"/>
      <point x="360" y="506" type="qcurve"/>
      <point x="335" y="532"/>
      <point x="296" y="592"/>
      <point x="283" y="623" type="qcurve"/>
      <point x="269" y="655"/>
      <point x="256" y="726"/>
      <point x="256" y="762" type="qcurve"/>
      <point x="256" y="836"/>
      <point x="284" y="902" type="qcurve"/>
      <point x="298" y="934"/>
      <point x="338" y="993"/>
      <point x="362" y="1016" type="qcurve"/>
      <point x="387" y="1040"/>
      <point x="449" y="1081"/>
      <point x="480" y="1094" type="qcurve"/>
      <point x="509" y="1106"/>
      <point x="579" y="1120"/>
      <point x="617" y="1120" type="qcurve"/>
      <point x="689" y="1120"/>
      <point x="755" y="1093" type="qcurve"/>
      <point x="820" y="1066"/>
      <point x="870" y="1016" type="qcurve"/>
      <point x="895" y="991"/>
      <point x="936" y="931"/>
      <point x="950" y="899" type="qcurve"/>
      <point x="977" y="834"/>
      <point x="977" y="762" type="qcurve"/>
      <point x="977" y="688"/>
      <point x="950" y="624" type="qcurve"/>
      <point x="939" y="597"/>
      <point x="899" y="535"/>
      <point x="870" y="506" type="qcurve"/>
      <point x="844" y="480"/>
      <point x="788" y="441"/>
      <point x="754" y="427" type="qcurve"/>
      <point x="725" y="415"/>
      <point x="655" y="399"/>
    </contour>
  </outline>
</glyph>
<glyph name="cedilla" format="1">
  <advance width="1233"/>
  <unicode hex="00B8"/>
  <outline>
    <contour>
      <point x="349" y="-401" type="qcurve" name="dv01"/>
      <point x="323" y="-401"/>
      <point x="266" y="-397"/>
      <point x="249" y="-395" type="qcurve"/>
      <point x="243" y="-394"/>
      <point x="216" y="-390"/>
      <point x="186" y="-384"/>
      <point x="157" y="-378"/>
      <point x="150" y="-375" type="qcurve"/>
      <point x="178" y="-219" type="line"/>
      <point x="200" y="-227"/>
      <point x="242" y="-240"/>
      <point x="262" y="-245" type="qcurve"/>
      <point x="302" y="-254"/>
      <point x="339" y="-254" type="qcurve" name="dv02"/>
      <point x="373" y="-254"/>
      <point x="426" y="-240"/>
      <point x="443" y="-227" type="qcurve"/>
      <point x="479" y="-200"/>
      <point x="479" y="-151" type="qcurve"/>
      <point x="479" y="-123"/>
      <point x="466" y="-90" type="qcurve"/>
      <point x="460" y="-74"/>
      <point x="438" y="-28"/>
      <point x="422" y="0" type="qcurve" name="hr01"/>
      <point x="563" y="0" type="line"/>
      <point x="599" y="-49"/>
      <point x="617" y="-94" type="qcurve"/>
      <point x="635" y="-141"/>
      <point x="635" y="-185" type="qcurve"/>
      <point x="635" y="-232"/>
      <point x="598" y="-313"/>
      <point x="560" y="-342" type="qcurve"/>
      <point x="523" y="-371"/>
      <point x="416" y="-401"/>
    </contour>
  </outline>
</glyph>
<glyph name="onesuperior" format="1">
  <advance width="1233"/>
  <unicode hex="00B9"/>
  <outline>
    <contour>
      <point x="315" y="1265" type="line" name="hr00"/>
      <point x="551" y="1265" type="line"/>
      <point x="657" y="1808" type="line"/>
      <point x="428" y="1765" type="line"/>
      <point x="457" y="1914" type="line"/>
      <point x="686" y="1955" type="line" name="av01"/>
      <point x="883" y="1955" type="line"/>
      <point x="748" y="1265" type="line"/>
      <point x="975" y="1265" type="line" name="dv02"/>
      <point x="946" y="1120" type="line" name="dv01"/>
      <point x="289" y="1120" type="line"/>
    </contour>
  </outline>
</glyph>
<glyph name="ordmasculine" format="1">
  <advance width="1233"/>
  <unicode hex="00BA"/>
  <outline>
    <contour>
      <point x="634" y="698" type="qcurve" name="hr00"/>
      <point x="556" y="698"/>
      <point x="438" y="740"/>
      <point x="394" y="782" type="qcurve"/>
      <point x="349" y="824"/>
      <point x="307" y="942"/>
      <point x="307" y="1027" type="qcurve" name="sh01"/>
      <point x="307" y="1130"/>
      <point x="367" y="1310"/>
      <point x="427" y="1380" type="qcurve"/>
      <point x="546" y="1520"/>
      <point x="740" y="1520" type="qcurve" name="at01"/>
      <point x="894" y="1520"/>
      <point x="981" y="1436" type="qcurve"/>
      <point x="1024" y="1394"/>
      <point x="1067" y="1278"/>
      <point x="1067" y="1191" type="qcurve" name="sh02"/>
      <point x="1067" y="1091"/>
      <point x="1008" y="910"/>
      <point x="948" y="838" type="qcurve"/>
      <point x="886" y="765"/>
      <point x="729" y="698"/>
    </contour>
    <contour>
      <point x="649" y="862" type="qcurve" name="dv03"/>
      <point x="694" y="862"/>
      <point x="769" y="913"/>
      <point x="796" y="957" type="qcurve"/>
      <point x="826" y="1006"/>
      <point x="856" y="1128"/>
      <point x="856" y="1188" type="qcurve" name="ah01"/>
      <point x="856" y="1226"/>
      <point x="842" y="1292"/>
      <point x="822" y="1315" type="qcurve"/>
      <point x="805" y="1335"/>
      <point x="756" y="1356"/>
      <point x="728" y="1356" type="qcurve" name="sv01"/>
      <point x="682" y="1356"/>
      <point x="607" y="1305"/>
      <point x="580" y="1261" type="qcurve"/>
      <point x="548" y="1210"/>
      <point x="520" y="1087"/>
      <point x="520" y="1032" type="qcurve" name="sh03"/>
      <point x="520" y="985"/>
      <point x="538" y="925"/>
      <point x="554" y="905" type="qcurve"/>
      <point x="571" y="885"/>
      <point x="619" y="862"/>
    </contour>
    <contour>
      <point x="254" y="598" type="line"/>
      <point x="942" y="598" type="line" name="dv02"/>
      <point x="909" y="428" type="line" name="dv01"/>
      <point x="221" y="428" type="line"/>
    </contour>
  </outline>
</glyph>
<glyph name="onehalf" format="1">
  <advance width="1233"/>
  <unicode hex="00BD"/>
  <outline>
    <contour>
      <point x="57" y="969" type="line" name="hr00"/>
      <point x="293" y="969" type="line"/>
      <point x="399" y="1512" type="line"/>
      <point x="170" y="1469" type="line"/>
      <point x="199" y="1618" type="line"/>
      <point x="428" y="1659" type="line" name="av01"/>
      <point x="625" y="1659" type="line"/>
      <point x="490" y="969" type="line"/>
      <point x="717" y="969" type="line" name="dv06"/>
      <point x="688" y="824" type="line" name="dv05"/>
      <point x="31" y="824" type="line"/>
    </contour>
    <contour>
      <point x="47" y="618" type="line"/>
      <point x="1106" y="879" type="line"/>
      <point x="1143" y="762" type="line"/>
      <point x="84" y="500" type="line"/>
    </contour>
    <contour>
      <point x="443" y="-129" type="line"/>
      <point x="477" y="-104"/>
      <point x="512" y="-79"/>
      <point x="536" y="-62"/>
      <point x="561" y="-44"/>
      <point x="585" y="-27" type="qcurve"/>
      <point x="692" y="50"/>
      <point x="844" y="170"/>
      <point x="940" y="263"/>
      <point x="985" y="331"/>
      <point x="985" y="356" type="qcurve" name="dh01"/>
      <point x="985" y="372"/>
      <point x="967" y="407"/>
      <point x="949" y="420" type="qcurve"/>
      <point x="914" y="444"/>
      <point x="845" y="444" type="qcurve" name="dv03"/>
      <point x="815" y="444"/>
      <point x="746" y="435"/>
      <point x="709" y="426" type="qcurve"/>
      <point x="668" y="416"/>
      <point x="594" y="390"/>
      <point x="557" y="373" type="qcurve"/>
      <point x="588" y="535" type="line"/>
      <point x="626" y="546"/>
      <point x="700" y="564"/>
      <point x="737" y="570" type="qcurve"/>
      <point x="810" y="582"/>
      <point x="881" y="582" type="qcurve" name="dv04"/>
      <point x="952" y="582"/>
      <point x="1066" y="556"/>
      <point x="1105" y="528" type="qcurve"/>
      <point x="1145" y="499"/>
      <point x="1182" y="422"/>
      <point x="1182" y="387" type="qcurve" name="dh02"/>
      <point x="1182" y="307"/>
      <point x="983" y="94"/>
      <point x="772" y="-52" type="qcurve"/>
      <point x="760" y="-60"/>
      <point x="741" y="-73"/>
      <point x="719" y="-89"/>
      <point x="690" y="-109"/>
      <point x="668" y="-125" type="qcurve"/>
      <point x="1106" y="-125" type="line" name="dv02"/>
      <point x="1078" y="-270" type="line" name="dv01"/>
      <point x="414" y="-270" type="line"/>
    </contour>
  </outline>
</glyph>
<glyph name="questiondown" format="1">
  <advance width="1233"/>
  <unicode hex="00BF"/>
  <outline>
    <contour>
      <point x="732" y="1222" type="qcurve" name="hr00"/>
      <point x="697" y="1222"/>
      <point x="649" y="1245"/>
      <point x="632" y="1264" type="qcurve"/>
      <point x="616" y="1282"/>
      <point x="596" y="1332"/>
      <point x="596" y="1360" type="qcurve"/>
      <point x="596" y="1390" type="line"/>
      <point x="596" y="1400"/>
      <point x="605" y="1429"/>
      <point x="611" y="1441" type="qcurve"/>
      <point x="619" y="1457"/>
      <point x="647" y="1499"/>
      <point x="670" y="1517" type="qcurve"/>
      <point x="693" y="1535"/>
      <point x="749" y="1556"/>
      <point x="783" y="1556" type="qcurve" name="at01"/>
      <point x="830" y="1556"/>
      <point x="898" y="1514"/>
      <point x="914" y="1469" type="qcurve"/>
      <point x="923" y="1443"/>
      <point x="923" y="1413" type="qcurve"/>
      <point x="923" y="1365"/>
      <point x="889" y="1297"/>
      <point x="863" y="1274" type="qcurve"/>
      <point x="837" y="1250"/>
      <point x="770" y="1222"/>
    </contour>
    <contour>
      <point x="454" y="-27" type="qcurve" name="ab01"/>
      <point x="369" y="-27"/>
      <point x="239" y="14"/>
      <point x="189" y="56" type="qcurve"/>
      <point x="90" y="138"/>
      <point x="90" y="272" type="qcurve" name="dh01"/>
      <point x="90" y="368"/>
      <point x="139" y="450" type="qcurve"/>
      <point x="164" y="492"/>
      <point x="249" y="585"/>
      <point x="305" y="631" type="qcurve"/>
      <point x="410" y="717" type="line"/>
      <point x="418" y="724" type="line"/>
      <point x="484" y="782"/>
      <point x="557" y="898"/>
      <point x="571" y="969" type="qcurve"/>
      <point x="594" y="1092" type="line"/>
      <point x="860" y="1092" type="line"/>
      <point x="831" y="938" type="line"/>
      <point x="821" y="886"/>
      <point x="792" y="807"/>
      <point x="770" y="772" type="qcurve"/>
      <point x="744" y="730"/>
      <point x="675" y="659"/>
      <point x="631" y="621" type="qcurve"/>
      <point x="526" y="528" type="line"/>
      <point x="511" y="515" type="line"/>
      <point x="443" y="456"/>
      <point x="371" y="363"/>
      <point x="371" y="321" type="qcurve" name="dh02"/>
      <point x="371" y="301"/>
      <point x="389" y="256"/>
      <point x="408" y="240" type="qcurve"/>
      <point x="427" y="224"/>
      <point x="479" y="209"/>
      <point x="517" y="209" type="qcurve" name="sv01"/>
      <point x="563" y="209"/>
      <point x="657" y="229"/>
      <point x="706" y="246" type="qcurve"/>
      <point x="755" y="263"/>
      <point x="864" y="316"/>
      <point x="924" y="354" type="qcurve" name="iv01"/>
      <point x="872" y="86" type="line"/>
      <point x="772" y="31"/>
      <point x="664" y="2" type="qcurve"/>
      <point x="556" y="-27"/>
    </contour>
  </outline>
</glyph>
<glyph name="Aacute" format="1">
  <advance width="1233"/>
  <unicode hex="00C1"/>
  <outline>
    <contour>
      <point x="862" y="1852" type="line" name="hr00"/>
      <point x="1143" y="1852" type="line"/>
      <point x="823" y="1588" type="line"/>
      <point x="616" y="1588" type="line" name="iv01"/>
    </contour>
    <contour>
      <point x="582" y="1493" type="line" name="at01"/>
      <point x="942" y="1493" type="line"/>
      <point x="1055" y="0" type="line" name="ab01"/>
      <point x="762" y="0" type="line"/>
      <point x="748" y="369" type="line" name="dv01"/>
      <point x="348" y="369" type="line"/>
      <point x="186" y="0" type="line" name="ab02"/>
      <point x="-113" y="0" type="line"/>
    </contour>
    <contour>
      <point x="737" y="612" type="line" name="dv02"/>
      <point x="717" y="1219" type="line"/>
      <point x="453" y="612" type="line"/>
    </contour>
  </outline>
</glyph>
<glyph name="Atilde" format="1">
  <advance width="1233"/>
  <unicode hex="00C3"/>
  <outline>
    <contour>
      <point x="422" y="1589" type="line" name="hr00"/>
      <point x="448" y="1718"/>
      <point x="513" y="1786" type="qcurve"/>
      <point x="545" y="1820"/>
      <point x="624" y="1855"/>
      <point x="673" y="1855" type="qcurve" name="dv02"/>
      <point x="711" y="1855"/>
      <point x="744" y="1843" type="qcurve"/>
      <point x="758" y="1838"/>
      <point x="791" y="1819"/>
      <point x="811" y="1804" type="qcurve"/>
      <point x="864" y="1763" type="line"/>
      <point x="877" y="1751"/>
      <point x="898" y="1743" type="qcurve"/>
      <point x="915" y="1736"/>
      <point x="932" y="1736" type="qcurve"/>
      <point x="972" y="1736"/>
      <point x="997" y="1767" type="qcurve"/>
      <point x="1024" y="1799"/>
      <point x="1034" y="1855" type="qcurve" name="sv01"/>
      <point x="1171" y="1855" type="line"/>
      <point x="1146" y="1728"/>
      <point x="1080" y="1658" type="qcurve"/>
      <point x="1015" y="1589"/>
      <point x="921" y="1589" type="qcurve" name="sv02"/>
      <point x="901" y="1589"/>
      <point x="868" y="1595"/>
      <point x="852" y="1600" type="qcurve"/>
      <point x="836" y="1605"/>
      <point x="806" y="1622"/>
      <point x="782" y="1640" type="qcurve"/>
      <point x="733" y="1677" type="line"/>
      <point x="719" y="1688"/>
      <point x="702" y="1698"/>
      <point x="691" y="1703" type="qcurve"/>
      <point x="681" y="1707"/>
      <point x="666" y="1709"/>
      <point x="660" y="1709" type="qcurve"/>
      <point x="639" y="1709"/>
      <point x="607" y="1691"/>
      <point x="596" y="1678" type="qcurve"/>
      <point x="580" y="1659"/>
      <point x="562" y="1606"/>
      <point x="559" y="1589" type="qcurve" name="dv01"/>
    </contour>
    <contour>
      <point x="582" y="1493" type="line" name="at01"/>
      <point x="942" y="1493" type="line"/>
      <point x="1055" y="0" type="line" name="ab01"/>
      <point x="762" y="0" type="line"/>
      <point x="748" y="369" type="line" name="dv03"/>
      <point x="348" y="369" type="line"/>
      <point x="186" y="0" type="line" name="ab02"/>
      <point x="-113" y="0" type="line"/>
    </contour>
    <contour>
      <point x="737" y="612" type="line" name="dv04"/>
      <point x="717" y="1219" type="line"/>
      <point x="453" y="612" type="line"/>
    </contour>
  </outline>
</glyph>
<glyph name="Adieresis" format="1">
  <advance width="1233"/>
  <unicode hex="00C4"/>
  <outline>
    <contour>
      <point x="487" y="1613" type="line" name="hr00"/>
      <point x="460" y="1613"/>
      <point x="460" y="1637" type="qcurve"/>
      <point x="460" y="1643"/>
      <point x="461" y="1646" type="qcurve"/>
      <point x="499" y="1832" type="line"/>
      <point x="505" y="1859"/>
      <point x="531" y="1859" type="qcurve" name="dv01"/>
      <point x="706" y="1859" type="line"/>
      <point x="733" y="1859"/>
      <point x="733" y="1835" type="qcurve"/>
      <point x="733" y="1829"/>
      <point x="732" y="1826" type="qcurve"/>
      <point x="695" y="1640" type="line"/>
      <point x="690" y="1613"/>
      <point x="663" y="1613" type="qcurve"/>
    </contour>
    <contour>
      <point x="883" y="1613" type="line" name="sv01"/>
      <point x="856" y="1613"/>
      <point x="856" y="1637" type="qcurve"/>
      <point x="856" y="1643"/>
      <point x="857" y="1646" type="qcurve"/>
      <point x="894" y="1832" type="line"/>
      <point x="898" y="1859"/>
      <point x="926" y="1859" type="qcurve" name="sv02"/>
      <point x="1101" y="1859" type="line"/>
      <point x="1116" y="1859"/>
      <point x="1131" y="1841"/>
      <point x="1128" y="1826" type="qcurve"/>
      <point x="1092" y="1640" type="line"/>
      <point x="1087" y="1613"/>
      <point x="1060" y="1613" type="qcurve"/>
    </contour>
    <contour>
      <point x="582" y="1493" type="line" name="at01"/>
      <point x="942" y="1493" type="line"/>
      <point x="1055" y="0" type="line" name="ab01"/>
      <point x="762" y="0" type="line"/>
      <point x="748" y="369" type="line" name="dv02"/>
      <point x="348" y="369" type="line"/>
      <point x="186" y="0" type="line" name="ab02"/>
      <point x="-113" y="0" type="line"/>
    </contour>
    <contour>
      <point x="737" y="612" type="line" name="dv03"/>
      <point x="717" y="1219" type="line"/>
      <point x="453" y="612" type="line"/>
    </contour>
  </outline>
</glyph>
<glyph name="Aring" format="1">
  <advance width="1233"/>
  <unicode hex="00C5"/>
  <outline>
    <contour>
      <point x="547" y="1421" type="line" name="hr00"/>
      <point x="511" y="1457"/>
      <point x="490" y="1510" type="qcurve"/>
      <point x="469" y="1562"/>
      <point x="469" y="1618" type="qcurve" name="sh01"/>
      <point x="469" y="1733"/>
      <point x="553" y="1817" type="qcurve"/>
      <point x="593" y="1857"/>
      <point x="690" y="1901"/>
      <point x="753" y="1901" type="qcurve" name="dv02"/>
      <point x="870" y="1901"/>
      <point x="954" y="1817" type="qcurve"/>
      <point x="1038" y="1733"/>
      <point x="1038" y="1618" type="qcurve" name="sh02"/>
      <point x="1038" y="1586"/>
      <point x="1026" y="1527"/>
      <point x="1015" y="1503" type="qcurve"/>
      <point x="1003" y="1475"/>
      <point x="968" y="1427"/>
      <point x="948" y="1409" type="qcurve"/>
      <point x="1055" y="0" type="line" name="hr01"/>
      <point x="760" y="0" type="line"/>
      <point x="739" y="369" type="line" name="dv03"/>
      <point x="344" y="369" type="line"/>
      <point x="182" y="0" type="line" name="ab01"/>
      <point x="-113" y="0" type="line"/>
    </contour>
    <contour>
      <point x="754" y="1485" type="qcurve"/>
      <point x="808" y="1485"/>
      <point x="847" y="1524" type="qcurve"/>
      <point x="885" y="1562"/>
      <point x="885" y="1616" type="qcurve" name="ah01"/>
      <point x="885" y="1670"/>
      <point x="846" y="1709" type="qcurve"/>
      <point x="806" y="1747"/>
      <point x="754" y="1747" type="qcurve" name="dv01"/>
      <point x="700" y="1747"/>
      <point x="662" y="1709" type="qcurve"/>
      <point x="623" y="1670"/>
      <point x="623" y="1616" type="qcurve" name="sh03"/>
      <point x="623" y="1587"/>
      <point x="644" y="1541"/>
      <point x="661" y="1524" type="qcurve"/>
      <point x="700" y="1485"/>
    </contour>
    <contour>
      <point x="729" y="612" type="line" name="dv04"/>
      <point x="709" y="1223" type="line" name="ih01"/>
      <point x="451" y="612" type="line"/>
    </contour>
  </outline>
</glyph>
<glyph name="Ccedilla" format="1">
  <advance width="1233"/>
  <unicode hex="00C7"/>
  <outline>
    <contour>
      <point x="1038" y="1502" type="qcurve" name="hr00"/>
      <point x="1073" y="1494"/>
      <point x="1154" y="1467"/>
      <point x="1193" y="1448" type="qcurve"/>
      <point x="1129" y="1120" type="line"/>
      <point x="1079" y="1189"/>
      <point x="1007" y="1223" type="qcurve"/>
      <point x="970" y="1240"/>
      <point x="889" y="1257"/>
      <point x="853" y="1257" type="qcurve" name="sv01"/>
      <point x="812" y="1257"/>
      <point x="729" y="1235"/>
      <point x="689" y="1210" type="qcurve"/>
      <point x="647" y="1184"/>
      <point x="582" y="1111"/>
      <point x="558" y="1074" type="qcurve"/>
      <point x="523" y="1020"/>
      <point x="468" y="894"/>
      <point x="447" y="819" type="qcurve"/>
      <point x="424" y="738"/>
      <point x="404" y="597"/>
      <point x="404" y="537" type="qcurve" name="dh02"/>
      <point x="404" y="466"/>
      <point x="433" y="350"/>
      <point x="467" y="308" type="qcurve"/>
      <point x="530" y="231"/>
      <point x="651" y="231" type="qcurve"/>
      <point x="729" y="231"/>
      <point x="810" y="265" type="qcurve"/>
      <point x="853" y="283"/>
      <point x="938" y="336"/>
      <point x="984" y="371" type="qcurve"/>
      <point x="920" y="43" type="line"/>
      <point x="880" y="24"/>
      <point x="800" y="-3"/>
      <point x="763" y="-11" type="qcurve"/>
      <point x="741" y="-16"/>
      <point x="698" y="-23"/>
      <point x="676" y="-25" type="qcurve"/>
      <point x="698" y="-60"/>
      <point x="712" y="-94" type="qcurve"/>
      <point x="730" y="-141"/>
      <point x="730" y="-185" type="qcurve"/>
      <point x="730" y="-232"/>
      <point x="693" y="-313"/>
      <point x="655" y="-342" type="qcurve"/>
      <point x="618" y="-371"/>
      <point x="512" y="-401"/>
      <point x="443" y="-401" type="qcurve" name="dv01"/>
      <point x="417" y="-401"/>
      <point x="363" y="-397"/>
      <point x="344" y="-395" type="qcurve" name="sv02"/>
      <point x="322" y="-392"/>
      <point x="292" y="-387"/>
      <point x="270" y="-381"/>
      <point x="254" y="-377"/>
      <point x="245" y="-375" type="qcurve"/>
      <point x="273" y="-219" type="line"/>
      <point x="295" y="-227"/>
      <point x="337" y="-240"/>
      <point x="357" y="-245" type="qcurve"/>
      <point x="397" y="-254"/>
      <point x="434" y="-254" type="qcurve" name="dv02"/>
      <point x="468" y="-254"/>
      <point x="521" y="-240"/>
      <point x="538" y="-227" type="qcurve"/>
      <point x="574" y="-200"/>
      <point x="574" y="-151" type="qcurve"/>
      <point x="574" y="-123"/>
      <point x="561" y="-90" type="qcurve"/>
      <point x="556" y="-78"/>
      <point x="542" y="-46"/>
      <point x="531" y="-26" type="qcurve"/>
      <point x="440" y="-18"/>
      <point x="287" y="48"/>
      <point x="231" y="108" type="qcurve"/>
      <point x="164" y="180"/>
      <point x="105" y="388"/>
      <point x="105" y="517" type="qcurve" name="dh01"/>
      <point x="105" y="619"/>
      <point x="140" y="839"/>
      <point x="176" y="948" type="qcurve"/>
      <point x="211" y="1053"/>
      <point x="306" y="1227"/>
      <point x="367" y="1296" type="qcurve"/>
      <point x="415" y="1350"/>
      <point x="527" y="1434"/>
      <point x="594" y="1463" type="qcurve"/>
      <point x="660" y="1492"/>
      <point x="807" y="1520"/>
      <point x="883" y="1520" type="qcurve" name="at01"/>
      <point x="925" y="1520"/>
      <point x="998" y="1511"/>
    </contour>
  </outline>
</glyph>
<glyph name="Edieresis" format="1">
  <advance width="1233"/>
  <unicode hex="00CB"/>
  <outline>
    <contour>
      <point x="514" y="1607" type="line" name="hr00"/>
      <point x="487" y="1607"/>
      <point x="487" y="1631" type="qcurve"/>
      <point x="487" y="1637"/>
      <point x="488" y="1640" type="qcurve"/>
      <point x="526" y="1826" type="line"/>
      <point x="532" y="1853"/>
      <point x="558" y="1853" type="qcurve" name="dv01"/>
      <point x="733" y="1853" type="line"/>
      <point x="760" y="1853"/>
      <point x="760" y="1829" type="qcurve"/>
      <point x="760" y="1823"/>
      <point x="759" y="1820" type="qcurve"/>
      <point x="722" y="1634" type="line"/>
      <point x="717" y="1607"/>
      <point x="690" y="1607" type="qcurve"/>
    </contour>
    <contour>
      <point x="910" y="1607" type="line" name="sv01"/>
      <point x="883" y="1607"/>
      <point x="883" y="1631" type="qcurve"/>
      <point x="883" y="1637"/>
      <point x="884" y="1640" type="qcurve"/>
      <point x="921" y="1826" type="line"/>
      <point x="925" y="1853"/>
      <point x="953" y="1853" type="qcurve" name="sv02"/>
      <point x="1128" y="1853" type="line"/>
      <point x="1143" y="1853"/>
      <point x="1158" y="1835"/>
      <point x="1155" y="1820" type="qcurve"/>
      <point x="1119" y="1634" type="line"/>
      <point x="1114" y="1607"/>
      <point x="1087" y="1607" type="qcurve"/>
    </contour>
    <contour>
      <point x="317" y="1493" type="line" name="at01"/>
      <point x="1249" y="1493" type="line"/>
      <point x="1198" y="1233" type="line" name="sv03"/>
      <point x="563" y="1233" type="line"/>
      <point x="500" y="911" type="line"/>
      <point x="1075" y="911" type="line" name="dv03"/>
      <point x="1026" y="651" type="line" name="dv02"/>
      <point x="451" y="651" type="line"/>
      <point x="375" y="260" type="line" name="sv04"/>
      <point x="1010" y="260" type="line"/>
      <point x="958" y="0" type="line" name="ab01"/>
      <point x="29" y="0" type="line"/>
    </contour>
  </outline>
</glyph>
<glyph name="Iacute" format="1">
  <advance width="1233"/>
  <unicode hex="00CD"/>
  <outline>
    <contour>
      <point x="858" y="1853" type="line" name="hr00"/>
      <point x="1139" y="1853" type="line"/>
      <point x="819" y="1589" type="line"/>
      <point x="612" y="1589" type="line" name="iv01"/>
    </contour>
    <contour>
      <point x="78" y="260" type="line" name="sv01"/>
      <point x="375" y="260" type="line"/>
      <point x="563" y="1233" type="line" name="sv02"/>
      <point x="266" y="1233" type="line"/>
      <point x="317" y="1493" type="line" name="at01"/>
      <point x="1206" y="1493" type="line"/>
      <point x="1155" y="1233" type="line" name="sv03"/>
      <point x="858" y="1233" type="line" name="sv04"/>
      <point x="670" y="260" type="line" name="sv05"/>
      <point x="967" y="260" type="line" name="sv06"/>
      <point x="915" y="0" type="line" name="ab01"/>
      <point x="27" y="0" type="line"/>
    </contour>
  </outline>
</glyph>
<glyph name="Eth" format="1">
  <advance width="1233"/>
  <unicode hex="00D0"/>
  <outline>
    <contour>
      <point x="151" y="664" type="line" name="hr00"/>
      <point x="14" y="664" type="line"/>
      <point x="61" y="901" type="line"/>
      <point x="196" y="901" type="line" name="dv01"/>
      <point x="313" y="1493" type="line" name="at01"/>
      <point x="628" y="1493" type="line"/>
      <point x="767" y="1493"/>
      <point x="983" y="1433"/>
      <point x="1055" y="1370" type="qcurve"/>
      <point x="1125" y="1309"/>
      <point x="1195" y="1121"/>
      <point x="1195" y="996" type="qcurve" name="dh02"/>
      <point x="1195" y="960"/>
      <point x="1189" y="861"/>
      <point x="1182" y="814" type="qcurve"/>
      <point x="1179" y="793"/>
      <point x="1170" y="741"/>
      <point x="1159" y="684"/>
      <point x="1147" y="628"/>
      <point x="1141" y="603" type="qcurve"/>
      <point x="1121" y="522"/>
      <point x="1073" y="392"/>
      <point x="1051" y="347" type="qcurve"/>
      <point x="1021" y="285"/>
      <point x="957" y="200"/>
      <point x="927" y="171" type="qcurve"/>
      <point x="879" y="124"/>
      <point x="764" y="60"/>
      <point x="701" y="40" type="qcurve"/>
      <point x="632" y="19"/>
      <point x="461" y="0"/>
      <point x="352" y="0" type="qcurve" name="ab01"/>
      <point x="22" y="0" type="line"/>
    </contour>
    <contour>
      <point x="464" y="266" type="line" name="sv01"/>
      <point x="576" y="266"/>
      <point x="653" y="310" type="qcurve"/>
      <point x="695" y="333"/>
      <point x="751" y="399"/>
      <point x="773" y="442" type="qcurve"/>
      <point x="797" y="490"/>
      <point x="842" y="623"/>
      <point x="858" y="695" type="qcurve"/>
      <point x="875" y="770"/>
      <point x="890" y="909"/>
      <point x="890" y="960" type="qcurve" name="dh01"/>
      <point x="890" y="1033"/>
      <point x="859" y="1131"/>
      <point x="828" y="1163" type="qcurve"/>
      <point x="765" y="1227"/>
      <point x="636" y="1227" type="qcurve" name="sv02"/>
      <point x="554" y="1227" type="line"/>
      <point x="491" y="901" type="line" name="sv03"/>
      <point x="702" y="901" type="line"/>
      <point x="657" y="664" type="line" name="sv04"/>
      <point x="446" y="664" type="line"/>
      <point x="368" y="266" type="line"/>
    </contour>
  </outline>
</glyph>
<glyph name="Ntilde" format="1">
  <advance width="1233"/>
  <unicode hex="00D1"/>
  <outline>
    <contour>
      <point x="452" y="1588" type="line" name="hr00"/>
      <point x="478" y="1717"/>
      <point x="543" y="1785" type="qcurve"/>
      <point x="575" y="1819"/>
      <point x="654" y="1854"/>
      <point x="703" y="1854" type="qcurve" name="dv02"/>
      <point x="741" y="1854"/>
      <point x="774" y="1842" type="qcurve"/>
      <point x="788" y="1837"/>
      <point x="821" y="1818"/>
      <point x="841" y="1803" type="qcurve"/>
      <point x="894" y="1762" type="line"/>
      <point x="907" y="1750"/>
      <point x="928" y="1742" type="qcurve"/>
      <point x="945" y="1735"/>
      <point x="962" y="1735" type="qcurve"/>
      <point x="1002" y="1735"/>
      <point x="1027" y="1766" type="qcurve"/>
      <point x="1054" y="1798"/>
      <point x="1064" y="1854" type="qcurve" name="sv01"/>
      <point x="1201" y="1854" type="line"/>
      <point x="1176" y="1727"/>
      <point x="1110" y="1657" type="qcurve"/>
      <point x="1045" y="1588"/>
      <point x="951" y="1588" type="qcurve" name="sv02"/>
      <point x="931" y="1588"/>
      <point x="898" y="1594"/>
      <point x="882" y="1599" type="qcurve"/>
      <point x="866" y="1604"/>
      <point x="836" y="1621"/>
      <point x="812" y="1639" type="qcurve"/>
      <point x="763" y="1676" type="line"/>
      <point x="747" y="1688"/>
      <point x="734" y="1697"/>
      <point x="721" y="1702" type="qcurve"/>
      <point x="711" y="1706"/>
      <point x="696" y="1708"/>
      <point x="690" y="1708" type="qcurve"/>
      <point x="669" y="1708"/>
      <point x="637" y="1690"/>
      <point x="626" y="1677" type="qcurve"/>
      <point x="610" y="1658"/>
      <point x="592" y="1605"/>
      <point x="589" y="1588" type="qcurve" name="dv01"/>
    </contour>
    <contour>
      <point x="266" y="1493" type="line" name="at01"/>
      <point x="569" y="1493" type="line"/>
      <point x="784" y="408" type="line" name="iv01"/>
      <point x="995" y="1493" type="line" name="at02"/>
      <point x="1255" y="1493" type="line"/>
      <point x="967" y="0" type="line" name="ab01"/>
      <point x="674" y="0" type="line"/>
      <point x="449" y="1085" type="line" name="iv02"/>
      <point x="238" y="0" type="line" name="ab02"/>
      <point x="-25" y="0" type="line"/>
    </contour>
  </outline>
</glyph>
<glyph name="Odieresis" format="1">
  <advance width="1233"/>
  <unicode hex="00D6"/>
  <outline>
    <contour>
      <point x="487" y="1606" type="line" name="hr00"/>
      <point x="460" y="1606"/>
      <point x="460" y="1632" type="qcurve"/>
      <point x="460" y="1636"/>
      <point x="461" y="1637"/>
      <point x="461" y="1639" type="qcurve"/>
      <point x="499" y="1825" type="line"/>
      <point x="505" y="1852"/>
      <point x="531" y="1852" type="qcurve" name="dv03"/>
      <point x="706" y="1852" type="line"/>
      <point x="733" y="1852"/>
      <point x="733" y="1826" type="qcurve"/>
      <point x="733" y="1822"/>
      <point x="732" y="1821"/>
      <point x="732" y="1819" type="qcurve"/>
      <point x="695" y="1633" type="line"/>
      <point x="690" y="1606"/>
      <point x="663" y="1606" type="qcurve"/>
    </contour>
    <contour>
      <point x="883" y="1606" type="line" name="sv01"/>
      <point x="856" y="1606"/>
      <point x="856" y="1632" type="qcurve" name="sh01"/>
      <point x="856" y="1636"/>
      <point x="857" y="1637"/>
      <point x="857" y="1639" type="qcurve" name="sh02"/>
      <point x="894" y="1825" type="line"/>
      <point x="898" y="1852"/>
      <point x="926" y="1852" type="qcurve" name="sv02"/>
      <point x="1101" y="1852" type="line"/>
      <point x="1116" y="1852"/>
      <point x="1131" y="1834"/>
      <point x="1128" y="1819" type="qcurve"/>
      <point x="1092" y="1633" type="line"/>
      <point x="1087" y="1606"/>
      <point x="1060" y="1606" type="qcurve"/>
    </contour>
    <contour>
      <point x="500" y="-29" type="qcurve" name="dv01"/>
      <point x="398" y="-29"/>
      <point x="231" y="33"/>
      <point x="173" y="98" type="qcurve"/>
      <point x="114" y="164"/>
      <point x="61" y="353"/>
      <point x="61" y="476" type="qcurve" name="sh03"/>
      <point x="61" y="564"/>
      <point x="86" y="767"/>
      <point x="111" y="870" type="qcurve"/>
      <point x="137" y="979"/>
      <point x="207" y="1159"/>
      <point x="246" y="1228" type="qcurve"/>
      <point x="281" y="1291"/>
      <point x="378" y="1403"/>
      <point x="447" y="1445" type="qcurve"/>
      <point x="512" y="1484"/>
      <point x="657" y="1520"/>
      <point x="732" y="1520" type="qcurve" name="at01"/>
      <point x="835" y="1520"/>
      <point x="1001" y="1458"/>
      <point x="1058" y="1395" type="qcurve"/>
      <point x="1122" y="1325"/>
      <point x="1171" y="1130"/>
      <point x="1171" y="1015" type="qcurve" name="sh04"/>
      <point x="1171" y="930"/>
      <point x="1148" y="731"/>
      <point x="1122" y="622" type="qcurve"/>
      <point x="1099" y="523"/>
      <point x="1033" y="342"/>
      <point x="988" y="264" type="qcurve"/>
      <point x="946" y="190"/>
      <point x="849" y="84"/>
      <point x="786" y="46" type="qcurve"/>
      <point x="722" y="8"/>
      <point x="578" y="-29"/>
    </contour>
    <contour>
      <point x="525" y="233" type="qcurve" name="dv02"/>
      <point x="585" y="233"/>
      <point x="635" y="269" type="qcurve"/>
      <point x="659" y="286"/>
      <point x="702" y="338"/>
      <point x="721" y="373" type="qcurve"/>
      <point x="734" y="397"/>
      <point x="756" y="451"/>
      <point x="767" y="483" type="qcurve"/>
      <point x="781" y="522"/>
      <point x="798" y="587"/>
      <point x="809" y="630" type="qcurve"/>
      <point x="823" y="687"/>
      <point x="845" y="797"/>
      <point x="853" y="846" type="qcurve"/>
      <point x="868" y="945"/>
      <point x="868" y="1020" type="qcurve" name="ah01"/>
      <point x="868" y="1141"/>
      <point x="828" y="1200" type="qcurve"/>
      <point x="787" y="1260"/>
      <point x="708" y="1260" type="qcurve" name="sv03"/>
      <point x="674" y="1260"/>
      <point x="619" y="1240"/>
      <point x="598" y="1225" type="qcurve"/>
      <point x="574" y="1208"/>
      <point x="530" y="1154"/>
      <point x="512" y="1121" type="qcurve"/>
      <point x="498" y="1096"/>
      <point x="479" y="1046"/>
      <point x="469" y="1017" type="qcurve"/>
      <point x="462" y="996"/>
      <point x="451" y="961"/>
      <point x="441" y="927"/>
      <point x="431" y="887"/>
      <point x="424" y="860" type="qcurve"/>
      <point x="410" y="802"/>
      <point x="388" y="700"/>
      <point x="380" y="646" type="qcurve"/>
      <point x="365" y="545"/>
      <point x="365" y="471" type="qcurve" name="sh05"/>
      <point x="365" y="350"/>
      <point x="405" y="292" type="qcurve"/>
      <point x="426" y="261"/>
      <point x="487" y="233"/>
    </contour>
  </outline>
</glyph>
<glyph name="Oslash" format="1">
  <advance width="1233"/>
  <unicode hex="00D8"/>
  <outline>
    <contour>
      <point x="-141" y="51" type="line" name="hr00"/>
      <point x="78" y="295" type="line"/>
      <point x="73" y="316"/>
      <point x="68" y="348"/>
      <point x="66" y="366" type="qcurve"/>
      <point x="64" y="385"/>
      <point x="61" y="421"/>
      <point x="61" y="454" type="qcurve"/>
      <point x="61" y="548"/>
      <point x="85" y="760"/>
      <point x="110" y="865" type="qcurve"/>
      <point x="133" y="965"/>
      <point x="201" y="1151"/>
      <point x="244" y="1227" type="qcurve"/>
      <point x="283" y="1296"/>
      <point x="383" y="1407"/>
      <point x="447" y="1445" type="qcurve"/>
      <point x="511" y="1483"/>
      <point x="657" y="1520"/>
      <point x="732" y="1520" type="qcurve" name="at02"/>
      <point x="836" y="1520"/>
      <point x="919" y="1487" type="qcurve"/>
      <point x="1001" y="1454"/>
      <point x="1063" y="1389" type="qcurve"/>
      <point x="1217" y="1559" type="line" name="at01"/>
      <point x="1356" y="1444" type="line"/>
      <point x="1151" y="1217" type="line"/>
      <point x="1157" y="1185"/>
      <point x="1164" y="1136"/>
      <point x="1166" y="1113" type="qcurve"/>
      <point x="1168" y="1088"/>
      <point x="1171" y="1048"/>
      <point x="1171" y="1022" type="qcurve"/>
      <point x="1171" y="996"/>
      <point x="1168" y="922"/>
      <point x="1164" y="887" type="qcurve"/>
      <point x="1162" y="873"/>
      <point x="1158" y="836"/>
      <point x="1152" y="795"/>
      <point x="1146" y="754"/>
      <point x="1143" y="737" type="qcurve"/>
      <point x="1138" y="707"/>
      <point x="1123" y="639"/>
      <point x="1107" y="571"/>
      <point x="1089" y="507"/>
      <point x="1080" y="480" type="qcurve"/>
      <point x="1063" y="428"/>
      <point x="1018" y="318"/>
      <point x="989" y="265" type="qcurve"/>
      <point x="947" y="191"/>
      <point x="844" y="81"/>
      <point x="786" y="46" type="qcurve"/>
      <point x="723" y="8"/>
      <point x="578" y="-29"/>
      <point x="500" y="-29" type="qcurve" name="dv01"/>
      <point x="390" y="-29"/>
      <point x="304" y="8" type="qcurve"/>
      <point x="216" y="46"/>
      <point x="160" y="117" type="qcurve"/>
      <point x="0" y="-63" type="line" name="av01"/>
    </contour>
    <contour>
      <point x="852" y="1153" type="line"/>
      <point x="843" y="1180"/>
      <point x="814" y="1221"/>
      <point x="797" y="1233" type="qcurve"/>
      <point x="777" y="1248"/>
      <point x="729" y="1260"/>
      <point x="706" y="1260" type="qcurve" name="sv01"/>
      <point x="641" y="1260"/>
      <point x="546" y="1182"/>
      <point x="510" y="1113" type="qcurve"/>
      <point x="472" y="1041"/>
      <point x="407" y="807"/>
      <point x="379" y="629" type="qcurve" name="iv01"/>
    </contour>
    <contour>
      <point x="525" y="233" type="qcurve" name="dv02"/>
      <point x="652" y="233"/>
      <point x="729" y="386" type="qcurve"/>
      <point x="767" y="462"/>
      <point x="832" y="717"/>
      <point x="858" y="889" type="qcurve" name="iv02"/>
      <point x="375" y="354" type="line"/>
      <point x="393" y="294"/>
      <point x="432" y="264" type="qcurve"/>
      <point x="450" y="250"/>
      <point x="494" y="233"/>
    </contour>
  </outline>
</glyph>
<glyph name="Ucircumflex" format="1">
  <advance width="1233"/>
  <unicode hex="00DB"/>
  <note>
	Ucircumflex
  </note>
  <outline>
    <contour>
      <point x="401" y="1591" type="line"/>
      <point x="581" y="1591" type="line"/>
      <point x="811" y="1752" type="line"/>
      <point x="975" y="1591" type="line"/>
      <point x="1144" y="1591" type="line"/>
      <point x="993" y="1855" type="line"/>
      <point x="645" y="1855" type="line"/>
    </contour>
    <contour>
      <point x="585" y="-29"/>
      <point x="660" y="-17"/>
      <point x="729" y="10" type="curve" smooth="yes"/>
      <point x="798" y="36"/>
      <point x="857" y="74"/>
      <point x="908" y="123" type="curve" smooth="yes"/>
      <point x="951" y="166"/>
      <point x="984" y="214"/>
      <point x="1012" y="279" type="curve" smooth="yes"/>
      <point x="1044" y="354"/>
      <point x="1064" y="438"/>
      <point x="1087" y="551" type="curve" smooth="yes"/>
      <point x="1272" y="1493" type="line"/>
      <point x="977" y="1493" type="line"/>
      <point x="778" y="477" type="line" smooth="yes"/>
      <point x="761" y="394"/>
      <point x="732" y="333"/>
      <point x="689" y="292" type="curve" smooth="yes"/>
      <point x="646" y="251"/>
      <point x="587" y="231"/>
      <point x="518" y="231" type="curve" smooth="yes"/>
      <point x="461" y="231"/>
      <point x="417" y="246"/>
      <point x="386" y="276" type="curve" smooth="yes"/>
      <point x="355" y="306"/>
      <point x="340" y="347"/>
      <point x="340" y="400" type="curve" smooth="yes"/>
      <point x="340" y="419"/>
      <point x="342" y="440"/>
      <point x="347" y="471" type="curve"/>
      <point x="348" y="473"/>
      <point x="348" y="475"/>
      <point x="348" y="477" type="curve"/>
      <point x="547" y="1493" type="line"/>
      <point x="252" y="1493" type="line"/>
      <point x="68" y="551" type="line" smooth="yes"/>
      <point x="58" y="504"/>
      <point x="56" y="495"/>
      <point x="51" y="444" type="curve" smooth="yes"/>
      <point x="47" y="408"/>
      <point x="45" y="382"/>
      <point x="45" y="354" type="curve" smooth="yes"/>
      <point x="45" y="233"/>
      <point x="80" y="138"/>
      <point x="163" y="70" type="curve" smooth="yes"/>
      <point x="243" y="3"/>
      <point x="356" y="-29"/>
      <point x="497" y="-29" type="curve" smooth="yes"/>
    </contour>
  </outline>
</glyph>
<glyph name="Ucircumflex" format="1">
  <advance width="1233"/>
  <unicode hex="00DB"/>
  <outline>
    <contour>
      <point x="645" y="1855" type="line" name="hr00"/>
      <point x="993" y="1855" type="line" name="dv04"/>
      <point x="1144" y="1591" type="line"/>
      <point x="975" y="1591" type="line" name="dv03"/>
      <point x="811" y="1752" type="line"/>
      <point x="581" y="1591" type="line" name="sv01"/>
      <point x="401" y="1591" type="line"/>
    </contour>
    <contour>
      <point x="497" y="-29" type="qcurve" name="dv01"/>
      <point x="391" y="-29"/>
      <point x="223" y="20"/>
      <point x="163" y="70" type="qcurve"/>
      <point x="101" y="121"/>
      <point x="45" y="263"/>
      <point x="45" y="354" type="qcurve" name="dh01"/>
      <point x="45" y="375"/>
      <point x="48" y="417"/>
      <point x="51" y="444" type="qcurve" name="sh01"/>
      <point x="53" y="463"/>
      <point x="56" y="488"/>
      <point x="60" y="510"/>
      <point x="64" y="533"/>
      <point x="68" y="551" type="qcurve"/>
      <point x="252" y="1493" type="line" name="at01"/>
      <point x="547" y="1493" type="line"/>
      <point x="348" y="477" type="line" name="sh02"/>
      <point x="348" y="474"/>
      <point x="347" y="471" type="qcurve" name="sh03"/>
      <point x="343" y="448"/>
      <point x="340" y="414"/>
      <point x="340" y="400" type="qcurve" name="dh02"/>
      <point x="340" y="321"/>
      <point x="386" y="276" type="qcurve"/>
      <point x="432" y="231"/>
      <point x="518" y="231" type="qcurve" name="dv02"/>
      <point x="570" y="231"/>
      <point x="657" y="261"/>
      <point x="689" y="292" type="qcurve"/>
      <point x="753" y="353"/>
      <point x="778" y="477" type="qcurve"/>
      <point x="977" y="1493" type="line" name="at02"/>
      <point x="1272" y="1493" type="line"/>
      <point x="1087" y="551" type="line"/>
      <point x="1070" y="466"/>
      <point x="1036" y="335"/>
      <point x="1012" y="279" type="qcurve"/>
      <point x="991" y="230"/>
      <point x="940" y="155"/>
      <point x="908" y="123" type="qcurve"/>
      <point x="832" y="49"/>
      <point x="729" y="10" type="qcurve"/>
      <point x="677" y="-10"/>
      <point x="563" y="-29"/>
    </contour>
  </outline>
</glyph>
<glyph name="Yacute" format="1">
  <advance width="1233"/>
  <unicode hex="00DD"/>
  <outline>
    <contour>
      <point x="868" y="1852" type="line" name="hr00"/>
      <point x="1149" y="1852" type="line"/>
      <point x="829" y="1588" type="line"/>
      <point x="622" y="1588" type="line" name="iv01"/>
    </contour>
    <contour>
      <point x="432" y="588" type="line"/>
      <point x="145" y="1493" type="line" name="at01"/>
      <point x="438" y="1493" type="line"/>
      <point x="625" y="844" type="line" name="iv02"/>
      <point x="1036" y="1493" type="line" name="at02"/>
      <point x="1358" y="1493" type="line" name="iv03"/>
      <point x="725" y="588" type="line"/>
      <point x="610" y="0" type="line" name="ab01"/>
      <point x="317" y="0" type="line"/>
    </contour>
  </outline>
</glyph>
<glyph name="Thorn" format="1">
  <advance width="1233"/>
  <unicode hex="00DE"/>
  <outline>
    <contour>
      <point x="307" y="1493" type="line" name="at01"/>
      <point x="602" y="1493" type="line"/>
      <point x="555" y="1266" type="line"/>
      <point x="682" y="1266" type="line" name="sv02"/>
      <point x="917" y="1266"/>
      <point x="1042" y="1174" type="qcurve"/>
      <point x="1105" y="1127"/>
      <point x="1165" y="993"/>
      <point x="1165" y="902" type="qcurve" name="dh02"/>
      <point x="1165" y="851"/>
      <point x="1147" y="739"/>
      <point x="1129" y="683" type="qcurve"/>
      <point x="1110" y="625"/>
      <point x="1063" y="540"/>
      <point x="1034" y="506" type="qcurve"/>
      <point x="990" y="454"/>
      <point x="895" y="394"/>
      <point x="840" y="374" type="qcurve"/>
      <point x="781" y="353"/>
      <point x="638" y="332"/>
      <point x="539" y="332" type="qcurve" name="dv01"/>
      <point x="375" y="332" type="line"/>
      <point x="311" y="0" type="line" name="ab01"/>
      <point x="16" y="0" type="line"/>
    </contour>
    <contour>
      <point x="569" y="580" type="line" name="dv02"/>
      <point x="716" y="580"/>
      <point x="786" y="647" type="qcurve"/>
      <point x="822" y="681"/>
      <point x="858" y="780"/>
      <point x="858" y="843" type="qcurve" name="dh01"/>
      <point x="858" y="898"/>
      <point x="832" y="962"/>
      <point x="806" y="980" type="qcurve" name="hr01"/>
      <point x="780" y="999"/>
      <point x="695" y="1018"/>
      <point x="631" y="1018" type="qcurve" name="sv01"/>
      <point x="510" y="1018" type="line" name="hr02"/>
      <point x="424" y="580" type="line"/>
    </contour>
  </outline>
</glyph>
<glyph name="germandbls" format="1">
  <advance width="1233"/>
  <unicode hex="00DF"/>
  <note>
	germandbls
  </note>
  <outline>
    <contour>
      <point x="813" y="-29"/>
      <point x="930" y="8"/>
      <point x="1015" y="82" type="curve" smooth="yes"/>
      <point x="1100" y="157"/>
      <point x="1143" y="259"/>
      <point x="1143" y="374" type="curve" smooth="yes"/>
      <point x="1143" y="431"/>
      <point x="1133" y="473"/>
      <point x="1114" y="512" type="curve" smooth="yes"/>
      <point x="1095" y="553"/>
      <point x="1065" y="593"/>
      <point x="1026" y="633" type="curve" smooth="yes"/>
      <point x="944" y="715" type="line" smooth="yes"/>
      <point x="873" y="786"/>
      <point x="848" y="831"/>
      <point x="848" y="875" type="curve" smooth="yes"/>
      <point x="848" y="924"/>
      <point x="878" y="970"/>
      <point x="926" y="1001" type="curve" smooth="yes"/>
      <point x="974" y="1032"/>
      <point x="1048" y="1054"/>
      <point x="1145" y="1059" type="curve"/>
      <point x="1146" y="1065" type="line"/>
      <point x="1153" y="1133"/>
      <point x="1157" y="1176"/>
      <point x="1157" y="1215" type="curve" smooth="yes"/>
      <point x="1157" y="1324"/>
      <point x="1125" y="1413"/>
      <point x="1060" y="1472" type="curve" smooth="yes"/>
      <point x="995" y="1531"/>
      <point x="896" y="1559"/>
      <point x="767" y="1559" type="curve" smooth="yes"/>
      <point x="624" y="1559"/>
      <point x="508" y="1522"/>
      <point x="421" y="1449" type="curve" smooth="yes"/>
      <point x="333" y="1376"/>
      <point x="276" y="1271"/>
      <point x="248" y="1126" type="curve" smooth="yes"/>
      <point x="29" y="0" type="line"/>
      <point x="322" y="0" type="line"/>
      <point x="541" y="1122" type="line" smooth="yes"/>
      <point x="554" y="1189"/>
      <point x="580" y="1240"/>
      <point x="618" y="1274" type="curve" smooth="yes"/>
      <point x="656" y="1308"/>
      <point x="707" y="1325"/>
      <point x="770" y="1325" type="curve" smooth="yes"/>
      <point x="823" y="1325"/>
      <point x="864" y="1313"/>
      <point x="895" y="1290" type="curve" smooth="yes"/>
      <point x="927" y="1265"/>
      <point x="940" y="1229"/>
      <point x="940" y="1190" type="curve" smooth="yes"/>
      <point x="940" y="1174" type="line"/>
      <point x="827" y="1149"/>
      <point x="741" y="1106"/>
      <point x="680" y="1044" type="curve" smooth="yes"/>
      <point x="619" y="981"/>
      <point x="588" y="905"/>
      <point x="588" y="817" type="curve" smooth="yes"/>
      <point x="588" y="776"/>
      <point x="595" y="739"/>
      <point x="609" y="705" type="curve" smooth="yes"/>
      <point x="622" y="671"/>
      <point x="644" y="639"/>
      <point x="674" y="608" type="curve" smooth="yes"/>
      <point x="743" y="537" type="line"/>
      <point x="749" y="531" type="line" smooth="yes"/>
      <point x="824" y="456"/>
      <point x="860" y="402"/>
      <point x="860" y="347" type="curve" smooth="yes"/>
      <point x="860" y="310"/>
      <point x="843" y="274"/>
      <point x="808" y="247" type="curve" smooth="yes"/>
      <point x="773" y="220"/>
      <point x="725" y="207"/>
      <point x="669" y="207" type="curve" smooth="yes"/>
      <point x="635" y="207"/>
      <point x="601" y="212"/>
      <point x="567" y="223" type="curve" smooth="yes"/>
      <point x="531" y="234"/>
      <point x="494" y="249"/>
      <point x="455" y="270" type="curve"/>
      <point x="406" y="20" type="line"/>
      <point x="450" y="4"/>
      <point x="483" y="-5"/>
      <point x="535" y="-16" type="curve" smooth="yes"/>
      <point x="576" y="-24"/>
      <point x="613" y="-29"/>
      <point x="666" y="-29" type="curve" smooth="yes"/>
    </contour>
  </outline>
</glyph>
<glyph name="agrave" format="1">
  <advance width="1233"/>
  <unicode hex="00E0"/>
  <outline>
    <contour>
      <point x="402" y="1673" type="line" name="av01"/>
      <point x="686" y="1673" type="line"/>
      <point x="895" y="1297" type="line" name="iv01"/>
      <point x="697" y="1297" type="line"/>
    </contour>
    <contour>
      <point x="379" y="-29" type="qcurve" name="dv01"/>
      <point x="304" y="-29"/>
      <point x="180" y="13"/>
      <point x="135" y="58" type="qcurve"/>
      <point x="88" y="104"/>
      <point x="47" y="228"/>
      <point x="47" y="300" type="qcurve" name="dh01"/>
      <point x="47" y="402"/>
      <point x="125" y="567"/>
      <point x="203" y="624" type="qcurve"/>
      <point x="358" y="737"/>
      <point x="651" y="737" type="qcurve"/>
      <point x="844" y="737" type="line" name="dv04"/>
      <point x="852" y="786" type="line"/>
      <point x="854" y="796"/>
      <point x="854" y="798" type="qcurve" name="hr01"/>
      <point x="854" y="815" type="line"/>
      <point x="854" y="872"/>
      <point x="803" y="902" type="qcurve"/>
      <point x="752" y="932"/>
      <point x="657" y="932" type="qcurve" name="sv01"/>
      <point x="572" y="932"/>
      <point x="470" y="904" type="qcurve"/>
      <point x="420" y="890"/>
      <point x="313" y="849"/>
      <point x="248" y="819" type="qcurve" name="ih01"/>
      <point x="295" y="1069" type="line"/>
      <point x="410" y="1109"/>
      <point x="509" y="1128" type="qcurve"/>
      <point x="560" y="1138"/>
      <point x="654" y="1147"/>
      <point x="705" y="1147" type="qcurve" name="at01"/>
      <point x="809" y="1147"/>
      <point x="972" y="1109"/>
      <point x="1029" y="1071" type="qcurve"/>
      <point x="1089" y="1031"/>
      <point x="1141" y="918"/>
      <point x="1141" y="845" type="qcurve"/>
      <point x="1141" y="827"/>
      <point x="1138" y="784"/>
      <point x="1134" y="756" type="qcurve"/>
      <point x="1130" y="727"/>
      <point x="1122" y="678"/>
      <point x="1114" y="639" type="qcurve"/>
      <point x="991" y="0" type="line" name="ab01"/>
      <point x="729" y="0" type="line"/>
      <point x="725" y="125" type="line" name="iv02"/>
      <point x="655" y="46"/>
      <point x="572" y="10" type="qcurve" name="ab02"/>
      <point x="528" y="-10"/>
      <point x="430" y="-29"/>
    </contour>
    <contour>
      <point x="501" y="172" type="qcurve" name="dv02"/>
      <point x="555" y="172"/>
      <point x="654" y="218"/>
      <point x="694" y="265" type="qcurve"/>
      <point x="732" y="309"/>
      <point x="789" y="441"/>
      <point x="803" y="530" type="qcurve" name="dv03"/>
      <point x="690" y="530" type="line"/>
      <point x="517" y="530"/>
      <point x="435" y="478" type="qcurve" name="hr02"/>
      <point x="393" y="452"/>
      <point x="352" y="372"/>
      <point x="352" y="321" type="qcurve" name="dh02"/>
      <point x="352" y="285"/>
      <point x="373" y="233"/>
      <point x="393" y="213" type="qcurve"/>
      <point x="413" y="193"/>
      <point x="464" y="172"/>
    </contour>
  </outline>
</glyph>
<glyph name="atilde" format="1">
  <advance width="1233"/>
  <unicode hex="00E3"/>
  <note>
	atilde
  </note>
  <outline>
    <contour>
      <point x="978" y="1297"/>
      <point x="1032" y="1321"/>
      <point x="1074" y="1369" type="curve" smooth="yes"/>
      <point x="1116" y="1417"/>
      <point x="1144" y="1488"/>
      <point x="1159" y="1581" type="curve"/>
      <point x="1020" y="1581" type="line"/>
      <point x="1013" y="1540"/>
      <point x="1001" y="1508"/>
      <point x="984" y="1486" type="curve" smooth="yes"/>
      <point x="968" y="1465"/>
      <point x="948" y="1452"/>
      <point x="921" y="1452" type="curve" smooth="yes"/>
      <point x="909" y="1452"/>
      <point x="899" y="1455"/>
      <point x="887" y="1460" type="curve" smooth="yes"/>
      <point x="875" y="1465"/>
      <point x="863" y="1472"/>
      <point x="850" y="1483" type="curve"/>
      <point x="799" y="1522" type="line" smooth="yes"/>
      <point x="768" y="1545"/>
      <point x="742" y="1563"/>
      <point x="723" y="1571" type="curve" smooth="yes"/>
      <point x="704" y="1579"/>
      <point x="679" y="1583"/>
      <point x="656" y="1583" type="curve" smooth="yes"/>
      <point x="596" y="1583"/>
      <point x="540" y="1557"/>
      <point x="495" y="1506" type="curve" smooth="yes"/>
      <point x="450" y="1455"/>
      <point x="421" y="1386"/>
      <point x="408" y="1299" type="curve"/>
      <point x="547" y="1299" type="line"/>
      <point x="554" y="1340"/>
      <point x="566" y="1371"/>
      <point x="583" y="1394" type="curve" smooth="yes"/>
      <point x="600" y="1417"/>
      <point x="620" y="1428"/>
      <point x="643" y="1428" type="curve" smooth="yes"/>
      <point x="670" y="1428"/>
      <point x="693" y="1412"/>
      <point x="716" y="1395" type="curve"/>
      <point x="719" y="1392"/>
      <point x="717" y="1395"/>
      <point x="721" y="1391" type="curve"/>
      <point x="770" y="1354" type="line" smooth="yes"/>
      <point x="797" y="1333"/>
      <point x="820" y="1319"/>
      <point x="843" y="1310" type="curve" smooth="yes"/>
      <point x="866" y="1301"/>
      <point x="884" y="1297"/>
      <point x="911" y="1297" type="curve" smooth="yes"/>
    </contour>
    <contour>
      <point x="447" y="-29"/>
      <point x="513" y="-17"/>
      <point x="572" y="10" type="curve" smooth="yes"/>
      <point x="627" y="34"/>
      <point x="678" y="72"/>
      <point x="725" y="125" type="curve"/>
      <point x="729" y="0" type="line"/>
      <point x="991" y="0" type="line"/>
      <point x="1114" y="639" type="line" smooth="yes"/>
      <point x="1125" y="690"/>
      <point x="1129" y="718"/>
      <point x="1134" y="756" type="curve" smooth="yes"/>
      <point x="1139" y="793"/>
      <point x="1141" y="824"/>
      <point x="1141" y="848" type="curve" smooth="yes"/>
      <point x="1141" y="944"/>
      <point x="1109" y="1018"/>
      <point x="1029" y="1071" type="curve" smooth="yes"/>
      <point x="956" y="1120"/>
      <point x="850" y="1147"/>
      <point x="705" y="1147" type="curve" smooth="yes"/>
      <point x="637" y="1147"/>
      <point x="577" y="1141"/>
      <point x="509" y="1128" type="curve" smooth="yes"/>
      <point x="443" y="1115"/>
      <point x="372" y="1096"/>
      <point x="295" y="1069" type="curve"/>
      <point x="248" y="819" type="line"/>
      <point x="335" y="859"/>
      <point x="403" y="885"/>
      <point x="470" y="904" type="curve" smooth="yes"/>
      <point x="538" y="923"/>
      <point x="600" y="932"/>
      <point x="657" y="932" type="curve" smooth="yes"/>
      <point x="720" y="932"/>
      <point x="769" y="922"/>
      <point x="803" y="902" type="curve" smooth="yes"/>
      <point x="837" y="882"/>
      <point x="854" y="853"/>
      <point x="854" y="815" type="curve" smooth="yes"/>
      <point x="854" y="798" type="line" smooth="yes"/>
      <point x="854" y="797"/>
      <point x="853" y="793"/>
      <point x="852" y="786" type="curve" smooth="yes"/>
      <point x="844" y="737" type="line"/>
      <point x="651" y="737" type="line" smooth="yes"/>
      <point x="456" y="737"/>
      <point x="306" y="699"/>
      <point x="203" y="624" type="curve" smooth="yes"/>
      <point x="99" y="548"/>
      <point x="47" y="436"/>
      <point x="47" y="300" type="curve" smooth="yes"/>
      <point x="47" y="204"/>
      <point x="72" y="119"/>
      <point x="135" y="58" type="curve" smooth="yes"/>
      <point x="195" y="-2"/>
      <point x="279" y="-29"/>
      <point x="379" y="-29" type="curve" smooth="yes"/>
    </contour>
    <contour>
      <point x="452" y="172"/>
      <point x="420" y="186"/>
      <point x="393" y="213" type="curve" smooth="yes"/>
      <point x="366" y="240"/>
      <point x="352" y="273"/>
      <point x="352" y="321" type="curve" smooth="yes"/>
      <point x="352" y="389"/>
      <point x="379" y="443"/>
      <point x="435" y="478" type="curve" smooth="yes"/>
      <point x="490" y="513"/>
      <point x="575" y="530"/>
      <point x="690" y="530" type="curve" smooth="yes"/>
      <point x="803" y="530" type="line"/>
      <point x="784" y="411"/>
      <point x="745" y="324"/>
      <point x="694" y="265" type="curve" smooth="yes"/>
      <point x="641" y="202"/>
      <point x="573" y="172"/>
      <point x="501" y="172" type="curve" smooth="yes"/>
    </contour>
  </outline>
</glyph>
<glyph name="adieresis" format="1">
  <advance width="1233"/>
  <unicode hex="00E4"/>
  <note>
	adieresis
  </note>
  <outline>
    <contour>
      <point x="655" y="1347" type="line" smooth="yes"/>
      <point x="673" y="1347"/>
      <point x="684" y="1356"/>
      <point x="687" y="1374" type="curve" smooth="yes"/>
      <point x="724" y="1560" type="line"/>
      <point x="725" y="1562"/>
      <point x="725" y="1565"/>
      <point x="725" y="1569" type="curve" smooth="yes"/>
      <point x="725" y="1585"/>
      <point x="716" y="1593"/>
      <point x="698" y="1593" type="curve" smooth="yes"/>
      <point x="521" y="1593" type="line" smooth="yes"/>
      <point x="502" y="1593"/>
      <point x="492" y="1584"/>
      <point x="489" y="1566" type="curve" smooth="yes"/>
      <point x="453" y="1380" type="line" smooth="yes"/>
      <point x="449" y="1360"/>
      <point x="460" y="1347"/>
      <point x="480" y="1347" type="curve" smooth="yes"/>
    </contour>
    <contour>
      <point x="1051" y="1347" type="line" smooth="yes"/>
      <point x="1069" y="1347"/>
      <point x="1080" y="1356"/>
      <point x="1083" y="1374" type="curve" smooth="yes"/>
      <point x="1120" y="1560" type="line"/>
      <point x="1121" y="1562"/>
      <point x="1121" y="1565"/>
      <point x="1121" y="1569" type="curve" smooth="yes"/>
      <point x="1121" y="1585"/>
      <point x="1112" y="1593"/>
      <point x="1094" y="1593" type="curve" smooth="yes"/>
      <point x="916" y="1593" type="line" smooth="yes"/>
      <point x="897" y="1593"/>
      <point x="887" y="1584"/>
      <point x="884" y="1566" type="curve" smooth="yes"/>
      <point x="848" y="1380" type="line" smooth="yes"/>
      <point x="844" y="1360"/>
      <point x="855" y="1347"/>
      <point x="875" y="1347" type="curve" smooth="yes"/>
    </contour>
    <contour>
      <point x="447" y="-29"/>
      <point x="513" y="-17"/>
      <point x="572" y="10" type="curve" smooth="yes"/>
      <point x="627" y="34"/>
      <point x="678" y="72"/>
      <point x="725" y="125" type="curve"/>
      <point x="729" y="0" type="line"/>
      <point x="991" y="0" type="line"/>
      <point x="1114" y="639" type="line" smooth="yes"/>
      <point x="1125" y="691"/>
      <point x="1129" y="717"/>
      <point x="1134" y="756" type="curve" smooth="yes"/>
      <point x="1139" y="793"/>
      <point x="1141" y="821"/>
      <point x="1141" y="845" type="curve" smooth="yes"/>
      <point x="1141" y="942"/>
      <point x="1109" y="1018"/>
      <point x="1029" y="1071" type="curve" smooth="yes"/>
      <point x="953" y="1122"/>
      <point x="844" y="1147"/>
      <point x="705" y="1147" type="curve" smooth="yes"/>
      <point x="637" y="1147"/>
      <point x="577" y="1141"/>
      <point x="509" y="1128" type="curve" smooth="yes"/>
      <point x="443" y="1115"/>
      <point x="372" y="1096"/>
      <point x="295" y="1069" type="curve"/>
      <point x="248" y="819" type="line"/>
      <point x="335" y="859"/>
      <point x="403" y="885"/>
      <point x="470" y="904" type="curve" smooth="yes"/>
      <point x="538" y="923"/>
      <point x="600" y="932"/>
      <point x="657" y="932" type="curve" smooth="yes"/>
      <point x="720" y="932"/>
      <point x="769" y="922"/>
      <point x="803" y="902" type="curve" smooth="yes"/>
      <point x="837" y="882"/>
      <point x="854" y="853"/>
      <point x="854" y="815" type="curve" smooth="yes"/>
      <point x="854" y="798" type="line" smooth="yes"/>
      <point x="854" y="797"/>
      <point x="853" y="793"/>
      <point x="852" y="786" type="curve" smooth="yes"/>
      <point x="844" y="737" type="line"/>
      <point x="651" y="737" type="line" smooth="yes"/>
      <point x="456" y="737"/>
      <point x="306" y="699"/>
      <point x="203" y="624" type="curve" smooth="yes"/>
      <point x="99" y="548"/>
      <point x="47" y="436"/>
      <point x="47" y="300" type="curve" smooth="yes"/>
      <point x="47" y="204"/>
      <point x="72" y="119"/>
      <point x="135" y="58" type="curve" smooth="yes"/>
      <point x="195" y="-2"/>
      <point x="279" y="-29"/>
      <point x="379" y="-29" type="curve" smooth="yes"/>
    </contour>
    <contour>
      <point x="452" y="172"/>
      <point x="420" y="186"/>
      <point x="393" y="213" type="curve" smooth="yes"/>
      <point x="366" y="240"/>
      <point x="352" y="273"/>
      <point x="352" y="321" type="curve" smooth="yes"/>
      <point x="352" y="389"/>
      <point x="379" y="443"/>
      <point x="435" y="478" type="curve" smooth="yes"/>
      <point x="490" y="513"/>
      <point x="575" y="530"/>
      <point x="690" y="530" type="curve" smooth="yes"/>
      <point x="803" y="530" type="line"/>
      <point x="784" y="411"/>
      <point x="745" y="324"/>
      <point x="694" y="265" type="curve" smooth="yes"/>
      <point x="641" y="202"/>
      <point x="573" y="172"/>
      <point x="501" y="172" type="curve" smooth="yes"/>
    </contour>
  </outline>
</glyph>
<glyph name="aring" format="1">
  <advance width="1233"/>
  <unicode hex="00E5"/>
  <outline>
    <contour>
      <point x="778" y="1249" type="qcurve" name="dv07"/>
      <point x="721" y="1249"/>
      <point x="618" y="1291"/>
      <point x="576" y="1333" type="qcurve"/>
      <point x="535" y="1375"/>
      <point x="494" y="1477"/>
      <point x="494" y="1534" type="qcurve" name="dh03"/>
      <point x="494" y="1597"/>
      <point x="541" y="1701"/>
      <point x="577" y="1737" type="qcurve"/>
      <point x="614" y="1774"/>
      <point x="717" y="1819"/>
      <point x="779" y="1819" type="qcurve" name="dv04"/>
      <point x="836" y="1819"/>
      <point x="939" y="1778"/>
      <point x="980" y="1737" type="qcurve"/>
      <point x="1015" y="1702"/>
      <point x="1063" y="1599"/>
      <point x="1063" y="1535" type="qcurve"/>
      <point x="1063" y="1472"/>
      <point x="1016" y="1367"/>
      <point x="981" y="1332" type="qcurve"/>
      <point x="940" y="1291"/>
      <point x="835" y="1249"/>
    </contour>
    <contour>
      <point x="779" y="1403" type="qcurve" name="dv08"/>
      <point x="804" y="1403"/>
      <point x="853" y="1422"/>
      <point x="873" y="1442" type="qcurve"/>
      <point x="910" y="1481"/>
      <point x="910" y="1535" type="qcurve"/>
      <point x="910" y="1588"/>
      <point x="871" y="1627" type="qcurve" name="hr01"/>
      <point x="854" y="1644"/>
      <point x="808" y="1665"/>
      <point x="779" y="1665" type="qcurve" name="dv03"/>
      <point x="724" y="1665"/>
      <point x="686" y="1627" type="qcurve"/>
      <point x="647" y="1588"/>
      <point x="647" y="1534" type="qcurve" name="dh04"/>
      <point x="647" y="1479"/>
      <point x="685" y="1441" type="qcurve"/>
      <point x="702" y="1424"/>
      <point x="751" y="1403"/>
    </contour>
    <contour>
      <point x="379" y="-29" type="qcurve" name="dv01"/>
      <point x="304" y="-29"/>
      <point x="180" y="13"/>
      <point x="135" y="58" type="qcurve"/>
      <point x="88" y="104"/>
      <point x="47" y="228"/>
      <point x="47" y="300" type="qcurve" name="dh01"/>
      <point x="47" y="402"/>
      <point x="125" y="567"/>
      <point x="203" y="624" type="qcurve"/>
      <point x="358" y="737"/>
      <point x="651" y="737" type="qcurve"/>
      <point x="844" y="737" type="line" name="dv06"/>
      <point x="852" y="786" type="line"/>
      <point x="854" y="796"/>
      <point x="854" y="798" type="qcurve"/>
      <point x="854" y="815" type="line"/>
      <point x="854" y="872"/>
      <point x="803" y="902" type="qcurve"/>
      <point x="752" y="932"/>
      <point x="657" y="932" type="qcurve" name="sv01"/>
      <point x="572" y="932"/>
      <point x="470" y="904" type="qcurve"/>
      <point x="420" y="890"/>
      <point x="313" y="849"/>
      <point x="248" y="819" type="qcurve" name="ih01"/>
      <point x="295" y="1069" type="line"/>
      <point x="410" y="1109"/>
      <point x="509" y="1128" type="qcurve"/>
      <point x="560" y="1138"/>
      <point x="654" y="1147"/>
      <point x="705" y="1147" type="qcurve" name="at01"/>
      <point x="809" y="1147"/>
      <point x="972" y="1109"/>
      <point x="1029" y="1071" type="qcurve" name="hr02"/>
      <point x="1089" y="1031"/>
      <point x="1141" y="918"/>
      <point x="1141" y="845" type="qcurve"/>
      <point x="1141" y="827"/>
      <point x="1138" y="784"/>
      <point x="1134" y="756" type="qcurve"/>
      <point x="1130" y="727"/>
      <point x="1122" y="678"/>
      <point x="1114" y="639" type="qcurve"/>
      <point x="991" y="0" type="line" name="ab01"/>
      <point x="729" y="0" type="line"/>
      <point x="725" y="125" type="line" name="iv01"/>
      <point x="655" y="46"/>
      <point x="572" y="10" type="qcurve" name="ab02"/>
      <point x="528" y="-10"/>
      <point x="430" y="-29"/>
    </contour>
    <contour>
      <point x="501" y="172" type="qcurve" name="dv02"/>
      <point x="555" y="172"/>
      <point x="654" y="218"/>
      <point x="694" y="265" type="qcurve"/>
      <point x="732" y="309"/>
      <point x="789" y="441"/>
      <point x="803" y="530" type="qcurve" name="dv05"/>
      <point x="690" y="530" type="line"/>
      <point x="517" y="530"/>
      <point x="435" y="478" type="qcurve"/>
      <point x="393" y="452"/>
      <point x="352" y="372"/>
      <point x="352" y="321" type="qcurve" name="dh02"/>
      <point x="352" y="285"/>
      <point x="373" y="233"/>
      <point x="393" y="213" type="qcurve"/>
      <point x="413" y="193"/>
      <point x="464" y="172"/>
    </contour>
  </outline>
</glyph>
<glyph name="ae" format="1">
  <advance width="1233"/>
  <unicode hex="00E6"/>
  <outline>
    <contour>
      <point x="246" y="-29" type="qcurve" name="hr00"/>
      <point x="119" y="-29"/>
      <point x="44" y="50" type="qcurve"/>
      <point x="6" y="90"/>
      <point x="-31" y="195"/>
      <point x="-31" y="267" type="qcurve" name="dh01"/>
      <point x="-31" y="359"/>
      <point x="30" y="513"/>
      <point x="91" y="573" type="qcurve"/>
      <point x="212" y="690"/>
      <point x="416" y="690" type="qcurve"/>
      <point x="524" y="690" type="line" name="dv03"/>
      <point x="535" y="748" type="line"/>
      <point x="538" y="765"/>
      <point x="539" y="774"/>
      <point x="540" y="778" type="qcurve"/>
      <point x="541" y="783"/>
      <point x="541" y="798"/>
      <point x="541" y="800" type="qcurve"/>
      <point x="541" y="836"/>
      <point x="524" y="884"/>
      <point x="507" y="900" type="qcurve"/>
      <point x="472" y="932"/>
      <point x="409" y="932" type="qcurve" name="sv01"/>
      <point x="355" y="932"/>
      <point x="287" y="907" type="qcurve"/>
      <point x="250" y="893"/>
      <point x="174" y="856"/>
      <point x="131" y="831" type="qcurve" name="ih01"/>
      <point x="178" y="1069" type="line"/>
      <point x="218" y="1089"/>
      <point x="293" y="1118"/>
      <point x="330" y="1128" type="qcurve"/>
      <point x="366" y="1138"/>
      <point x="437" y="1147"/>
      <point x="469" y="1147" type="qcurve" name="at01"/>
      <point x="553" y="1147"/>
      <point x="611" y="1112" type="qcurve"/>
      <point x="641" y="1094"/>
      <point x="681" y="1046"/>
      <point x="694" y="1014" type="qcurve" name="iv01"/>
      <point x="747" y="1079"/>
      <point x="816" y="1113" type="qcurve"/>
      <point x="884" y="1147"/>
      <point x="970" y="1147" type="qcurve" name="at02"/>
      <point x="1096" y="1147"/>
      <point x="1163" y="1077" type="qcurve"/>
      <point x="1231" y="1006"/>
      <point x="1231" y="873" type="qcurve"/>
      <point x="1231" y="849"/>
      <point x="1227" y="795"/>
      <point x="1223" y="761" type="qcurve"/>
      <point x="1216" y="703"/>
      <point x="1200" y="620"/>
      <point x="1198" y="606" type="qcurve"/>
      <point x="1176" y="477" type="line"/>
      <point x="725" y="477" type="line" name="dv02"/>
      <point x="722" y="458"/>
      <point x="715" y="410"/>
      <point x="714" y="402" type="qcurve"/>
      <point x="711" y="375"/>
      <point x="711" y="357" type="qcurve"/>
      <point x="711" y="315"/>
      <point x="734" y="249"/>
      <point x="754" y="227" type="qcurve"/>
      <point x="796" y="180"/>
      <point x="867" y="180" type="qcurve" name="sv02"/>
      <point x="921" y="180"/>
      <point x="991" y="209" type="qcurve"/>
      <point x="1022" y="222"/>
      <point x="1091" y="262"/>
      <point x="1124" y="289" type="qcurve"/>
      <point x="1077" y="51" type="line"/>
      <point x="1020" y="11"/>
      <point x="952" y="-9" type="qcurve"/>
      <point x="918" y="-19"/>
      <point x="843" y="-29"/>
      <point x="806" y="-29" type="qcurve" name="sv03"/>
      <point x="754" y="-29"/>
      <point x="677" y="-8"/>
      <point x="642" y="14" type="qcurve"/>
      <point x="574" y="58"/>
      <point x="543" y="135" type="qcurve" name="iv02"/>
      <point x="481" y="52"/>
      <point x="409" y="12" type="qcurve"/>
      <point x="370" y="-10"/>
      <point x="291" y="-29"/>
    </contour>
    <contour>
      <point x="991" y="688" type="line" name="sv04"/>
      <point x="1003" y="755" type="line"/>
      <point x="1007" y="771"/>
      <point x="1009" y="789" type="qcurve"/>
      <point x="1010" y="797"/>
      <point x="1010" y="820"/>
      <point x="1010" y="834" type="qcurve"/>
      <point x="1010" y="884"/>
      <point x="990" y="909" type="qcurve"/>
      <point x="970" y="932"/>
      <point x="926" y="932" type="qcurve" name="sv05"/>
      <point x="869" y="932"/>
      <point x="835" y="890" type="qcurve"/>
      <point x="816" y="867"/>
      <point x="788" y="798"/>
      <point x="780" y="760" type="qcurve"/>
      <point x="766" y="688" type="line"/>
    </contour>
    <contour>
      <point x="296" y="180" type="qcurve" name="dv01"/>
      <point x="362" y="180"/>
      <point x="402" y="232" type="qcurve"/>
      <point x="442" y="284"/>
      <point x="463" y="401" type="qcurve"/>
      <point x="477" y="479" type="line" name="sv06"/>
      <point x="403" y="479" type="line"/>
      <point x="305" y="479"/>
      <point x="247" y="428" type="qcurve"/>
      <point x="217" y="402"/>
      <point x="188" y="331"/>
      <point x="188" y="293" type="qcurve" name="dh02"/>
      <point x="188" y="265"/>
      <point x="203" y="225"/>
      <point x="217" y="210" type="qcurve"/>
      <point x="245" y="180"/>
    </contour>
  </outline>
</glyph>
<glyph name="ccedilla" format="1">
  <advance width="1233"/>
  <unicode hex="00E7"/>
  <outline>
    <contour>
      <point x="809" y="909" type="qcurve" name="hr00"/>
      <point x="720" y="909"/>
      <point x="582" y="843"/>
      <point x="533" y="786" type="qcurve"/>
      <point x="479" y="723"/>
      <point x="426" y="559"/>
      <point x="426" y="466" type="qcurve" name="dh02"/>
      <point x="426" y="397"/>
      <point x="456" y="304"/>
      <point x="487" y="272" type="qcurve"/>
      <point x="518" y="240"/>
      <point x="610" y="209"/>
      <point x="670" y="209" type="qcurve" name="sv01"/>
      <point x="708" y="209"/>
      <point x="782" y="222"/>
      <point x="822" y="235" type="qcurve"/>
      <point x="859" y="247"/>
      <point x="942" y="284"/>
      <point x="992" y="313" type="qcurve" name="iv01"/>
      <point x="936" y="37" type="line"/>
      <point x="858" y="3"/>
      <point x="778" y="-13" type="qcurve" name="ab01"/>
      <point x="760" y="-17"/>
      <point x="723" y="-22"/>
      <point x="705" y="-24" type="qcurve" name="ab02"/>
      <point x="728" y="-59"/>
      <point x="742" y="-94" type="qcurve"/>
      <point x="760" y="-141"/>
      <point x="760" y="-185" type="qcurve"/>
      <point x="760" y="-232"/>
      <point x="723" y="-313"/>
      <point x="685" y="-342" type="qcurve"/>
      <point x="648" y="-371"/>
      <point x="542" y="-401"/>
      <point x="473" y="-401" type="qcurve" name="dv01"/>
      <point x="447" y="-401"/>
      <point x="393" y="-397"/>
      <point x="374" y="-395" type="qcurve" name="sv02"/>
      <point x="352" y="-392"/>
      <point x="322" y="-387"/>
      <point x="300" y="-381"/>
      <point x="284" y="-377"/>
      <point x="275" y="-375" type="qcurve"/>
      <point x="303" y="-219" type="line"/>
      <point x="325" y="-227"/>
      <point x="367" y="-240"/>
      <point x="387" y="-245" type="qcurve"/>
      <point x="427" y="-254"/>
      <point x="464" y="-254" type="qcurve" name="dv02"/>
      <point x="498" y="-254"/>
      <point x="551" y="-240"/>
      <point x="568" y="-227" type="qcurve"/>
      <point x="604" y="-200"/>
      <point x="604" y="-151" type="qcurve"/>
      <point x="604" y="-123"/>
      <point x="591" y="-90" type="qcurve"/>
      <point x="586" y="-78"/>
      <point x="572" y="-47"/>
      <point x="562" y="-27" type="qcurve" name="ab03"/>
      <point x="473" y="-21"/>
      <point x="318" y="37"/>
      <point x="258" y="94" type="qcurve"/>
      <point x="189" y="160"/>
      <point x="130" y="341"/>
      <point x="130" y="448" type="qcurve" name="dh01"/>
      <point x="130" y="519"/>
      <point x="154" y="657"/>
      <point x="200" y="786"/>
      <point x="268" y="902"/>
      <point x="313" y="950" type="qcurve"/>
      <point x="403" y="1047"/>
      <point x="648" y="1147"/>
      <point x="792" y="1147" type="qcurve" name="at01"/>
      <point x="842" y="1147"/>
      <point x="938" y="1136"/>
      <point x="976" y="1127" type="qcurve"/>
      <point x="1017" y="1117"/>
      <point x="1099" y="1085"/>
      <point x="1137" y="1063" type="qcurve"/>
      <point x="1084" y="795" type="line" name="iv02"/>
      <point x="1024" y="852"/>
      <point x="955" y="881" type="qcurve"/>
      <point x="889" y="909"/>
    </contour>
  </outline>
</glyph>
<glyph name="egrave" format="1">
  <advance width="1233"/>
  <unicode hex="00E8"/>
  <outline>
    <contour>
      <point x="391" y="1674" type="line" name="hr00"/>
      <point x="675" y="1674" type="line"/>
      <point x="884" y="1298" type="line"/>
      <point x="686" y="1298" type="line"/>
    </contour>
    <contour>
      <point x="583" y="-29" type="qcurve" name="dv01"/>
      <point x="333" y="-29"/>
      <point x="205" y="89" type="qcurve"/>
      <point x="139" y="150"/>
      <point x="76" y="325"/>
      <point x="76" y="438" type="qcurve"/>
      <point x="76" y="575"/>
      <point x="120" y="709" type="qcurve"/>
      <point x="143" y="777"/>
      <point x="204" y="889"/>
      <point x="244" y="938" type="qcurve"/>
      <point x="287" y="990"/>
      <point x="388" y="1069"/>
      <point x="444" y="1095" type="qcurve"/>
      <point x="498" y="1121"/>
      <point x="623" y="1149"/>
      <point x="694" y="1149" type="qcurve" name="dv06"/>
      <point x="796" y="1149"/>
      <point x="968" y="1089"/>
      <point x="1030" y="1029" type="qcurve"/>
      <point x="1088" y="973"/>
      <point x="1155" y="815"/>
      <point x="1155" y="713" type="qcurve"/>
      <point x="1155" y="693"/>
      <point x="1152" y="633"/>
      <point x="1149" y="607" type="qcurve"/>
      <point x="1147" y="587"/>
      <point x="1135" y="506"/>
      <point x="1128" y="465" type="qcurve" name="dv03"/>
      <point x="369" y="465" type="line"/>
      <point x="367" y="457"/>
      <point x="366" y="441"/>
      <point x="365" y="433" type="qcurve"/>
      <point x="362" y="403" type="line"/>
      <point x="362" y="348"/>
      <point x="398" y="277"/>
      <point x="429" y="254" type="qcurve"/>
      <point x="496" y="203"/>
      <point x="629" y="203" type="qcurve" name="dv02"/>
      <point x="681" y="203"/>
      <point x="789" y="218"/>
      <point x="843" y="234" type="qcurve"/>
      <point x="951" y="265"/>
      <point x="1044" y="324" type="qcurve"/>
      <point x="993" y="55" type="line"/>
      <point x="898" y="13"/>
      <point x="795" y="-8" type="qcurve"/>
      <point x="691" y="-29"/>
    </contour>
    <contour>
      <point x="876" y="684" type="line" name="dv04"/>
      <point x="880" y="697"/>
      <point x="882" y="712" type="qcurve"/>
      <point x="883" y="719"/>
      <point x="883" y="731"/>
      <point x="883" y="737" type="qcurve"/>
      <point x="883" y="821"/>
      <point x="832" y="871" type="qcurve"/>
      <point x="782" y="920"/>
      <point x="692" y="920" type="qcurve" name="dv05"/>
      <point x="592" y="920"/>
      <point x="521" y="861" type="qcurve"/>
      <point x="450" y="802"/>
      <point x="410" y="684" type="qcurve"/>
    </contour>
  </outline>
</glyph>
<glyph name="icircumflex" format="1">
  <advance width="1233"/>
  <unicode hex="00EE"/>
  <outline>
    <contour>
      <point x="596" y="1673" type="line" name="hr00"/>
      <point x="839" y="1673" type="line"/>
      <point x="1022" y="1297" type="line" name="iv01"/>
      <point x="846" y="1297" type="line"/>
      <point x="694" y="1522" type="line"/>
      <point x="454" y="1297" type="line"/>
      <point x="264" y="1297" type="line" name="iv02"/>
    </contour>
    <contour>
      <point x="700" y="-8" type="line" name="ab01"/>
      <point x="593" y="-8"/>
      <point x="453" y="20"/>
      <point x="410" y="49" type="qcurve"/>
      <point x="363" y="80"/>
      <point x="325" y="171"/>
      <point x="325" y="229" type="qcurve"/>
      <point x="325" y="246"/>
      <point x="328" y="275"/>
      <point x="330" y="292" type="qcurve"/>
      <point x="332" y="310"/>
      <point x="339" y="349"/>
      <point x="344" y="371" type="qcurve"/>
      <point x="464" y="895" type="line" name="sv01"/>
      <point x="228" y="895" type="line"/>
      <point x="271" y="1120" type="line" name="at01"/>
      <point x="799" y="1120" type="line"/>
      <point x="633" y="357" type="line"/>
      <point x="630" y="345"/>
      <point x="628" y="334"/>
      <point x="628" y="328"/>
      <point x="628" y="325"/>
      <point x="627" y="321" type="qcurve"/>
      <point x="625" y="313"/>
      <point x="624" y="301"/>
      <point x="624" y="295" type="qcurve"/>
      <point x="624" y="278"/>
      <point x="638" y="247"/>
      <point x="655" y="236" type="qcurve"/>
      <point x="686" y="217"/>
      <point x="764" y="217" type="qcurve" name="sv02"/>
      <point x="1042" y="217" type="line"/>
      <point x="997" y="-8" type="line"/>
    </contour>
  </outline>
</glyph>
<glyph name="eth" format="1">
  <advance width="1233"/>
  <unicode hex="00F0"/>
  <outline>
    <contour>
      <point x="538" y="-29" type="qcurve" name="hr00"/>
      <point x="426" y="-29"/>
      <point x="259" y="32"/>
      <point x="202" y="86" type="qcurve"/>
      <point x="139" y="146"/>
      <point x="82" y="313"/>
      <point x="82" y="420" type="qcurve" name="sh01"/>
      <point x="82" y="549"/>
      <point x="161" y="782"/>
      <point x="241" y="873" type="qcurve"/>
      <point x="315" y="957"/>
      <point x="520" y="1053"/>
      <point x="651" y="1053" type="qcurve" name="dv03"/>
      <point x="693" y="1053"/>
      <point x="726" y="1047" type="qcurve"/>
      <point x="743" y="1044"/>
      <point x="774" y="1035"/>
      <point x="788" y="1028" type="qcurve" name="ih01"/>
      <point x="782" y="1043"/>
      <point x="773" y="1063"/>
      <point x="762" y="1087"/>
      <point x="746" y="1119"/>
      <point x="733" y="1145" type="qcurve"/>
      <point x="710" y="1189"/>
      <point x="686" y="1232"/>
      <point x="678" y="1243" type="qcurve"/>
      <point x="348" y="1120" type="line"/>
      <point x="307" y="1235" type="line"/>
      <point x="614" y="1350" type="line"/>
      <point x="489" y="1556" type="line" name="ih02"/>
      <point x="768" y="1556" type="line"/>
      <point x="842" y="1436" type="line" name="sh03"/>
      <point x="1165" y="1554" type="line" name="at01"/>
      <point x="1206" y="1442" type="line"/>
      <point x="903" y="1329" type="line"/>
      <point x="1023" y="1147"/>
      <point x="1082" y="980" type="qcurve"/>
      <point x="1111" y="899"/>
      <point x="1141" y="735"/>
      <point x="1141" y="646" type="qcurve" name="sh02"/>
      <point x="1141" y="502"/>
      <point x="1059" y="252"/>
      <point x="977" y="158" type="qcurve"/>
      <point x="899" y="68"/>
      <point x="679" y="-29"/>
    </contour>
    <contour>
      <point x="560" y="207" type="qcurve" name="dv01"/>
      <point x="620" y="207"/>
      <point x="726" y="269"/>
      <point x="767" y="332" type="qcurve"/>
      <point x="806" y="392"/>
      <point x="848" y="559"/>
      <point x="848" y="652" type="qcurve" name="ah01"/>
      <point x="848" y="669"/>
      <point x="847" y="707"/>
      <point x="846" y="718" type="qcurve" name="sh04"/>
      <point x="845" y="726"/>
      <point x="840" y="764"/>
      <point x="838" y="778" type="qcurve" name="sh05"/>
      <point x="819" y="789"/>
      <point x="777" y="804"/>
      <point x="759" y="809" type="qcurve"/>
      <point x="739" y="814"/>
      <point x="694" y="819"/>
      <point x="676" y="819" type="qcurve" name="dv02"/>
      <point x="608" y="819"/>
      <point x="499" y="761"/>
      <point x="460" y="710" type="qcurve"/>
      <point x="417" y="653"/>
      <point x="375" y="510"/>
      <point x="375" y="437" type="qcurve" name="sh06"/>
      <point x="375" y="377"/>
      <point x="401" y="294"/>
      <point x="424" y="267" type="qcurve"/>
      <point x="446" y="241"/>
      <point x="514" y="207"/>
    </contour>
  </outline>
</glyph>
<glyph name="ntilde" format="1">
  <advance width="1233"/>
  <unicode hex="00F1"/>
  <outline>
    <contour>
      <point x="880" y="1297" type="qcurve" name="sv02"/>
      <point x="860" y="1297"/>
      <point x="829" y="1303"/>
      <point x="812" y="1310" type="qcurve"/>
      <point x="795" y="1317"/>
      <point x="759" y="1338"/>
      <point x="739" y="1354" type="qcurve"/>
      <point x="690" y="1391" type="line"/>
      <point x="687" y="1394"/>
      <point x="687" y="1393"/>
      <point x="685" y="1395" type="qcurve"/>
      <point x="668" y="1408"/>
      <point x="632" y="1428"/>
      <point x="612" y="1428" type="qcurve"/>
      <point x="577" y="1428"/>
      <point x="552" y="1394" type="qcurve"/>
      <point x="527" y="1360"/>
      <point x="516" y="1299" type="qcurve" name="sv01"/>
      <point x="377" y="1299" type="line"/>
      <point x="396" y="1429"/>
      <point x="464" y="1506" type="qcurve"/>
      <point x="498" y="1544"/>
      <point x="580" y="1583"/>
      <point x="625" y="1583" type="qcurve" name="av01"/>
      <point x="642" y="1583"/>
      <point x="678" y="1577"/>
      <point x="692" y="1571" type="qcurve" name="av02"/>
      <point x="706" y="1565"/>
      <point x="745" y="1539"/>
      <point x="768" y="1522" type="qcurve"/>
      <point x="819" y="1483" type="line"/>
      <point x="829" y="1475"/>
      <point x="847" y="1464"/>
      <point x="856" y="1460" type="qcurve"/>
      <point x="865" y="1456"/>
      <point x="881" y="1452"/>
      <point x="890" y="1452" type="qcurve"/>
      <point x="910" y="1452"/>
      <point x="941" y="1470"/>
      <point x="953" y="1486" type="qcurve"/>
      <point x="978" y="1519"/>
      <point x="989" y="1581" type="qcurve" name="av03"/>
      <point x="1128" y="1581" type="line" name="hr01"/>
      <point x="1106" y="1441"/>
      <point x="1043" y="1369" type="qcurve"/>
      <point x="980" y="1297"/>
    </contour>
    <contour>
      <point x="276" y="1120" type="line" name="at01"/>
      <point x="540" y="1120" type="line"/>
      <point x="537" y="952" type="line" name="iv01"/>
      <point x="562" y="1000"/>
      <point x="630" y="1072"/>
      <point x="669" y="1096" type="qcurve"/>
      <point x="751" y="1147"/>
      <point x="857" y="1147" type="qcurve" name="at02"/>
      <point x="918" y="1147"/>
      <point x="1016" y="1113"/>
      <point x="1051" y="1078" type="qcurve"/>
      <point x="1084" y="1045"/>
      <point x="1120" y="947"/>
      <point x="1120" y="880" type="qcurve" name="dh02"/>
      <point x="1120" y="866"/>
      <point x="1118" y="832"/>
      <point x="1116" y="813" type="qcurve" name="sh01"/>
      <point x="1114" y="801"/>
      <point x="1107" y="751"/>
      <point x="1102" y="728" type="qcurve"/>
      <point x="961" y="0" type="line" name="ab01"/>
      <point x="668" y="0" type="line" name="hr02"/>
      <point x="801" y="682" type="line" name="sh02"/>
      <point x="802" y="686"/>
      <point x="804" y="703"/>
      <point x="807" y="720"/>
      <point x="809" y="734"/>
      <point x="809" y="735" type="qcurve" name="hr03"/>
      <point x="810" y="748"/>
      <point x="811" y="774"/>
      <point x="811" y="784" type="qcurve" name="dh01"/>
      <point x="811" y="813"/>
      <point x="798" y="860"/>
      <point x="782" y="877" type="qcurve"/>
      <point x="753" y="907"/>
      <point x="699" y="907" type="qcurve" name="sv03"/>
      <point x="616" y="907"/>
      <point x="558" y="835" type="qcurve"/>
      <point x="498" y="762"/>
      <point x="473" y="629" type="qcurve"/>
      <point x="352" y="0" type="line" name="ab02"/>
      <point x="59" y="0" type="line"/>
    </contour>
  </outline>
</glyph>
<glyph name="ocircumflex" format="1">
  <advance width="1233"/>
  <unicode hex="00F4"/>
  <outline>
    <contour>
      <point x="668" y="1675" type="line" name="hr00"/>
      <point x="911" y="1675" type="line"/>
      <point x="1094" y="1299" type="line" name="ih01"/>
      <point x="918" y="1299" type="line"/>
      <point x="766" y="1524" type="line"/>
      <point x="526" y="1299" type="line"/>
      <point x="336" y="1299" type="line" name="ih02"/>
    </contour>
    <contour>
      <point x="543" y="-29" type="qcurve" name="dv01"/>
      <point x="429" y="-29"/>
      <point x="262" y="38"/>
      <point x="208" y="91" type="qcurve"/>
      <point x="144" y="154"/>
      <point x="88" y="330"/>
      <point x="88" y="442" type="qcurve" name="sh02"/>
      <point x="88" y="584"/>
      <point x="171" y="848"/>
      <point x="254" y="949" type="qcurve"/>
      <point x="334" y="1046"/>
      <point x="554" y="1149"/>
      <point x="689" y="1149" type="qcurve" name="dv04"/>
      <point x="789" y="1149"/>
      <point x="963" y="1090"/>
      <point x="1025" y="1030" type="qcurve"/>
      <point x="1088" y="968"/>
      <point x="1145" y="790"/>
      <point x="1145" y="676" type="qcurve" name="sh01"/>
      <point x="1145" y="531"/>
      <point x="1061" y="269"/>
      <point x="980" y="171" type="qcurve"/>
      <point x="895" y="68"/>
      <point x="672" y="-29"/>
    </contour>
    <contour>
      <point x="563" y="207" type="qcurve" name="dv02"/>
      <point x="621" y="207"/>
      <point x="725" y="274"/>
      <point x="767" y="343" type="qcurve"/>
      <point x="805" y="406"/>
      <point x="850" y="576"/>
      <point x="850" y="672" type="qcurve" name="ah01"/>
      <point x="850" y="741"/>
      <point x="826" y="826"/>
      <point x="804" y="853" type="qcurve"/>
      <point x="778" y="885"/>
      <point x="708" y="911"/>
      <point x="672" y="911" type="qcurve" name="dv03"/>
      <point x="548" y="911"/>
      <point x="466" y="776" type="qcurve"/>
      <point x="445" y="740"/>
      <point x="413" y="659"/>
      <point x="393" y="574"/>
      <point x="383" y="488"/>
      <point x="383" y="448" type="qcurve" name="sh03"/>
      <point x="383" y="395"/>
      <point x="403" y="301"/>
      <point x="431" y="267" type="qcurve"/>
      <point x="452" y="241"/>
      <point x="518" y="207"/>
    </contour>
  </outline>
</glyph>
